G04*
G04 #@! TF.GenerationSoftware,Altium Limited,Altium Designer,23.10.1 (27)*
G04*
G04 Layer_Color=32896*
%FSLAX44Y44*%
%MOMM*%
G71*
G04*
G04 #@! TF.SameCoordinates,2FD0DFDD-310B-44B2-BA78-C92062C4FB9D*
G04*
G04*
G04 #@! TF.FilePolarity,Positive*
G04*
G01*
G75*
%ADD10C,0.2000*%
%ADD12C,0.2500*%
%ADD17C,0.2540*%
D10*
X332740Y920230D02*
Y927480D01*
Y847980D02*
Y855230D01*
X320240D02*
X345240D01*
X320240D02*
Y920230D01*
X345240D01*
Y855230D02*
Y920230D01*
X902970Y840220D02*
Y847470D01*
Y767970D02*
Y775220D01*
X890470D02*
X915470D01*
X890470D02*
Y840220D01*
X915470D01*
Y775220D02*
Y840220D01*
X781050Y887210D02*
Y894460D01*
Y814960D02*
Y822210D01*
X768550D02*
X793550D01*
X768550D02*
Y887210D01*
X793550D01*
Y822210D02*
Y887210D01*
X101600Y844030D02*
Y851280D01*
Y771780D02*
Y779030D01*
X89100D02*
X114100D01*
X89100D02*
Y844030D01*
X114100D01*
Y779030D02*
Y844030D01*
X655320Y921500D02*
Y928750D01*
Y849250D02*
Y856500D01*
X642820D02*
X667820D01*
X642820D02*
Y921500D01*
X667820D01*
Y856500D02*
Y921500D01*
X213360Y891020D02*
Y898270D01*
Y818770D02*
Y826020D01*
X200860D02*
X225860D01*
X200860D02*
Y891020D01*
X225860D01*
Y826020D02*
Y891020D01*
X26450Y819680D02*
X27750Y819680D01*
X61150D02*
X62450Y819680D01*
Y790680D02*
Y819680D01*
X26450Y790680D02*
X27750Y790680D01*
X61150D02*
X62450Y790680D01*
X26450D02*
Y819680D01*
X70196Y739918D02*
Y741918D01*
X81696Y739918D02*
Y741918D01*
X175450Y840210D02*
X176750D01*
X140750D02*
X142050Y840210D01*
X140750Y840210D02*
X140750Y869210D01*
X175450D02*
X176750D01*
X140750D02*
X142050D01*
X176750Y840210D02*
X176750Y869210D01*
X147920Y774970D02*
Y776970D01*
X159420Y774970D02*
Y776970D01*
X257590Y903500D02*
X258890D01*
X292290D02*
X293590D01*
X293590Y874500D02*
X293590Y903500D01*
X257590Y874500D02*
X258890D01*
X292290D02*
X293590D01*
X257590D02*
X257590Y903500D01*
X254600Y809260D02*
Y811260D01*
X266100Y809260D02*
Y811260D01*
X373160Y931440D02*
X374460Y931440D01*
X407860D02*
X409160Y931440D01*
Y902440D02*
Y931440D01*
X373160Y902440D02*
X374460Y902440D01*
X407860D02*
X409160Y902440D01*
X373160D02*
Y931440D01*
X464912Y903858D02*
Y905858D01*
X476412Y903858D02*
Y905858D01*
X573732Y931486D02*
X575033Y931486D01*
X608433D02*
X609733Y931486D01*
Y902486D02*
Y931486D01*
X573732Y902486D02*
X575033Y902486D01*
X608433D02*
X609733Y902486D01*
X573732D02*
Y931486D01*
X824010Y864130D02*
X825310Y864130D01*
X858710D02*
X860010Y864130D01*
Y835130D02*
Y864130D01*
X824010Y835130D02*
X825310Y835130D01*
X858710D02*
X860010Y835130D01*
X824010D02*
Y864130D01*
X628050Y830850D02*
Y832850D01*
X616550Y830850D02*
X616550Y832850D01*
X940850Y776710D02*
X940850Y805710D01*
X975550Y776710D02*
X976850D01*
X940850D02*
X942150D01*
X976850D02*
X976850Y805710D01*
X975550D02*
X976850D01*
X940850D02*
X942150D01*
X698170Y902550D02*
X698170Y873550D01*
X732870D02*
X734170D01*
X698170D02*
X699470D01*
X734170Y902550D02*
X734170Y873550D01*
X732870Y902550D02*
X734170D01*
X698170D02*
X699470D01*
X713140Y801640D02*
Y803640D01*
X701640D02*
X701640Y801640D01*
X757590Y796560D02*
Y798560D01*
X746090Y796560D02*
Y798560D01*
X931155Y701324D02*
Y703324D01*
X919655Y701324D02*
X919655Y703324D01*
D12*
X54700Y839180D02*
X52825Y840263D01*
Y838098D01*
X54700Y839180D01*
X151000Y820710D02*
X149125Y821793D01*
Y819627D01*
X151000Y820710D01*
X285840Y923000D02*
X283965Y924082D01*
Y921917D01*
X285840Y923000D01*
X401410Y950940D02*
X399535Y952023D01*
Y949857D01*
X401410Y950940D01*
X601983Y950986D02*
X600108Y952068D01*
Y949903D01*
X601983Y950986D01*
X852260Y883630D02*
X850385Y884713D01*
Y882548D01*
X852260Y883630D01*
X969100Y825210D02*
X967225Y826292D01*
Y824127D01*
X969100Y825210D01*
X726420Y922050D02*
X724545Y923132D01*
Y920967D01*
X726420Y922050D01*
D17*
X225298Y924306D02*
Y939541D01*
X217680D01*
X215141Y937002D01*
Y931924D01*
X217680Y929384D01*
X225298D01*
X220220D02*
X215141Y924306D01*
X210063Y937002D02*
X207524Y939541D01*
X202445D01*
X199906Y937002D01*
Y934463D01*
X204985Y929384D01*
Y926845D02*
Y924306D01*
X344678Y953516D02*
Y968751D01*
X337061D01*
X334521Y966212D01*
Y961133D01*
X337061Y958594D01*
X344678D01*
X339600D02*
X334521Y953516D01*
X329443Y966212D02*
X326904Y968751D01*
X321825D01*
X319286Y966212D01*
Y963673D01*
X324365Y958594D01*
Y956055D02*
Y953516D01*
X113538Y877316D02*
Y892551D01*
X105920D01*
X103381Y890012D01*
Y884933D01*
X105920Y882394D01*
X113538D01*
X108460D02*
X103381Y877316D01*
X98303Y890012D02*
X95764Y892551D01*
X90685D01*
X88146Y890012D01*
Y887473D01*
X93225Y882394D01*
Y879855D02*
Y877316D01*
X693416Y958852D02*
Y974088D01*
X685798D01*
X683259Y971548D01*
Y966470D01*
X685798Y963931D01*
X693416D01*
X688337D02*
X683259Y958852D01*
X678181Y971548D02*
X675642Y974088D01*
X670563D01*
X668024Y971548D01*
Y969009D01*
X673102Y963931D01*
Y961392D02*
Y958852D01*
X792988Y920496D02*
Y935731D01*
X785370D01*
X782831Y933192D01*
Y928113D01*
X785370Y925574D01*
X792988D01*
X787910D02*
X782831Y920496D01*
X777753Y933192D02*
X775214Y935731D01*
X770135D01*
X767596Y933192D01*
Y930653D01*
X772675Y925574D01*
Y923035D02*
Y920496D01*
X911856Y881383D02*
Y896618D01*
X904238D01*
X901699Y894078D01*
Y889000D01*
X904238Y886461D01*
X911856D01*
X906777D02*
X901699Y881383D01*
X896621Y894078D02*
X894082Y896618D01*
X889003D01*
X886464Y894078D01*
Y891539D01*
X891543Y886461D01*
Y883922D02*
Y881383D01*
X975354Y695963D02*
Y711198D01*
X967736D01*
X965197Y708658D01*
Y703580D01*
X967736Y701041D01*
X975354D01*
X970275D02*
X965197Y695963D01*
X960119D02*
X955040D01*
X957580D01*
Y711198D01*
X960119Y708658D01*
X937266Y695963D02*
X947423D01*
X937266Y706119D01*
Y708658D01*
X939805Y711198D01*
X944884D01*
X947423Y708658D01*
X758185Y763272D02*
Y778508D01*
X750567D01*
X748028Y775968D01*
Y770890D01*
X750567Y768351D01*
X758185D01*
X753106D02*
X748028Y763272D01*
X742950D02*
X737871D01*
X740410D01*
Y778508D01*
X742950Y775968D01*
X730254Y763272D02*
X725175D01*
X727714D01*
Y778508D01*
X730254Y775968D01*
X861054Y722633D02*
Y737868D01*
X853436D01*
X850897Y735328D01*
Y730250D01*
X853436Y727711D01*
X861054D01*
X855975D02*
X850897Y722633D01*
X845819D02*
X840740D01*
X843280D01*
Y737868D01*
X845819Y735328D01*
X833123D02*
X830584Y737868D01*
X825505D01*
X822966Y735328D01*
Y725172D01*
X825505Y722633D01*
X830584D01*
X833123Y725172D01*
Y735328D01*
X718816Y768353D02*
Y783587D01*
X711198D01*
X708659Y781048D01*
Y775970D01*
X711198Y773431D01*
X718816D01*
X713737D02*
X708659Y768353D01*
X703581Y770892D02*
X701042Y768353D01*
X695963D01*
X693424Y770892D01*
Y781048D01*
X695963Y783587D01*
X701042D01*
X703581Y781048D01*
Y778509D01*
X701042Y775970D01*
X693424D01*
X634996Y797562D02*
Y812797D01*
X627378D01*
X624839Y810258D01*
Y805180D01*
X627378Y802641D01*
X634996D01*
X629917D02*
X624839Y797562D01*
X619761Y810258D02*
X617222Y812797D01*
X612143D01*
X609604Y810258D01*
Y807719D01*
X612143Y805180D01*
X609604Y802641D01*
Y800102D01*
X612143Y797562D01*
X617222D01*
X619761Y800102D01*
Y802641D01*
X617222Y805180D01*
X619761Y807719D01*
Y810258D01*
X617222Y805180D02*
X612143D01*
X510536Y935993D02*
Y951227D01*
X502918D01*
X500379Y948688D01*
Y943610D01*
X502918Y941071D01*
X510536D01*
X505457D02*
X500379Y935993D01*
X495301Y951227D02*
X485144D01*
Y948688D01*
X495301Y938532D01*
Y935993D01*
X458466Y896622D02*
Y911858D01*
X450848D01*
X448309Y909318D01*
Y904240D01*
X450848Y901701D01*
X458466D01*
X453387D02*
X448309Y896622D01*
X433074Y911858D02*
X438153Y909318D01*
X443231Y904240D01*
Y899162D01*
X440692Y896622D01*
X435613D01*
X433074Y899162D01*
Y901701D01*
X435613Y904240D01*
X443231D01*
X273046Y775973D02*
Y791208D01*
X265428D01*
X262889Y788668D01*
Y783590D01*
X265428Y781051D01*
X273046D01*
X267967D02*
X262889Y775973D01*
X247654Y791208D02*
X257811D01*
Y783590D01*
X252733Y786129D01*
X250193D01*
X247654Y783590D01*
Y778512D01*
X250193Y775973D01*
X255272D01*
X257811Y778512D01*
X312416Y778512D02*
Y793747D01*
X304798D01*
X302259Y791208D01*
Y786130D01*
X304798Y783591D01*
X312416D01*
X307337D02*
X302259Y778512D01*
X289563D02*
Y793747D01*
X297181Y786130D01*
X287024D01*
X166366Y741683D02*
Y756917D01*
X158748D01*
X156209Y754378D01*
Y749300D01*
X158748Y746761D01*
X166366D01*
X161287D02*
X156209Y741683D01*
X151131Y754378D02*
X148592Y756917D01*
X143513D01*
X140974Y754378D01*
Y751839D01*
X143513Y749300D01*
X146053D01*
X143513D01*
X140974Y746761D01*
Y744222D01*
X143513Y741683D01*
X148592D01*
X151131Y744222D01*
X100326Y706123D02*
Y721357D01*
X92708D01*
X90169Y718818D01*
Y713740D01*
X92708Y711201D01*
X100326D01*
X95247D02*
X90169Y706123D01*
X74934D02*
X85091D01*
X74934Y716279D01*
Y718818D01*
X77473Y721357D01*
X82552D01*
X85091Y718818D01*
X43177Y683262D02*
Y698497D01*
X35559D01*
X33020Y695958D01*
Y690880D01*
X35559Y688341D01*
X43177D01*
X38098D02*
X33020Y683262D01*
X27942D02*
X22863D01*
X25402D01*
Y698497D01*
X27942Y695958D01*
X969007Y754378D02*
X971546Y756917D01*
X976624D01*
X979163Y754378D01*
Y744222D01*
X976624Y741683D01*
X971546D01*
X969007Y744222D01*
X963928Y756917D02*
X953772D01*
Y754378D01*
X963928Y744222D01*
Y741683D01*
X953772D01*
X948693Y754378D02*
X946154Y756917D01*
X941076D01*
X938537Y754378D01*
Y751839D01*
X941076Y749300D01*
X938537Y746761D01*
Y744222D01*
X941076Y741683D01*
X946154D01*
X948693Y744222D01*
Y746761D01*
X946154Y749300D01*
X948693Y751839D01*
Y754378D01*
X946154Y749300D02*
X941076D01*
X852167Y812093D02*
X854706Y814633D01*
X859784D01*
X862323Y812093D01*
Y801937D01*
X859784Y799398D01*
X854706D01*
X852167Y801937D01*
X847088Y814633D02*
X836932D01*
Y812093D01*
X847088Y801937D01*
Y799398D01*
X836932D01*
X831853Y814633D02*
X821697D01*
Y812093D01*
X831853Y801937D01*
Y799398D01*
X725167Y852168D02*
X727706Y854707D01*
X732784D01*
X735323Y852168D01*
Y842012D01*
X732784Y839473D01*
X727706D01*
X725167Y842012D01*
X720088Y854707D02*
X709932D01*
Y852168D01*
X720088Y842012D01*
Y839473D01*
X709932D01*
X694697Y854707D02*
X699775Y852168D01*
X704853Y847090D01*
Y842012D01*
X702314Y839473D01*
X697236D01*
X694697Y842012D01*
Y844551D01*
X697236Y847090D01*
X704853D01*
X601977Y881378D02*
X604516Y883917D01*
X609594D01*
X612133Y881378D01*
Y871222D01*
X609594Y868682D01*
X604516D01*
X601977Y871222D01*
X596898Y883917D02*
X586742D01*
Y881378D01*
X596898Y871222D01*
Y868682D01*
X586742D01*
X571507Y883917D02*
X581663D01*
Y876300D01*
X576585Y878839D01*
X574046D01*
X571507Y876300D01*
Y871222D01*
X574046Y868682D01*
X579124D01*
X581663Y871222D01*
X400016Y881544D02*
X402555Y884083D01*
X407633D01*
X410172Y881544D01*
Y871387D01*
X407633Y868848D01*
X402555D01*
X400016Y871387D01*
X394937Y884083D02*
X384781D01*
Y881544D01*
X394937Y871387D01*
Y868848D01*
X384781D01*
X372085D02*
Y884083D01*
X379702Y876466D01*
X369546D01*
X285747Y853438D02*
X288286Y855977D01*
X293364D01*
X295903Y853438D01*
Y843282D01*
X293364Y840742D01*
X288286D01*
X285747Y843282D01*
X280668Y855977D02*
X270512D01*
Y853438D01*
X280668Y843282D01*
Y840742D01*
X270512D01*
X265433Y853438D02*
X262894Y855977D01*
X257816D01*
X255277Y853438D01*
Y850899D01*
X257816Y848360D01*
X260355D01*
X257816D01*
X255277Y845821D01*
Y843282D01*
X257816Y840742D01*
X262894D01*
X265433Y843282D01*
X170177Y819148D02*
X172716Y821687D01*
X177794D01*
X180333Y819148D01*
Y808992D01*
X177794Y806452D01*
X172716D01*
X170177Y808992D01*
X165098Y821687D02*
X154942D01*
Y819148D01*
X165098Y808992D01*
Y806452D01*
X154942D01*
X139707D02*
X149863D01*
X139707Y816609D01*
Y819148D01*
X142246Y821687D01*
X147324D01*
X149863Y819148D01*
X53337Y769618D02*
X55877Y772158D01*
X60955D01*
X63494Y769618D01*
Y759462D01*
X60955Y756923D01*
X55877D01*
X53337Y759462D01*
X48259Y772158D02*
X38102D01*
Y769618D01*
X48259Y759462D01*
Y756923D01*
X38102D01*
X33024D02*
X27946D01*
X30485D01*
Y772158D01*
X33024Y769618D01*
M02*
