G04*
G04 #@! TF.GenerationSoftware,Altium Limited,Altium Designer,23.10.1 (27)*
G04*
G04 Layer_Color=65535*
%FSLAX44Y44*%
%MOMM*%
G71*
G04*
G04 #@! TF.SameCoordinates,2FD0DFDD-310B-44B2-BA78-C92062C4FB9D*
G04*
G04*
G04 #@! TF.FilePolarity,Positive*
G04*
G01*
G75*
%ADD10C,0.2000*%
%ADD11C,0.6000*%
%ADD12C,0.2500*%
%ADD13C,0.0000*%
%ADD14C,0.1270*%
%ADD15C,0.4000*%
%ADD16C,0.2032*%
%ADD17C,0.2540*%
%ADD18C,0.1000*%
G36*
X729372Y37207D02*
X704700D01*
Y182880D01*
X729372D01*
Y37207D01*
D02*
G37*
G36*
X265280Y181421D02*
Y35748D01*
X240607D01*
Y181421D01*
X265280D01*
D02*
G37*
%LPC*%
G36*
X726451Y146537D02*
X712209D01*
D01*
X712931D01*
X712681Y146093D01*
X712514Y145676D01*
X712376Y145260D01*
X712292Y144871D01*
X712237Y144566D01*
X712209Y144316D01*
Y144094D01*
X712237Y143761D01*
X712265Y143483D01*
X712348Y143205D01*
X712431Y142983D01*
X712514Y142789D01*
X712570Y142622D01*
X712626Y142539D01*
X712653Y142511D01*
X712848Y142234D01*
X713125Y141984D01*
X713431Y141706D01*
X713736Y141484D01*
X714041Y141262D01*
X714291Y141096D01*
X714458Y140984D01*
X714486Y140957D01*
X712514D01*
Y137542D01*
X726451D01*
Y146537D01*
D02*
G37*
G36*
X726757Y134821D02*
X712209D01*
D01*
X719455D01*
X718872Y134794D01*
X718317Y134738D01*
X717817Y134627D01*
X717317Y134516D01*
X716873Y134349D01*
X716429Y134183D01*
X716040Y133988D01*
X715679Y133822D01*
X715374Y133627D01*
X715069Y133433D01*
X714846Y133266D01*
X714624Y133100D01*
X714486Y132989D01*
X714347Y132878D01*
X714291Y132822D01*
X714264Y132795D01*
X713903Y132406D01*
X713597Y131989D01*
X713320Y131573D01*
X713070Y131129D01*
X712875Y130685D01*
X712709Y130268D01*
X712570Y129852D01*
X712459Y129435D01*
X712376Y129074D01*
X712320Y128714D01*
X712265Y128408D01*
X712237Y128131D01*
X712209Y127908D01*
Y127603D01*
X712237Y126854D01*
X712348Y126159D01*
X712487Y125521D01*
X712653Y124966D01*
X712764Y124743D01*
X712848Y124521D01*
X712903Y124327D01*
X712987Y124188D01*
X713042Y124050D01*
X713098Y123966D01*
X713125Y123911D01*
Y123883D01*
X713514Y123300D01*
X713930Y122800D01*
X714375Y122356D01*
X714791Y121995D01*
X715180Y121718D01*
X715485Y121495D01*
X715596Y121412D01*
X715679Y121384D01*
X715735Y121329D01*
X715763D01*
X716401Y121023D01*
X717040Y120829D01*
X717623Y120662D01*
X718150Y120551D01*
X718622Y120496D01*
X718817Y120468D01*
X718983D01*
X719094Y120440D01*
X719288D01*
X720149Y120468D01*
X720954Y120579D01*
X721648Y120718D01*
X721954Y120801D01*
X722231Y120885D01*
X722481Y120968D01*
X722703Y121051D01*
X722898Y121135D01*
X723064Y121190D01*
X723203Y121245D01*
X723286Y121301D01*
X723342Y121329D01*
X723370D01*
X723952Y121718D01*
X724452Y122134D01*
X724896Y122578D01*
X725257Y122994D01*
X725535Y123383D01*
X725729Y123689D01*
X725813Y123800D01*
X725868Y123883D01*
X725896Y123938D01*
Y123966D01*
X726173Y124633D01*
X726396Y125271D01*
X726534Y125882D01*
X726646Y126465D01*
X726701Y126937D01*
X726729Y127131D01*
Y127298D01*
X726757Y127437D01*
Y124188D01*
Y127631D01*
X726729Y128214D01*
X726673Y128741D01*
X726562Y129269D01*
X726423Y129741D01*
X726285Y130213D01*
X726118Y130629D01*
X725924Y131018D01*
X725729Y131379D01*
X725535Y131684D01*
X725341Y131962D01*
X725174Y132212D01*
X725035Y132406D01*
X724896Y132572D01*
X724785Y132683D01*
X724730Y132739D01*
X724702Y132767D01*
X724286Y133128D01*
X723869Y133433D01*
X723453Y133711D01*
X723009Y133961D01*
X722564Y134155D01*
X722120Y134321D01*
X721704Y134460D01*
X721287Y134571D01*
X720926Y134655D01*
X720565Y134710D01*
X720260Y134766D01*
X719983Y134794D01*
X719760Y134821D01*
X726757D01*
D01*
D02*
G37*
G36*
Y119052D02*
X707573D01*
D01*
X726757D01*
D01*
D02*
G37*
G36*
X726229D02*
X723370Y118719D01*
X723481Y118386D01*
X723564Y118081D01*
X723619Y117831D01*
X723647Y117609D01*
X723675Y117442D01*
X723703Y117331D01*
Y117220D01*
X723675Y116970D01*
X723619Y116776D01*
X723564Y116665D01*
X723536Y116609D01*
X723370Y116443D01*
X723231Y116359D01*
X723120Y116304D01*
X723064Y116276D01*
X723009D01*
X722898Y116248D01*
X722648D01*
X722315D01*
X721981Y116221D01*
X721648D01*
X721371D01*
X721260D01*
X721176D01*
X721121D01*
X721093D01*
X715457D01*
Y118747D01*
X712514D01*
Y116221D01*
X707573D01*
X709738Y112528D01*
X712514D01*
Y110835D01*
X715457D01*
Y112528D01*
X721537D01*
X721898D01*
X722204D01*
X722509D01*
X722759Y112556D01*
X723203D01*
X723564Y112584D01*
X723841Y112612D01*
X724008D01*
X724119Y112639D01*
X724147D01*
X724452Y112695D01*
X724730Y112778D01*
X724980Y112861D01*
X725174Y112945D01*
X725341Y113028D01*
X725452Y113083D01*
X725535Y113111D01*
X725563Y113139D01*
X725757Y113306D01*
X725924Y113500D01*
X726201Y113889D01*
X726285Y114055D01*
X726368Y114194D01*
X726396Y114305D01*
X726423Y114333D01*
X726534Y114638D01*
X726618Y114944D01*
X726673Y115249D01*
X726701Y115527D01*
X726729Y115776D01*
X726757Y115971D01*
Y116137D01*
X726729Y116720D01*
X726673Y117275D01*
X726590Y117775D01*
X726479Y118192D01*
X726396Y118553D01*
X726312Y118830D01*
X726257Y118997D01*
X726229Y119024D01*
Y119052D01*
D02*
G37*
G36*
X726757Y109474D02*
X712209D01*
D01*
X719455D01*
X718872Y109447D01*
X718317Y109391D01*
X717817Y109280D01*
X717317Y109169D01*
X716873Y109002D01*
X716429Y108836D01*
X716040Y108642D01*
X715679Y108475D01*
X715374Y108281D01*
X715069Y108086D01*
X714846Y107920D01*
X714624Y107753D01*
X714486Y107642D01*
X714347Y107531D01*
X714291Y107476D01*
X714264Y107448D01*
X713903Y107059D01*
X713597Y106643D01*
X713320Y106226D01*
X713070Y105782D01*
X712875Y105338D01*
X712709Y104921D01*
X712570Y104505D01*
X712459Y104088D01*
X712376Y103728D01*
X712320Y103367D01*
X712265Y103061D01*
X712237Y102784D01*
X712209Y102562D01*
Y102256D01*
X712237Y101507D01*
X712348Y100813D01*
X712487Y100174D01*
X712653Y99619D01*
X712764Y99397D01*
X712848Y99175D01*
X712903Y98980D01*
X712987Y98841D01*
X713042Y98703D01*
X713098Y98619D01*
X713125Y98564D01*
Y98536D01*
X713514Y97953D01*
X713930Y97453D01*
X714375Y97009D01*
X714791Y96648D01*
X715180Y96371D01*
X715485Y96149D01*
X715596Y96065D01*
X715679Y96037D01*
X715735Y95982D01*
X715763D01*
X716401Y95676D01*
X717040Y95482D01*
X717623Y95316D01*
X718150Y95205D01*
X718622Y95149D01*
X718817Y95121D01*
X718983D01*
X719094Y95093D01*
X719288D01*
X720149Y95121D01*
X720954Y95232D01*
X721648Y95371D01*
X721954Y95454D01*
X722231Y95538D01*
X722481Y95621D01*
X722703Y95704D01*
X722898Y95788D01*
X723064Y95843D01*
X723203Y95899D01*
X723286Y95954D01*
X723342Y95982D01*
X723370D01*
X723952Y96371D01*
X724452Y96787D01*
X724896Y97231D01*
X725257Y97648D01*
X725535Y98036D01*
X725729Y98342D01*
X725813Y98453D01*
X725868Y98536D01*
X725896Y98591D01*
Y98619D01*
X726173Y99286D01*
X726396Y99924D01*
X726534Y100535D01*
X726646Y101118D01*
X726701Y101590D01*
X726729Y101784D01*
Y101951D01*
X726757Y102090D01*
Y95093D01*
D01*
Y109474D01*
D02*
G37*
G36*
X726451Y92040D02*
X707240D01*
Y73550D01*
X726451D01*
Y92040D01*
D02*
G37*
%LPD*%
G36*
Y141234D02*
X722176D01*
X721537D01*
X720954D01*
X720427Y141262D01*
X719955Y141290D01*
X719511D01*
X719150Y141318D01*
X718789Y141345D01*
X718511Y141373D01*
X718261Y141401D01*
X718039Y141429D01*
X717873Y141456D01*
X717734D01*
X717651Y141484D01*
X717567Y141512D01*
X717512D01*
X717123Y141623D01*
X716790Y141762D01*
X716512Y141901D01*
X716318Y142039D01*
X716151Y142150D01*
X716040Y142261D01*
X715985Y142317D01*
X715957Y142345D01*
X715818Y142567D01*
X715707Y142789D01*
X715624Y143011D01*
X715568Y143205D01*
X715541Y143372D01*
X715513Y143539D01*
Y143650D01*
X715541Y143955D01*
X715596Y144260D01*
X715707Y144538D01*
X715818Y144816D01*
X715929Y145038D01*
X716040Y145204D01*
X716096Y145343D01*
X716124Y145371D01*
X712931Y146537D01*
X726451D01*
Y141234D01*
D02*
G37*
G36*
X720205Y130990D02*
X720871Y130879D01*
X721398Y130740D01*
X721870Y130546D01*
X722204Y130351D01*
X722481Y130213D01*
X722620Y130102D01*
X722675Y130046D01*
X723036Y129657D01*
X723314Y129269D01*
X723481Y128852D01*
X723619Y128464D01*
X723703Y128131D01*
X723730Y127881D01*
X723758Y127770D01*
Y127631D01*
X723703Y127103D01*
X723592Y126631D01*
X723425Y126215D01*
X723203Y125882D01*
X723009Y125576D01*
X722842Y125354D01*
X722731Y125243D01*
X722675Y125188D01*
X722231Y124855D01*
X721704Y124633D01*
X721176Y124466D01*
X720649Y124327D01*
X720205Y124272D01*
X720010Y124244D01*
X719816D01*
X719677Y124216D01*
X719566D01*
X719511D01*
X719483D01*
X718761Y124272D01*
X718122Y124383D01*
X717567Y124521D01*
X717123Y124716D01*
X716790Y124882D01*
X716512Y125049D01*
X716373Y125160D01*
X716318Y125188D01*
X715957Y125576D01*
X715679Y125993D01*
X715485Y126409D01*
X715346Y126798D01*
X715263Y127131D01*
X715235Y127381D01*
X715207Y127492D01*
Y127631D01*
X715263Y128158D01*
X715374Y128630D01*
X715568Y129019D01*
X715763Y129380D01*
X715957Y129657D01*
X716151Y129880D01*
X716262Y129991D01*
X716318Y130046D01*
X716762Y130379D01*
X717290Y130629D01*
X717817Y130796D01*
X718317Y130934D01*
X718761Y130990D01*
X718983Y131018D01*
X719150D01*
X719288Y131046D01*
X719399D01*
X719455D01*
X719483D01*
X720205Y130990D01*
D02*
G37*
G36*
X726757Y102284D02*
X726729Y102867D01*
X726673Y103394D01*
X726562Y103922D01*
X726423Y104394D01*
X726285Y104866D01*
X726118Y105282D01*
X725924Y105671D01*
X725729Y106032D01*
X725535Y106337D01*
X725341Y106615D01*
X725174Y106865D01*
X725035Y107059D01*
X724896Y107226D01*
X724785Y107337D01*
X724730Y107392D01*
X724702Y107420D01*
X724286Y107781D01*
X723869Y108086D01*
X723453Y108364D01*
X723009Y108614D01*
X722564Y108808D01*
X722120Y108975D01*
X721704Y109113D01*
X721287Y109225D01*
X720926Y109308D01*
X720565Y109363D01*
X720260Y109419D01*
X719983Y109447D01*
X719760Y109474D01*
X726757D01*
Y102284D01*
D02*
G37*
G36*
X720205Y105643D02*
X720871Y105532D01*
X721398Y105393D01*
X721870Y105199D01*
X722204Y105005D01*
X722481Y104866D01*
X722620Y104755D01*
X722675Y104699D01*
X723036Y104311D01*
X723314Y103922D01*
X723481Y103505D01*
X723619Y103117D01*
X723703Y102784D01*
X723730Y102534D01*
X723758Y102423D01*
Y102284D01*
X723703Y101756D01*
X723592Y101285D01*
X723425Y100868D01*
X723203Y100535D01*
X723009Y100230D01*
X722842Y100007D01*
X722731Y99896D01*
X722675Y99841D01*
X722231Y99508D01*
X721704Y99286D01*
X721176Y99119D01*
X720649Y98980D01*
X720205Y98925D01*
X720010Y98897D01*
X719816D01*
X719677Y98869D01*
X719566D01*
X719511D01*
X719483D01*
X718761Y98925D01*
X718122Y99036D01*
X717567Y99175D01*
X717123Y99369D01*
X716790Y99536D01*
X716512Y99702D01*
X716373Y99813D01*
X716318Y99841D01*
X715957Y100230D01*
X715679Y100646D01*
X715485Y101062D01*
X715346Y101451D01*
X715263Y101784D01*
X715235Y102034D01*
X715207Y102145D01*
Y102284D01*
X715263Y102811D01*
X715374Y103283D01*
X715568Y103672D01*
X715763Y104033D01*
X715957Y104311D01*
X716151Y104533D01*
X716262Y104644D01*
X716318Y104699D01*
X716762Y105032D01*
X717290Y105282D01*
X717817Y105449D01*
X718317Y105588D01*
X718761Y105643D01*
X718983Y105671D01*
X719150D01*
X719288Y105699D01*
X719399D01*
X719455D01*
X719483D01*
X720205Y105643D01*
D02*
G37*
G36*
X726451Y84655D02*
X711348Y88431D01*
X726451Y88458D01*
Y84655D01*
D02*
G37*
G36*
X720371Y82795D02*
X707240Y79352D01*
Y86210D01*
X720371Y82795D01*
D02*
G37*
G36*
X726451Y77131D02*
X711348D01*
X726451Y80907D01*
Y77131D01*
D02*
G37*
%LPC*%
G36*
X262740Y145078D02*
X243529D01*
Y141496D01*
X258631D01*
X243529Y137721D01*
Y133973D01*
X258631Y130197D01*
X243529Y130169D01*
Y126588D01*
X262740D01*
Y145078D01*
D02*
G37*
G36*
X257771Y123534D02*
X250691D01*
X249831Y123507D01*
X249025Y123396D01*
X248331Y123257D01*
X248026Y123173D01*
X247748Y123090D01*
X247499Y123007D01*
X247276Y122924D01*
X247082Y122840D01*
X246916Y122785D01*
X246777Y122729D01*
X246693Y122674D01*
X246638Y122646D01*
X246610D01*
X246027Y122257D01*
X245527Y121841D01*
X245083Y121397D01*
X244722Y120980D01*
X244445Y120591D01*
X244250Y120286D01*
X244167Y120175D01*
X244112Y120092D01*
X244084Y120036D01*
Y120008D01*
X243806Y119342D01*
X243584Y118704D01*
X243445Y118093D01*
X243334Y117510D01*
X243279Y117038D01*
X243251Y116844D01*
Y116677D01*
X243223Y116538D01*
Y116344D01*
X243251Y115761D01*
X243307Y115233D01*
X243417Y114706D01*
X243556Y114234D01*
X243695Y113762D01*
X243862Y113346D01*
X244056Y112957D01*
X244250Y112596D01*
X244445Y112291D01*
X244639Y112013D01*
X244806Y111763D01*
X244944Y111569D01*
X245083Y111402D01*
X245194Y111291D01*
X245250Y111236D01*
X245278Y111208D01*
X245694Y110847D01*
X246110Y110542D01*
X246527Y110264D01*
X246971Y110014D01*
X247415Y109820D01*
X247859Y109653D01*
X248276Y109514D01*
X248692Y109403D01*
X249053Y109320D01*
X249414Y109265D01*
X249720Y109209D01*
X249997Y109181D01*
X250219Y109153D01*
X243223D01*
X257771D01*
Y116372D01*
X257743Y117121D01*
X257632Y117815D01*
X257493Y118454D01*
X257326Y119009D01*
X257215Y119231D01*
X257132Y119453D01*
X257076Y119648D01*
X256993Y119786D01*
X256938Y119925D01*
X256882Y120008D01*
X256854Y120064D01*
Y120092D01*
X256466Y120675D01*
X256049Y121174D01*
X255605Y121619D01*
X255189Y121980D01*
X254800Y122257D01*
X254495Y122479D01*
X254384Y122563D01*
X254300Y122590D01*
X254245Y122646D01*
X254217D01*
X253578Y122951D01*
X252940Y123146D01*
X252357Y123312D01*
X251829Y123423D01*
X251357Y123479D01*
X251163Y123507D01*
X250997D01*
X250886Y123534D01*
X257771D01*
D02*
G37*
G36*
X257465Y107793D02*
X254522D01*
Y106100D01*
X248442D01*
X248082D01*
X247776D01*
X247471D01*
X247221Y106072D01*
X246777D01*
X246416Y106044D01*
X246138Y106016D01*
X245972D01*
X245861Y105989D01*
X245833D01*
X245527Y105933D01*
X245250Y105850D01*
X245000Y105766D01*
X244806Y105683D01*
X244639Y105600D01*
X244528Y105544D01*
X244445Y105517D01*
X244417Y105489D01*
X244223Y105322D01*
X244056Y105128D01*
X243778Y104739D01*
X243695Y104573D01*
X243612Y104434D01*
X243584Y104323D01*
X243556Y104295D01*
X243445Y103990D01*
X243362Y103684D01*
X243307Y103379D01*
X243279Y103101D01*
X243251Y102851D01*
X243223Y102657D01*
Y102491D01*
X243251Y101908D01*
X243307Y101352D01*
X243390Y100853D01*
X243501Y100436D01*
X243584Y100075D01*
X243667Y99798D01*
X243723Y99631D01*
X243751Y99603D01*
Y99576D01*
X246610Y99909D01*
X246499Y100242D01*
X246416Y100547D01*
X246360Y100797D01*
X246333Y101019D01*
X246305Y101186D01*
X246277Y101297D01*
Y101408D01*
X246305Y101658D01*
X246360Y101852D01*
X246416Y101963D01*
X246444Y102019D01*
X246610Y102185D01*
X246749Y102268D01*
X246860Y102324D01*
X246916Y102352D01*
X246971D01*
X247082Y102380D01*
X247332D01*
X247665D01*
X247998Y102407D01*
X248331D01*
X248609D01*
X248720D01*
X248803D01*
X248859D01*
X248887D01*
X254522D01*
Y99881D01*
X257465D01*
Y102407D01*
X262407D01*
D01*
X260241Y106100D01*
X257465D01*
Y107793D01*
D02*
G37*
G36*
X262407Y99576D02*
X243223D01*
X262407D01*
D01*
D02*
G37*
G36*
X257771Y98187D02*
X250691D01*
X249831Y98160D01*
X249025Y98049D01*
X248331Y97910D01*
X248026Y97826D01*
X247748Y97743D01*
X247499Y97660D01*
X247276Y97577D01*
X247082Y97493D01*
X246916Y97438D01*
X246777Y97382D01*
X246693Y97327D01*
X246638Y97299D01*
X246610D01*
X246027Y96910D01*
X245527Y96494D01*
X245083Y96050D01*
X244722Y95633D01*
X244445Y95245D01*
X244250Y94939D01*
X244167Y94828D01*
X244112Y94745D01*
X244084Y94689D01*
Y94662D01*
X243806Y93995D01*
X243584Y93357D01*
X243445Y92746D01*
X243334Y92163D01*
X243279Y91691D01*
X243251Y91497D01*
Y91330D01*
X243223Y91191D01*
Y98187D01*
D01*
Y90997D01*
X243251Y90414D01*
X243307Y89887D01*
X243417Y89359D01*
X243556Y88887D01*
X243695Y88415D01*
X243862Y87999D01*
X244056Y87610D01*
X244250Y87249D01*
X244445Y86944D01*
X244639Y86666D01*
X244806Y86416D01*
X244944Y86222D01*
X245083Y86055D01*
X245194Y85944D01*
X245250Y85889D01*
X245278Y85861D01*
X245694Y85500D01*
X246110Y85195D01*
X246527Y84917D01*
X246971Y84667D01*
X247415Y84473D01*
X247859Y84306D01*
X248276Y84167D01*
X248692Y84057D01*
X249053Y83973D01*
X249414Y83918D01*
X249720Y83862D01*
X249997Y83834D01*
X250219Y83807D01*
X243223D01*
X257771D01*
X250525D01*
X251108Y83834D01*
X251663Y83890D01*
X252163Y84001D01*
X252662Y84112D01*
X253106Y84279D01*
X253551Y84445D01*
X253939Y84640D01*
X254300Y84806D01*
X254606Y85000D01*
X254911Y85195D01*
X255133Y85361D01*
X255355Y85528D01*
X255494Y85639D01*
X255633Y85750D01*
X255688Y85806D01*
X255716Y85833D01*
X256077Y86222D01*
X256383Y86638D01*
X256660Y87055D01*
X256910Y87499D01*
X257104Y87943D01*
X257271Y88360D01*
X257410Y88776D01*
X257521Y89192D01*
X257604Y89553D01*
X257659Y89914D01*
X257715Y90220D01*
X257743Y90497D01*
X257771Y90719D01*
Y91025D01*
X257743Y91774D01*
X257632Y92468D01*
X257493Y93107D01*
X257326Y93662D01*
X257215Y93884D01*
X257132Y94106D01*
X257076Y94301D01*
X256993Y94439D01*
X256938Y94578D01*
X256882Y94662D01*
X256854Y94717D01*
Y94745D01*
X256466Y95328D01*
X256049Y95828D01*
X255605Y96272D01*
X255189Y96633D01*
X254800Y96910D01*
X254495Y97133D01*
X254384Y97216D01*
X254300Y97243D01*
X254245Y97299D01*
X254217D01*
X253578Y97604D01*
X252940Y97799D01*
X252357Y97965D01*
X251829Y98076D01*
X251357Y98132D01*
X251163Y98160D01*
X250997D01*
X250886Y98187D01*
X257771D01*
D02*
G37*
G36*
Y81086D02*
X243529D01*
Y72091D01*
D01*
Y77393D01*
X247804D01*
X248442D01*
X249025D01*
X249553Y77366D01*
X250025Y77338D01*
X250469D01*
X250830Y77310D01*
X251191Y77283D01*
X251469Y77255D01*
X251718Y77227D01*
X251940Y77199D01*
X252107Y77171D01*
X252246D01*
X252329Y77144D01*
X252412Y77116D01*
X252468D01*
X252857Y77005D01*
X253190Y76866D01*
X253467Y76727D01*
X253662Y76588D01*
X253828Y76477D01*
X253939Y76366D01*
X253995Y76311D01*
X254023Y76283D01*
X254161Y76061D01*
X254272Y75839D01*
X254356Y75617D01*
X254411Y75422D01*
X254439Y75256D01*
X254467Y75089D01*
Y74978D01*
X254439Y74673D01*
X254384Y74367D01*
X254272Y74090D01*
X254161Y73812D01*
X254050Y73590D01*
X253939Y73424D01*
X253884Y73285D01*
X253856Y73257D01*
X257049Y72091D01*
X257299Y72535D01*
X257465Y72952D01*
X257604Y73368D01*
X257687Y73757D01*
X257743Y74062D01*
X257771Y74312D01*
Y74534D01*
X257743Y74867D01*
X257715Y75145D01*
X257632Y75422D01*
X257549Y75644D01*
X257465Y75839D01*
X257410Y76005D01*
X257354Y76089D01*
X257326Y76116D01*
X257132Y76394D01*
X256854Y76644D01*
X256549Y76922D01*
X256244Y77144D01*
X255938Y77366D01*
X255688Y77532D01*
X255522Y77643D01*
X255494Y77671D01*
X257465D01*
Y81086D01*
X257771D01*
D02*
G37*
%LPD*%
G36*
X262740Y132418D02*
X249608Y135833D01*
X262740Y139276D01*
Y132418D01*
D02*
G37*
G36*
X251219Y119703D02*
X251857Y119592D01*
X252412Y119453D01*
X252857Y119259D01*
X253190Y119092D01*
X253467Y118926D01*
X253606Y118815D01*
X253662Y118787D01*
X254023Y118398D01*
X254300Y117982D01*
X254495Y117565D01*
X254634Y117177D01*
X254717Y116844D01*
X254744Y116594D01*
X254772Y116483D01*
Y116344D01*
X254717Y115816D01*
X254606Y115344D01*
X254411Y114956D01*
X254217Y114595D01*
X254023Y114317D01*
X253828Y114095D01*
X253717Y113984D01*
X253662Y113929D01*
X253218Y113596D01*
X252690Y113346D01*
X252163Y113179D01*
X251663Y113040D01*
X251219Y112985D01*
X250997Y112957D01*
X250830D01*
X250691Y112929D01*
X250580D01*
X250525D01*
X250497D01*
X249775Y112985D01*
X249109Y113096D01*
X248581Y113235D01*
X248109Y113429D01*
X247776Y113623D01*
X247499Y113762D01*
X247360Y113873D01*
X247304Y113929D01*
X246943Y114317D01*
X246666Y114706D01*
X246499Y115122D01*
X246360Y115511D01*
X246277Y115844D01*
X246249Y116094D01*
X246222Y116205D01*
Y116344D01*
X246277Y116871D01*
X246388Y117343D01*
X246555Y117760D01*
X246777Y118093D01*
X246971Y118398D01*
X247138Y118620D01*
X247249Y118731D01*
X247304Y118787D01*
X247748Y119120D01*
X248276Y119342D01*
X248803Y119509D01*
X249331Y119648D01*
X249775Y119703D01*
X249969Y119731D01*
X250164D01*
X250303Y119759D01*
X250414D01*
X250469D01*
X250497D01*
X251219Y119703D01*
D02*
G37*
G36*
X257771Y109153D02*
X250525D01*
X251108Y109181D01*
X251663Y109237D01*
X252163Y109348D01*
X252662Y109459D01*
X253106Y109626D01*
X253551Y109792D01*
X253939Y109986D01*
X254300Y110153D01*
X254606Y110347D01*
X254911Y110542D01*
X255133Y110708D01*
X255355Y110875D01*
X255494Y110986D01*
X255633Y111097D01*
X255688Y111152D01*
X255716Y111180D01*
X256077Y111569D01*
X256383Y111985D01*
X256660Y112402D01*
X256910Y112846D01*
X257104Y113290D01*
X257271Y113707D01*
X257410Y114123D01*
X257521Y114539D01*
X257604Y114900D01*
X257659Y115261D01*
X257715Y115567D01*
X257743Y115844D01*
X257771Y116066D01*
Y109153D01*
D02*
G37*
G36*
X251219Y94356D02*
X251857Y94245D01*
X252412Y94106D01*
X252857Y93912D01*
X253190Y93745D01*
X253467Y93579D01*
X253606Y93468D01*
X253662Y93440D01*
X254023Y93051D01*
X254300Y92635D01*
X254495Y92219D01*
X254634Y91830D01*
X254717Y91497D01*
X254744Y91247D01*
X254772Y91136D01*
Y90997D01*
X254717Y90470D01*
X254606Y89998D01*
X254411Y89609D01*
X254217Y89248D01*
X254023Y88970D01*
X253828Y88748D01*
X253717Y88637D01*
X253662Y88582D01*
X253218Y88249D01*
X252690Y87999D01*
X252163Y87832D01*
X251663Y87693D01*
X251219Y87638D01*
X250997Y87610D01*
X250830D01*
X250691Y87582D01*
X250580D01*
X250525D01*
X250497D01*
X249775Y87638D01*
X249109Y87749D01*
X248581Y87888D01*
X248109Y88082D01*
X247776Y88276D01*
X247499Y88415D01*
X247360Y88526D01*
X247304Y88582D01*
X246943Y88970D01*
X246666Y89359D01*
X246499Y89775D01*
X246360Y90164D01*
X246277Y90497D01*
X246249Y90747D01*
X246222Y90858D01*
Y90997D01*
X246277Y91524D01*
X246388Y91996D01*
X246555Y92413D01*
X246777Y92746D01*
X246971Y93051D01*
X247138Y93273D01*
X247249Y93385D01*
X247304Y93440D01*
X247748Y93773D01*
X248276Y93995D01*
X248803Y94162D01*
X249331Y94301D01*
X249775Y94356D01*
X249969Y94384D01*
X250164D01*
X250303Y94412D01*
X250414D01*
X250469D01*
X250497D01*
X251219Y94356D01*
D02*
G37*
D10*
X194040Y316230D02*
X192040D01*
X194040D01*
X705970Y355540D02*
X703970D01*
X705970D01*
X474410Y34290D02*
X472410D01*
X474410D01*
X283720Y285290D02*
X281720D01*
X283720D01*
X819120Y246380D02*
X834620D01*
X824120Y266380D02*
X829120D01*
X826620Y263880D02*
Y268880D01*
X577710Y127310D02*
Y184310D01*
X520710Y127310D02*
Y184310D01*
X577710D01*
X520710Y127310D02*
X577710D01*
X525298Y16174D02*
X547298D01*
X525298Y37674D02*
X547298D01*
X559080Y37928D02*
X581080D01*
X559080Y16428D02*
X581080D01*
X456050Y282540D02*
X458050D01*
X456050Y294040D02*
X458050D01*
X562311Y230529D02*
Y259691D01*
X539749Y230529D02*
Y259691D01*
X517340Y245380D02*
Y247380D01*
X528840Y245380D02*
Y247380D01*
X453510Y246980D02*
X455510D01*
X453510Y258480D02*
X455510D01*
X701122Y86438D02*
Y162638D01*
X650322Y86438D02*
X701122D01*
X650322D02*
Y162638D01*
X701122D01*
X286259Y230019D02*
X315421D01*
X286259Y252581D02*
X315421D01*
X446300Y76839D02*
Y100961D01*
X467800Y76839D02*
Y100961D01*
X416410Y21845D02*
Y46735D01*
Y21845D02*
X467210D01*
Y46735D01*
X416410D02*
X467210D01*
X356440Y154940D02*
X361440D01*
X358940Y152440D02*
Y157440D01*
X338940Y146940D02*
Y162440D01*
X279139Y207821D02*
X308301D01*
X279139Y185259D02*
X308301D01*
X325081D02*
X354243D01*
X325081Y207821D02*
X354243D01*
X271990Y154940D02*
X276990D01*
X274490Y152440D02*
Y157440D01*
X294490Y147440D02*
Y162940D01*
X252850Y262220D02*
X254850D01*
X252850Y273720D02*
X254850D01*
X249150Y301590D02*
X251150D01*
X249150Y313090D02*
X251150D01*
X249040Y352460D02*
X251040D01*
X249040Y340960D02*
X251040D01*
X257930Y390560D02*
X259930D01*
X257930Y379060D02*
X259930D01*
X710770Y245110D02*
X715770D01*
X713270Y242610D02*
Y247610D01*
X693270Y237110D02*
Y252610D01*
X759969Y257661D02*
X789131D01*
X759969Y235099D02*
X789131D01*
X735450Y295240D02*
X737450D01*
X735450Y306740D02*
X737450D01*
X837470Y283790D02*
Y324790D01*
X770470Y283790D02*
Y324790D01*
X837470D01*
X770470Y283790D02*
X837470D01*
X735450Y255870D02*
X737450D01*
X735450Y267370D02*
X737450D01*
X722970Y387290D02*
X724970D01*
X722970Y375790D02*
X724970D01*
X735450Y347380D02*
X737450D01*
X735450Y335880D02*
X737450D01*
D11*
X533710Y137310D02*
X532580Y139656D01*
X530042Y140235D01*
X528007Y138612D01*
Y136008D01*
X530042Y134385D01*
X532580Y134965D01*
X533710Y137310D01*
D12*
X513960Y113310D02*
X512085Y114393D01*
Y112227D01*
X513960Y113310D01*
X664270Y169140D02*
X662395Y170223D01*
Y168057D01*
X664270Y169140D01*
X772220Y273540D02*
X770345Y274622D01*
Y272457D01*
X772220Y273540D01*
D13*
X308740Y31540D02*
X306835Y32640D01*
Y30440D01*
X308740Y31540D01*
D14*
X509274Y90610D02*
X506752Y90317D01*
X504335Y89538D01*
X502117Y88302D01*
X500183Y86657D01*
X498606Y84667D01*
X497449Y82407D01*
X496754Y79965D01*
X496550Y77434D01*
X610050D02*
X609846Y79965D01*
X609151Y82407D01*
X607994Y84667D01*
X606417Y86657D01*
X604483Y88302D01*
X602265Y89538D01*
X599848Y90317D01*
X597326Y90610D01*
Y44010D02*
X599848Y44303D01*
X602265Y45082D01*
X604483Y46318D01*
X606417Y47962D01*
X607994Y49953D01*
X609151Y52213D01*
X609846Y54655D01*
X610050Y57186D01*
X496550D02*
X496754Y54655D01*
X497449Y52213D01*
X498606Y49953D01*
X500183Y47962D01*
X502117Y46318D01*
X504335Y45082D01*
X506752Y44303D01*
X509274Y44010D01*
X157840Y308590D02*
X180690D01*
X206090D02*
X227740D01*
Y242590D02*
Y308590D01*
X206090Y242590D02*
X227740D01*
X157840D02*
X180690D01*
X157740D02*
Y308590D01*
X496550Y57210D02*
Y77410D01*
X509250Y90610D02*
X597350D01*
X610050Y57210D02*
Y77410D01*
X509250Y44010D02*
X597350D01*
X707220Y303340D02*
Y326740D01*
X620720Y303340D02*
Y326740D01*
X280470Y314090D02*
Y337490D01*
X366970Y314090D02*
Y337490D01*
D15*
X434859Y866466D02*
Y865466D01*
Y866466D01*
X558470Y314040D02*
Y313040D01*
Y314040D01*
X406259Y284289D02*
Y292289D01*
Y248729D02*
Y256729D01*
D16*
X307470Y46040D02*
Y102040D01*
X391470Y46040D02*
Y102040D01*
X518470Y287290D02*
X524470D01*
X518470Y279290D02*
Y287290D01*
X540470D02*
X546470D01*
Y279290D02*
Y287290D01*
X430760Y80630D02*
X436760D01*
Y88630D01*
X408760Y80630D02*
X414760D01*
X408760D02*
Y88630D01*
D17*
X150980Y36830D02*
Y180340D01*
X265280Y36830D02*
Y180340D01*
X150980Y36830D02*
X265280D01*
X150980Y180340D02*
X265280D01*
X731370Y38100D02*
X845670D01*
X731370Y181610D02*
X845670D01*
X731370Y38100D02*
Y181610D01*
X845670Y38100D02*
Y181610D01*
X824231Y226058D02*
X821692Y228598D01*
X816613D01*
X814074Y226058D01*
Y215902D01*
X816613Y213363D01*
X821692D01*
X824231Y215902D01*
X839466Y228598D02*
X834388Y226058D01*
X829309Y220980D01*
Y215902D01*
X831848Y213363D01*
X836927D01*
X839466Y215902D01*
Y218441D01*
X836927Y220980D01*
X829309D01*
X651363Y372108D02*
Y359412D01*
X653903Y356872D01*
X658981D01*
X661520Y359412D01*
Y372108D01*
X666598Y356872D02*
X671677D01*
X669138D01*
Y372108D01*
X666598Y369568D01*
X429111Y67308D02*
X424033D01*
X426572D01*
Y54612D01*
X424033Y52073D01*
X421493D01*
X418954Y54612D01*
X444346Y52073D02*
X434189D01*
X444346Y62229D01*
Y64768D01*
X441807Y67308D01*
X436728D01*
X434189Y64768D01*
X616803Y73657D02*
Y71118D01*
X621882Y66040D01*
X626960Y71118D01*
Y73657D01*
X621882Y66040D02*
Y58422D01*
X632038D02*
X637117D01*
X634578D01*
Y73657D01*
X632038Y71118D01*
X171456Y340358D02*
Y330201D01*
X176534Y325122D01*
X181612Y330201D01*
Y340358D01*
X186691Y325122D02*
Y340358D01*
X194308D01*
X196848Y337818D01*
Y332740D01*
X194308Y330201D01*
X186691D01*
X191769D02*
X196848Y325122D01*
X201926D02*
X207004D01*
X204465D01*
Y340358D01*
X201926Y337818D01*
X553572Y284478D02*
Y271782D01*
X556111Y269242D01*
X561189D01*
X563728Y271782D01*
Y284478D01*
X407522Y121077D02*
Y108382D01*
X410061Y105843D01*
X415139D01*
X417678Y108382D01*
Y121077D01*
X593094Y213358D02*
Y200662D01*
X595633Y198123D01*
X600712D01*
X603251Y200662D01*
Y213358D01*
X618486D02*
X608329D01*
Y205740D01*
X613408Y208279D01*
X615947D01*
X618486Y205740D01*
Y200662D01*
X615947Y198123D01*
X610868D01*
X608329Y200662D01*
X805184Y361948D02*
Y349252D01*
X807723Y346712D01*
X812802D01*
X815341Y349252D01*
Y361948D01*
X828037Y346712D02*
Y361948D01*
X820419Y354330D01*
X830576D01*
X272904Y111757D02*
Y99062D01*
X275443Y96523D01*
X280522D01*
X283061Y99062D01*
Y111757D01*
X288139Y109218D02*
X290678Y111757D01*
X295757D01*
X298296Y109218D01*
Y106679D01*
X295757Y104140D01*
X293218D01*
X295757D01*
X298296Y101601D01*
Y99062D01*
X295757Y96523D01*
X290678D01*
X288139Y99062D01*
X332594Y382267D02*
Y369572D01*
X335133Y367033D01*
X340212D01*
X342751Y369572D01*
Y382267D01*
X357986Y367033D02*
X347829D01*
X357986Y377189D01*
Y379728D01*
X355447Y382267D01*
X350368D01*
X347829Y379728D01*
X457558Y203200D02*
Y218435D01*
X465176D01*
X467715Y215896D01*
Y210818D01*
X465176Y208278D01*
X457558D01*
X462636D02*
X467715Y203200D01*
X482950D02*
X472793D01*
X482950Y213357D01*
Y215896D01*
X480411Y218435D01*
X475332D01*
X472793Y215896D01*
X498185Y218435D02*
X493106Y215896D01*
X488028Y210818D01*
Y205739D01*
X490567Y203200D01*
X495646D01*
X498185Y205739D01*
Y208278D01*
X495646Y210818D01*
X488028D01*
X763277Y193043D02*
Y208277D01*
X770894D01*
X773433Y205738D01*
Y200660D01*
X770894Y198121D01*
X763277D01*
X768355D02*
X773433Y193043D01*
X788668D02*
X778512D01*
X788668Y203199D01*
Y205738D01*
X786129Y208277D01*
X781051D01*
X778512Y205738D01*
X803903Y208277D02*
X793747D01*
Y200660D01*
X798825Y203199D01*
X801364D01*
X803903Y200660D01*
Y195582D01*
X801364Y193043D01*
X796286D01*
X793747Y195582D01*
X445965Y264392D02*
Y276628D01*
X452083D01*
X454123Y274589D01*
Y270510D01*
X452083Y268471D01*
X445965D01*
X450044D02*
X454123Y264392D01*
X466359D02*
X458201D01*
X466359Y272549D01*
Y274589D01*
X464319Y276628D01*
X460241D01*
X458201Y274589D01*
X476555Y264392D02*
Y276628D01*
X470437Y270510D01*
X478595D01*
X439427Y226063D02*
Y241297D01*
X447044D01*
X449583Y238758D01*
Y233680D01*
X447044Y231141D01*
X439427D01*
X444505D02*
X449583Y226063D01*
X464818D02*
X454662D01*
X464818Y236219D01*
Y238758D01*
X462279Y241297D01*
X457201D01*
X454662Y238758D01*
X469897D02*
X472436Y241297D01*
X477514D01*
X480053Y238758D01*
Y236219D01*
X477514Y233680D01*
X474975D01*
X477514D01*
X480053Y231141D01*
Y228602D01*
X477514Y226063D01*
X472436D01*
X469897Y228602D01*
X512928Y234957D02*
X497692D01*
Y242574D01*
X500232Y245113D01*
X505310D01*
X507849Y242574D01*
Y234957D01*
Y240035D02*
X512928Y245113D01*
Y260348D02*
Y250192D01*
X502771Y260348D01*
X500232D01*
X497692Y257809D01*
Y252731D01*
X500232Y250192D01*
X512928Y275583D02*
Y265427D01*
X502771Y275583D01*
X500232D01*
X497692Y273044D01*
Y267966D01*
X500232Y265427D01*
X439276Y105413D02*
Y120647D01*
X446893D01*
X449432Y118108D01*
Y113030D01*
X446893Y110491D01*
X439276D01*
X444354D02*
X449432Y105413D01*
X464668D02*
X454511D01*
X464668Y115569D01*
Y118108D01*
X462128Y120647D01*
X457050D01*
X454511Y118108D01*
X469746Y105413D02*
X474824D01*
X472285D01*
Y120647D01*
X469746Y118108D01*
X278137Y391162D02*
Y406398D01*
X285754D01*
X288293Y403858D01*
Y398780D01*
X285754Y396241D01*
X278137D01*
X283215D02*
X288293Y391162D01*
X303528D02*
X293372D01*
X303528Y401319D01*
Y403858D01*
X300989Y406398D01*
X295911D01*
X293372Y403858D01*
X308607D02*
X311146Y406398D01*
X316224D01*
X318763Y403858D01*
Y393702D01*
X316224Y391162D01*
X311146D01*
X308607Y393702D01*
Y403858D01*
X235396Y357583D02*
Y372817D01*
X243014D01*
X245553Y370278D01*
Y365200D01*
X243014Y362661D01*
X235396D01*
X240474D02*
X245553Y357583D01*
X250631D02*
X255710D01*
X253170D01*
Y372817D01*
X250631Y370278D01*
X263327Y360122D02*
X265866Y357583D01*
X270945D01*
X273484Y360122D01*
Y370278D01*
X270945Y372817D01*
X265866D01*
X263327Y370278D01*
Y367739D01*
X265866Y365200D01*
X273484D01*
X234456Y280462D02*
Y295697D01*
X242074D01*
X244613Y293158D01*
Y288080D01*
X242074Y285541D01*
X234456D01*
X239534D02*
X244613Y280462D01*
X249691D02*
X254770D01*
X252230D01*
Y295697D01*
X249691Y293158D01*
X262387D02*
X264926Y295697D01*
X270005D01*
X272544Y293158D01*
Y290619D01*
X270005Y288080D01*
X272544Y285541D01*
Y283002D01*
X270005Y280462D01*
X264926D01*
X262387Y283002D01*
Y285541D01*
X264926Y288080D01*
X262387Y290619D01*
Y293158D01*
X264926Y288080D02*
X270005D01*
X236006Y318223D02*
Y333457D01*
X243624D01*
X246163Y330918D01*
Y325840D01*
X243624Y323301D01*
X236006D01*
X241084D02*
X246163Y318223D01*
X251241D02*
X256320D01*
X253780D01*
Y333457D01*
X251241Y330918D01*
X263937Y333457D02*
X274094D01*
Y330918D01*
X263937Y320762D01*
Y318223D01*
X718386Y314272D02*
Y329507D01*
X726004D01*
X728543Y326968D01*
Y321890D01*
X726004Y319351D01*
X718386D01*
X723465D02*
X728543Y314272D01*
X733621D02*
X738700D01*
X736161D01*
Y329507D01*
X733621Y326968D01*
X756474Y329507D02*
X751395Y326968D01*
X746317Y321890D01*
Y316812D01*
X748856Y314272D01*
X753935D01*
X756474Y316812D01*
Y319351D01*
X753935Y321890D01*
X746317D01*
X717966Y273773D02*
Y289007D01*
X725584D01*
X728123Y286468D01*
Y281390D01*
X725584Y278851D01*
X717966D01*
X723045D02*
X728123Y273773D01*
X733201D02*
X738280D01*
X735740D01*
Y289007D01*
X733201Y286468D01*
X756054Y289007D02*
X745897D01*
Y281390D01*
X750975Y283929D01*
X753515D01*
X756054Y281390D01*
Y276312D01*
X753515Y273773D01*
X748436D01*
X745897Y276312D01*
X708666Y393703D02*
Y408937D01*
X716284D01*
X718823Y406398D01*
Y401320D01*
X716284Y398781D01*
X708666D01*
X713745D02*
X718823Y393703D01*
X723901D02*
X728980D01*
X726440D01*
Y408937D01*
X723901Y406398D01*
X744215Y393703D02*
Y408937D01*
X736597Y401320D01*
X746754D01*
X719946Y353652D02*
Y368887D01*
X727564D01*
X730103Y366348D01*
Y361270D01*
X727564Y358731D01*
X719946D01*
X725024D02*
X730103Y353652D01*
X735181D02*
X740260D01*
X737720D01*
Y368887D01*
X735181Y366348D01*
X747877D02*
X750416Y368887D01*
X755495D01*
X758034Y366348D01*
Y363809D01*
X755495Y361270D01*
X752955D01*
X755495D01*
X758034Y358731D01*
Y356192D01*
X755495Y353652D01*
X750416D01*
X747877Y356192D01*
X675493Y66042D02*
Y81278D01*
X683111D01*
X685650Y78738D01*
Y73660D01*
X683111Y71121D01*
X675493D01*
X690728Y66042D02*
X695807D01*
X693268D01*
Y81278D01*
X690728Y78738D01*
X619613Y401317D02*
X614534D01*
X617074D01*
Y388622D01*
X614534Y386082D01*
X611995D01*
X609456Y388622D01*
X624691Y386082D02*
X629770D01*
X627230D01*
Y401317D01*
X624691Y398778D01*
X637387D02*
X639926Y401317D01*
X645005D01*
X647544Y398778D01*
Y388622D01*
X645005Y386082D01*
X639926D01*
X637387Y388622D01*
Y398778D01*
X613410Y798828D02*
X608332D01*
X610871D01*
Y786132D01*
X608332Y783593D01*
X605793D01*
X603253Y786132D01*
X618488Y783593D02*
X623567D01*
X621028D01*
Y798828D01*
X618488Y796288D01*
X394977Y279398D02*
Y264163D01*
X402594D01*
X405133Y266702D01*
Y276858D01*
X402594Y279398D01*
X394977D01*
X420368Y276858D02*
X417829Y279398D01*
X412751D01*
X410212Y276858D01*
Y274319D01*
X412751Y271780D01*
X417829D01*
X420368Y269241D01*
Y266702D01*
X417829Y264163D01*
X412751D01*
X410212Y266702D01*
X435603Y264163D02*
X425447D01*
X435603Y274319D01*
Y276858D01*
X433064Y279398D01*
X427986D01*
X425447Y276858D01*
X394976Y243838D02*
Y228603D01*
X402593D01*
X405132Y231142D01*
Y241298D01*
X402593Y243838D01*
X394976D01*
X420368Y241298D02*
X417828Y243838D01*
X412750D01*
X410211Y241298D01*
Y238759D01*
X412750Y236220D01*
X417828D01*
X420368Y233681D01*
Y231142D01*
X417828Y228603D01*
X412750D01*
X410211Y231142D01*
X425446Y228603D02*
X430524D01*
X427985D01*
Y243838D01*
X425446Y241298D01*
X577956Y255014D02*
X575417Y257554D01*
X570339D01*
X567799Y255014D01*
Y244858D01*
X570339Y242318D01*
X575417D01*
X577956Y244858D01*
X583034Y242318D02*
X588113D01*
X585574D01*
Y257554D01*
X583034Y255014D01*
X595730Y242318D02*
X600809D01*
X598270D01*
Y257554D01*
X595730Y255014D01*
X772163Y227328D02*
X769624Y229867D01*
X764545D01*
X762006Y227328D01*
Y217172D01*
X764545Y214632D01*
X769624D01*
X772163Y217172D01*
X777241Y214632D02*
X782320D01*
X779780D01*
Y229867D01*
X777241Y227328D01*
X789937D02*
X792476Y229867D01*
X797555D01*
X800094Y227328D01*
Y217172D01*
X797555Y214632D01*
X792476D01*
X789937Y217172D01*
Y227328D01*
X601121Y32466D02*
X598582Y35006D01*
X593503D01*
X590964Y32466D01*
Y22310D01*
X593503Y19770D01*
X598582D01*
X601121Y22310D01*
X606199D02*
X608738Y19770D01*
X613817D01*
X616356Y22310D01*
Y32466D01*
X613817Y35006D01*
X608738D01*
X606199Y32466D01*
Y29927D01*
X608738Y27388D01*
X616356D01*
X502009Y32462D02*
X499470Y35002D01*
X494391D01*
X491852Y32462D01*
Y22306D01*
X494391Y19766D01*
X499470D01*
X502009Y22306D01*
X507087Y32462D02*
X509626Y35002D01*
X514705D01*
X517244Y32462D01*
Y29923D01*
X514705Y27384D01*
X517244Y24845D01*
Y22306D01*
X514705Y19766D01*
X509626D01*
X507087Y22306D01*
Y24845D01*
X509626Y27384D01*
X507087Y29923D01*
Y32462D01*
X509626Y27384D02*
X514705D01*
X692001Y229868D02*
X689462Y232407D01*
X684383D01*
X681844Y229868D01*
Y219712D01*
X684383Y217173D01*
X689462D01*
X692001Y219712D01*
X697079Y232407D02*
X707236D01*
Y229868D01*
X697079Y219712D01*
Y217173D01*
X336551Y226058D02*
X334012Y228598D01*
X328933D01*
X326394Y226058D01*
Y215902D01*
X328933Y213363D01*
X334012D01*
X336551Y215902D01*
X351786Y228598D02*
X341629D01*
Y220980D01*
X346707Y223519D01*
X349247D01*
X351786Y220980D01*
Y215902D01*
X349247Y213363D01*
X344168D01*
X341629Y215902D01*
X330201Y138428D02*
X327662Y140968D01*
X322583D01*
X320044Y138428D01*
Y128272D01*
X322583Y125732D01*
X327662D01*
X330201Y128272D01*
X342897Y125732D02*
Y140968D01*
X335279Y133350D01*
X345436D01*
X256541Y201928D02*
X254002Y204468D01*
X248923D01*
X246384Y201928D01*
Y191772D01*
X248923Y189233D01*
X254002D01*
X256541Y191772D01*
X261619Y201928D02*
X264158Y204468D01*
X269237D01*
X271776Y201928D01*
Y199389D01*
X269237Y196850D01*
X266698D01*
X269237D01*
X271776Y194311D01*
Y191772D01*
X269237Y189233D01*
X264158D01*
X261619Y191772D01*
X292101Y139698D02*
X289562Y142238D01*
X284483D01*
X281944Y139698D01*
Y129542D01*
X284483Y127002D01*
X289562D01*
X292101Y129542D01*
X307336Y127002D02*
X297179D01*
X307336Y137159D01*
Y139698D01*
X304797Y142238D01*
X299718D01*
X297179Y139698D01*
X332740Y256538D02*
X330201Y259077D01*
X325122D01*
X322583Y256538D01*
Y246382D01*
X325122Y243843D01*
X330201D01*
X332740Y246382D01*
X337818Y243843D02*
X342897D01*
X340358D01*
Y259077D01*
X337818Y256538D01*
D18*
X589859Y789466D02*
Y842466D01*
X399859Y789466D02*
X589859D01*
X399859D02*
Y842466D01*
X593470Y337040D02*
Y390040D01*
X403470D02*
X593470D01*
X403470Y337040D02*
Y390040D01*
M02*
