M48
;Layer_Color=9474304
;FILE_FORMAT=4:4
METRIC,LZ
;TYPE=PLATED
T01F00S00C0.6300
T02F00S00C0.7112
T03F00S00C0.7140
T04F00S00C0.7500
T05F00S00C1.0200
T06F00S00C2.5400
%
T01
X005289Y0006731
X005777
T02
X0029337Y0003683
X0031989Y0005715
X0033386Y0007366
X0033782Y0009271
X0036307Y0008763
X00363324Y00061214
X0038354Y0007366
X0040625Y0005207
X00404472Y00033528
X0038608Y0001651
X0035941Y0001524
X00339462Y00016859
X00299583Y00080023
X0035926Y0013589
X0037973Y0013335
X0042037Y0013589
X0047625Y0012446
X004826Y0010668
X0048245Y0008763
X0048768Y0006858
X0053721Y0013208
X0056754Y0013335
X0063866Y0012842
X0061595Y0009906
X0065517Y000762
X0063373Y0004445
X0063866Y0015113
X0061976Y0014351
X0062357Y0016764
X00648495Y00175187
X0067056Y0018288
X0067818Y0020828
X0065659
X0063358
X0059548Y0022225
X00607164Y00240284
X0059548Y0026416
X005777Y0028829
X0058039Y0031115
X00574144Y00233172
X0055738Y0017526
X0054483Y001524
X00645919Y00266339
X0066406Y0026543
X0068946Y0026797
X0070724
X0070216Y003175
X0068311Y0031496
X0072248Y0020066
X0080249Y0021463
X0053325Y0022225
X0053594Y0017907
X0052705Y0016256
X0046482Y0016383
X0047498Y0014478
X0040005Y0015113
X0038481Y0017018
X0036307Y0017272
X00316334Y00216408
X00311Y002794
X0028433
X0026274Y002413
X002856Y0037211
X00311
X0038085Y0038735
Y0034036
X0049395Y0034925
X0048387Y0036957
X0048626Y0028829
Y0025146
X00492864Y0022987
X000635Y0070993
X00075946Y00779526
X0018923Y0087503
X0024384Y0089154
X003302Y0081661
X0051943Y0082423
X00530116Y00803384
X00495842Y00913858
X0055626Y009144
X0055499Y0093599
X005461Y008255
X0068453Y0086868
X00737235Y00823595
X0086981Y0074944
X0092996Y0077121
T03
X0019304Y0025019
X0021844Y0027559
X0019304Y0030099
T04
X001016Y0076153
Y0086153
X0021336Y0090852
Y0080852
X0033274Y0083773
X0065532Y00839
X0078105Y0080471
Y0090471
X0090297Y0085772
Y0075772
X0065532Y00939
X0033274Y0093773
T05
X0042911Y0003429
X0045451
X0066302Y0009914
Y0012454
X0068842
Y0009914
Y0014994
X0066302
T06
X0007493Y0003429
X00925
X0097081Y0046637
X0082564
X0078359Y0037084
X00925Y0021844
X0021209Y0037084
X0017598Y0046637
X0003081
X0007493Y0021844
X0003Y0055
X0017517
X0021209Y0075565
X0078359
X0082483Y0055
X0097
M30
