G04*
G04 #@! TF.GenerationSoftware,Altium Limited,Altium Designer,23.10.1 (27)*
G04*
G04 Layer_Color=8388736*
%FSLAX44Y44*%
%MOMM*%
G71*
G04*
G04 #@! TF.SameCoordinates,2FD0DFDD-310B-44B2-BA78-C92062C4FB9D*
G04*
G04*
G04 #@! TF.FilePolarity,Negative*
G04*
G01*
G75*
%ADD19R,1.6000X0.9500*%
%ADD23R,0.9500X1.3500*%
%ADD26R,1.4562X1.3046*%
%ADD29R,1.3046X1.4562*%
%ADD31R,1.2621X0.8081*%
%ADD32R,0.9500X1.6000*%
%ADD40O,2.1532X0.8032*%
%ADD41O,0.8032X2.1532*%
%ADD42R,0.6032X1.7032*%
%ADD43R,1.0032X1.0032*%
%ADD44R,1.0532X1.5532*%
%ADD45R,1.0032X1.1032*%
%ADD46R,1.5532X1.0532*%
G04:AMPARAMS|DCode=47|XSize=2.1732mm|YSize=0.8032mm|CornerRadius=0.2516mm|HoleSize=0mm|Usage=FLASHONLY|Rotation=270.000|XOffset=0mm|YOffset=0mm|HoleType=Round|Shape=RoundedRectangle|*
%AMROUNDEDRECTD47*
21,1,2.1732,0.3000,0,0,270.0*
21,1,1.6700,0.8032,0,0,270.0*
1,1,0.5032,-0.1500,-0.8350*
1,1,0.5032,-0.1500,0.8350*
1,1,0.5032,0.1500,0.8350*
1,1,0.5032,0.1500,-0.8350*
%
%ADD47ROUNDEDRECTD47*%
%ADD48R,1.2032X1.5532*%
%ADD49R,1.7532X1.5532*%
G04:AMPARAMS|DCode=50|XSize=3.3532mm|YSize=1.6532mm|CornerRadius=0.1524mm|HoleSize=0mm|Usage=FLASHONLY|Rotation=180.000|XOffset=0mm|YOffset=0mm|HoleType=Round|Shape=RoundedRectangle|*
%AMROUNDEDRECTD50*
21,1,3.3532,1.3485,0,0,180.0*
21,1,3.0485,1.6532,0,0,180.0*
1,1,0.3047,-1.5243,0.6743*
1,1,0.3047,1.5243,0.6743*
1,1,0.3047,1.5243,-0.6743*
1,1,0.3047,-1.5243,-0.6743*
%
%ADD50ROUNDEDRECTD50*%
G04:AMPARAMS|DCode=51|XSize=1.1032mm|YSize=1.6532mm|CornerRadius=0.1511mm|HoleSize=0mm|Usage=FLASHONLY|Rotation=180.000|XOffset=0mm|YOffset=0mm|HoleType=Round|Shape=RoundedRectangle|*
%AMROUNDEDRECTD51*
21,1,1.1032,1.3510,0,0,180.0*
21,1,0.8010,1.6532,0,0,180.0*
1,1,0.3022,-0.4005,0.6755*
1,1,0.3022,0.4005,0.6755*
1,1,0.3022,0.4005,-0.6755*
1,1,0.3022,-0.4005,-0.6755*
%
%ADD51ROUNDEDRECTD51*%
%ADD52R,2.8032X3.2032*%
%ADD53R,0.8032X2.0032*%
%ADD54R,1.4032X1.6532*%
%ADD55C,1.4252*%
%ADD56R,1.4252X1.4252*%
%ADD57C,1.2500*%
%ADD58R,1.2500X1.2500*%
%ADD59C,4.2032*%
%ADD60O,8.2032X4.2032*%
%ADD61C,1.2332*%
%ADD62R,1.7532X1.7532*%
%ADD63C,1.7532*%
%ADD64C,1.7332*%
%ADD65R,1.7332X1.7332*%
%ADD66C,1.4732*%
D19*
X826620Y237630D02*
D03*
Y255130D02*
D03*
D23*
X543798Y26924D02*
D03*
X528798D02*
D03*
X562580Y27178D02*
D03*
X577580D02*
D03*
D26*
X551030Y237052D02*
D03*
Y253168D02*
D03*
D29*
X292782Y241300D02*
D03*
X308898D02*
D03*
X301778Y196540D02*
D03*
X285662D02*
D03*
X331604D02*
D03*
X347720D02*
D03*
X782608Y246380D02*
D03*
X766492D02*
D03*
D31*
X457050Y96920D02*
D03*
Y80880D02*
D03*
D32*
X347690Y154940D02*
D03*
X330190D02*
D03*
X285740D02*
D03*
X303240D02*
D03*
X702020Y245110D02*
D03*
X684520D02*
D03*
D40*
X506710Y127810D02*
D03*
Y135810D02*
D03*
Y143810D02*
D03*
Y151810D02*
D03*
Y159810D02*
D03*
Y167810D02*
D03*
Y175810D02*
D03*
Y183810D02*
D03*
X591710D02*
D03*
Y175810D02*
D03*
Y167810D02*
D03*
Y159810D02*
D03*
Y151810D02*
D03*
Y143810D02*
D03*
Y135810D02*
D03*
Y127810D02*
D03*
D41*
X521210Y198310D02*
D03*
X529210D02*
D03*
X537210D02*
D03*
X545210D02*
D03*
X553210D02*
D03*
X561210D02*
D03*
X569210D02*
D03*
X577210D02*
D03*
Y113310D02*
D03*
X569210D02*
D03*
X561210D02*
D03*
X553210D02*
D03*
X545210D02*
D03*
X537210D02*
D03*
X529210D02*
D03*
X521210D02*
D03*
D42*
X385220Y110290D02*
D03*
X378720D02*
D03*
X313720D02*
D03*
X320220D02*
D03*
X326720D02*
D03*
X333220D02*
D03*
X339720D02*
D03*
X346220D02*
D03*
X352720D02*
D03*
X359220D02*
D03*
X365720D02*
D03*
X372220D02*
D03*
Y37790D02*
D03*
X365720D02*
D03*
X333220D02*
D03*
X326720D02*
D03*
X339720D02*
D03*
X346220D02*
D03*
X313720D02*
D03*
X320220D02*
D03*
X352720D02*
D03*
X359220D02*
D03*
X378720D02*
D03*
X385220D02*
D03*
D43*
X430259Y288289D02*
D03*
X415259D02*
D03*
X430259Y252729D02*
D03*
X415259D02*
D03*
D44*
X465300Y288290D02*
D03*
X448800D02*
D03*
X462760Y252730D02*
D03*
X446260D02*
D03*
D45*
X522970Y270290D02*
D03*
X541970D02*
D03*
X532470Y291290D02*
D03*
X432260Y97630D02*
D03*
X413260D02*
D03*
X422760Y76630D02*
D03*
D46*
X523090Y238130D02*
D03*
Y254630D02*
D03*
D47*
X702070Y290290D02*
D03*
X689370D02*
D03*
X676670D02*
D03*
X663970D02*
D03*
X651270D02*
D03*
X638570D02*
D03*
X625870D02*
D03*
Y339790D02*
D03*
X638570D02*
D03*
X651270D02*
D03*
X663970D02*
D03*
X676670D02*
D03*
X689370D02*
D03*
X702070D02*
D03*
X285620Y350540D02*
D03*
X298320D02*
D03*
X311020D02*
D03*
X323720D02*
D03*
X336420D02*
D03*
X349120D02*
D03*
X361820D02*
D03*
Y301040D02*
D03*
X349120D02*
D03*
X336420D02*
D03*
X323720D02*
D03*
X311020D02*
D03*
X298320D02*
D03*
X285620D02*
D03*
D48*
X262850Y267970D02*
D03*
X244850D02*
D03*
X259150Y307340D02*
D03*
X241150D02*
D03*
X241040Y346710D02*
D03*
X259040D02*
D03*
X249930Y384810D02*
D03*
X267930D02*
D03*
X745450Y300990D02*
D03*
X727450D02*
D03*
X745450Y261620D02*
D03*
X727450D02*
D03*
X714970Y381540D02*
D03*
X732970D02*
D03*
X727450Y341630D02*
D03*
X745450D02*
D03*
D49*
X746610Y201070D02*
D03*
Y220570D02*
D03*
D50*
X803970Y335040D02*
D03*
D51*
X826970Y273540D02*
D03*
X803970D02*
D03*
X780970D02*
D03*
D52*
X573359Y829766D02*
D03*
X416359D02*
D03*
X576970Y349740D02*
D03*
X419970D02*
D03*
D53*
X549859Y851466D02*
D03*
X539859D02*
D03*
X529859D02*
D03*
X519859D02*
D03*
X509859D02*
D03*
X499859D02*
D03*
X489859D02*
D03*
X479859D02*
D03*
X469859D02*
D03*
X459859D02*
D03*
X449859D02*
D03*
X439859D02*
D03*
X553470Y328040D02*
D03*
X543470D02*
D03*
X533470D02*
D03*
X523470D02*
D03*
X513470D02*
D03*
X503470D02*
D03*
X493470D02*
D03*
X483470D02*
D03*
X473470D02*
D03*
X463470D02*
D03*
X453470D02*
D03*
X443470D02*
D03*
D54*
X480790Y185420D02*
D03*
X463790D02*
D03*
D55*
X193040Y250190D02*
D03*
X218440Y275590D02*
D03*
D56*
X193040Y300990D02*
D03*
D57*
X332740Y937730D02*
D03*
X902970Y857720D02*
D03*
X781050Y904710D02*
D03*
X101600Y861530D02*
D03*
X655320Y939000D02*
D03*
X213360Y908520D02*
D03*
D58*
X332740Y837730D02*
D03*
X902970Y757720D02*
D03*
X781050Y804710D02*
D03*
X101600Y761530D02*
D03*
X655320Y839000D02*
D03*
X213360Y808520D02*
D03*
D59*
X825640Y466370D02*
D03*
X824830Y550000D02*
D03*
X175980Y466370D02*
D03*
X175170Y550000D02*
D03*
X783590Y755650D02*
D03*
X970000Y550000D02*
D03*
X970810Y466370D02*
D03*
X30810D02*
D03*
X30000Y550000D02*
D03*
X74930Y218440D02*
D03*
X925000Y34290D02*
D03*
X74930D02*
D03*
X212090Y755650D02*
D03*
X925000Y218440D02*
D03*
X212090Y370840D02*
D03*
X783590D02*
D03*
D60*
X788520Y69850D02*
D03*
Y148590D02*
D03*
X208130D02*
D03*
Y69850D02*
D03*
D61*
X577700Y67310D02*
D03*
X528900D02*
D03*
D62*
X663020Y149940D02*
D03*
D63*
Y124540D02*
D03*
Y99140D02*
D03*
X688420Y149940D02*
D03*
Y124540D02*
D03*
Y99140D02*
D03*
D64*
X429110Y34290D02*
D03*
D65*
X454510D02*
D03*
D66*
X316334Y216408D02*
D03*
X802490Y214630D02*
D03*
X645919Y266339D02*
D03*
X678180Y208280D02*
D03*
X656590D02*
D03*
X670560Y182880D02*
D03*
X623570Y167640D02*
D03*
X619760Y143510D02*
D03*
X638660Y128420D02*
D03*
X633730Y44450D02*
D03*
X615950Y99060D02*
D03*
X535940Y179070D02*
D03*
X527050Y162560D02*
D03*
X474980Y144780D02*
D03*
X464820Y163830D02*
D03*
X476250Y124460D02*
D03*
X482600Y106680D02*
D03*
X487680Y68580D02*
D03*
X483870Y369570D02*
D03*
X384810Y170180D02*
D03*
X400050Y151130D02*
D03*
X420370Y135890D02*
D03*
X359260D02*
D03*
X379730Y133350D02*
D03*
X337820Y92710D02*
D03*
X386080Y16510D02*
D03*
X359410Y15240D02*
D03*
X537210Y132080D02*
D03*
X544830Y152400D02*
D03*
X546100Y825500D02*
D03*
X554990Y935990D02*
D03*
X383540Y73660D02*
D03*
X339462Y16859D02*
D03*
X293370Y36830D02*
D03*
X299583Y80023D02*
D03*
X492864Y229870D02*
D03*
X607164Y240284D02*
D03*
X574144Y233172D02*
D03*
X595480Y222250D02*
D03*
Y264160D02*
D03*
X363324Y61214D02*
D03*
X404472Y33528D02*
D03*
X580390Y311150D02*
D03*
X530116Y803384D02*
D03*
X869810Y749440D02*
D03*
X63500Y709930D02*
D03*
X519430Y824230D02*
D03*
X330200Y816610D02*
D03*
X243840Y891540D02*
D03*
X684530Y868680D02*
D03*
X737235Y823595D02*
D03*
X929960Y771210D02*
D03*
X556260Y914400D02*
D03*
X495842Y913858D02*
D03*
X189230Y875030D02*
D03*
X75946Y779526D02*
D03*
X482450Y87630D02*
D03*
X333860Y73660D02*
D03*
X319890Y57150D02*
D03*
X363070Y87630D02*
D03*
X638660Y151130D02*
D03*
X655170Y76200D02*
D03*
X567540Y133350D02*
D03*
X363070Y172720D02*
D03*
X557380Y175260D02*
D03*
X664060Y265430D02*
D03*
X683110Y314960D02*
D03*
X577700Y288290D02*
D03*
X633580Y208280D02*
D03*
X486260Y251460D02*
D03*
Y288290D02*
D03*
X533250Y222250D02*
D03*
X648495Y175187D02*
D03*
X406250Y52070D02*
D03*
X380850Y340360D02*
D03*
Y387350D02*
D03*
X262740Y241300D02*
D03*
X311000Y372110D02*
D03*
X285600D02*
D03*
X311000Y279400D02*
D03*
X284330D02*
D03*
X702160Y317500D02*
D03*
X689460Y267970D02*
D03*
X707240D02*
D03*
X493950Y349250D02*
D03*
X722480Y200660D02*
D03*
M02*
