G04*
G04 #@! TF.GenerationSoftware,Altium Limited,Altium Designer,23.10.1 (27)*
G04*
G04 Layer_Physical_Order=2*
G04 Layer_Color=16711680*
%FSLAX44Y44*%
%MOMM*%
G71*
G04*
G04 #@! TF.SameCoordinates,2FD0DFDD-310B-44B2-BA78-C92062C4FB9D*
G04*
G04*
G04 #@! TF.FilePolarity,Positive*
G04*
G01*
G75*
%ADD17C,0.2540*%
%ADD57C,1.2500*%
%ADD58R,1.2500X1.2500*%
%ADD67C,0.3810*%
%ADD68C,1.2220*%
%ADD69R,1.2220X1.2220*%
%ADD70C,4.0000*%
%ADD71O,8.0000X4.0000*%
%ADD72C,1.0300*%
%ADD73R,1.5500X1.5500*%
%ADD74C,1.5500*%
%ADD75C,1.5300*%
%ADD76R,1.5300X1.5300*%
%ADD77C,1.2700*%
%ADD78R,0.7900X1.6600*%
%ADD79R,1.4500X1.1500*%
%ADD80R,1.3500X1.0000*%
G36*
X526015Y967218D02*
X557140Y965750D01*
X588203Y963305D01*
X619174Y959886D01*
X650023Y955496D01*
X680719Y950138D01*
X711231Y943820D01*
X741530Y936545D01*
X771585Y928323D01*
X801367Y919161D01*
X830846Y909068D01*
X859995Y898054D01*
X888782Y886130D01*
X917181Y873307D01*
X945163Y859599D01*
X972701Y845018D01*
X994012Y832863D01*
Y683081D01*
X876204D01*
X864581Y689357D01*
X840004Y701564D01*
X815026Y712925D01*
X789674Y723426D01*
X763978Y733055D01*
X737969Y741802D01*
X711675Y749655D01*
X685130Y756607D01*
X658362Y762647D01*
X631404Y767771D01*
X604286Y771971D01*
X577041Y775243D01*
X565838Y776202D01*
X565821Y776222D01*
X565483Y776289D01*
X565431Y776279D01*
X565174Y776316D01*
X564591Y776200D01*
X563687Y776021D01*
X562427Y775179D01*
X561585Y773918D01*
X561289Y772432D01*
X561575Y770994D01*
Y575000D01*
X561871Y573513D01*
X562713Y572253D01*
X563973Y571411D01*
X565460Y571115D01*
X813874D01*
X813960Y569845D01*
X810462Y567508D01*
X807322Y564368D01*
X804855Y560677D01*
X803156Y556575D01*
X802290Y552220D01*
Y547780D01*
X803156Y543425D01*
X804855Y539323D01*
X807322Y535632D01*
X810462Y532492D01*
X813960Y530155D01*
X813874Y528885D01*
X565640D01*
X564153Y528589D01*
X562893Y527747D01*
X562403Y527257D01*
X561561Y525997D01*
X561265Y524510D01*
Y491490D01*
X561561Y490003D01*
X562403Y488743D01*
X562523Y488623D01*
X563783Y487781D01*
X565270Y487485D01*
X814684D01*
X814770Y486215D01*
X811272Y483878D01*
X808132Y480738D01*
X805665Y477047D01*
X803966Y472945D01*
X803100Y468590D01*
Y464150D01*
X803966Y459795D01*
X805665Y455693D01*
X808132Y452002D01*
X811272Y448862D01*
X814770Y446525D01*
X814684Y445255D01*
X565830D01*
X564343Y444959D01*
X563083Y444117D01*
X562403Y443437D01*
X561561Y442177D01*
X561265Y440690D01*
Y414020D01*
X561561Y412533D01*
X562403Y411273D01*
X563673Y410003D01*
X564933Y409161D01*
X566420Y408865D01*
X786901D01*
X844835Y350931D01*
Y253090D01*
X845131Y251603D01*
X845973Y250343D01*
X846333Y249983D01*
X847594Y249141D01*
X849080Y248845D01*
X849985Y249025D01*
X952425D01*
Y6425D01*
X387696D01*
X387529Y7695D01*
X389511Y8226D01*
X391539Y9396D01*
X393194Y11051D01*
X393208Y11076D01*
X396268D01*
X397849Y9495D01*
X397849Y9495D01*
X399319Y8513D01*
X401053Y8168D01*
X741353D01*
X743087Y8513D01*
X744558Y9495D01*
X746790Y11727D01*
X747772Y13197D01*
X748117Y14932D01*
Y57512D01*
X749387Y57830D01*
X749688Y57267D01*
X752505Y53835D01*
X755937Y51018D01*
X759853Y48925D01*
X764101Y47636D01*
X768520Y47201D01*
X808520D01*
X812939Y47636D01*
X817187Y48925D01*
X821103Y51018D01*
X824535Y53835D01*
X827352Y57267D01*
X829445Y61183D01*
X830734Y65431D01*
X831169Y69850D01*
X830734Y74269D01*
X829445Y78517D01*
X827352Y82433D01*
X824535Y85865D01*
X821103Y88682D01*
X817187Y90775D01*
X812939Y92064D01*
X808520Y92499D01*
X768520D01*
X764101Y92064D01*
X759853Y90775D01*
X755937Y88682D01*
X752505Y85865D01*
X749688Y82433D01*
X747595Y78517D01*
X746306Y74269D01*
X745871Y69850D01*
X746000Y68541D01*
X745817Y68339D01*
X744082Y67994D01*
X742612Y67011D01*
X741670Y66070D01*
X740497Y66556D01*
Y87023D01*
X756892Y103418D01*
X787073D01*
X788808Y103763D01*
X790278Y104745D01*
X792510Y106977D01*
X793492Y108448D01*
X793837Y110182D01*
Y125941D01*
X808520D01*
X812939Y126376D01*
X817187Y127665D01*
X821103Y129758D01*
X824535Y132575D01*
X827352Y136007D01*
X829445Y139923D01*
X830734Y144171D01*
X831169Y148590D01*
X830734Y153009D01*
X829445Y157257D01*
X827352Y161173D01*
X824535Y164605D01*
X821103Y167422D01*
X817187Y169515D01*
X812939Y170804D01*
X808520Y171239D01*
X768520D01*
X764101Y170804D01*
X759853Y169515D01*
X755937Y167422D01*
X752505Y164605D01*
X749688Y161173D01*
X747595Y157257D01*
X746306Y153009D01*
X745871Y148590D01*
X746306Y144171D01*
X747595Y139923D01*
X749688Y136007D01*
X752505Y132575D01*
X755937Y129758D01*
X759853Y127665D01*
X764101Y126376D01*
X768520Y125941D01*
X784773D01*
Y112482D01*
X755015D01*
X753281Y112137D01*
X751810Y111155D01*
X732760Y92105D01*
X732715Y92036D01*
X731445Y92422D01*
Y148251D01*
X793360Y210166D01*
X794899Y209998D01*
X795376Y209171D01*
X797031Y207516D01*
X799059Y206346D01*
X801320Y205740D01*
X803660D01*
X805921Y206346D01*
X807949Y207516D01*
X809604Y209171D01*
X810774Y211199D01*
X811380Y213460D01*
Y215800D01*
X810774Y218061D01*
X809604Y220089D01*
X807949Y221744D01*
X805921Y222914D01*
X803660Y223520D01*
X801320D01*
X799059Y222914D01*
X797031Y221744D01*
X795376Y220089D01*
X794467Y218515D01*
X792330D01*
X790843Y218219D01*
X789583Y217377D01*
X727538Y155332D01*
X726365Y155818D01*
Y192638D01*
X727939Y193546D01*
X729594Y195201D01*
X730764Y197229D01*
X731370Y199490D01*
Y201830D01*
X730764Y204091D01*
X729594Y206119D01*
X727939Y207774D01*
X725911Y208944D01*
X723650Y209550D01*
X721310D01*
X719049Y208944D01*
X717021Y207774D01*
X715366Y206119D01*
X714196Y204091D01*
X713590Y201830D01*
Y199490D01*
X714196Y197229D01*
X715366Y195201D01*
X717021Y193546D01*
X718595Y192638D01*
Y118667D01*
X716793Y116865D01*
X696956D01*
X696470Y118038D01*
X696654Y118222D01*
X698009Y120568D01*
X698710Y123185D01*
Y125895D01*
X698009Y128512D01*
X696654Y130858D01*
X694738Y132774D01*
X692392Y134129D01*
X689775Y134830D01*
X687065D01*
X684448Y134129D01*
X682102Y132774D01*
X680186Y130858D01*
X678831Y128512D01*
X678130Y125895D01*
Y123185D01*
X678831Y120568D01*
X680186Y118222D01*
X680370Y118038D01*
X679884Y116865D01*
X671556D01*
X671070Y118038D01*
X671254Y118222D01*
X672609Y120568D01*
X673310Y123185D01*
Y125895D01*
X672609Y128512D01*
X671254Y130858D01*
X669338Y132774D01*
X666992Y134129D01*
X664375Y134830D01*
X661665D01*
X659048Y134129D01*
X656702Y132774D01*
X654786Y130858D01*
X653431Y128512D01*
X652730Y125895D01*
Y123390D01*
X652679Y123134D01*
X651694Y122145D01*
X646637D01*
X646036Y123415D01*
X646944Y124989D01*
X647550Y127250D01*
Y129590D01*
X646944Y131851D01*
X645774Y133879D01*
X644119Y135534D01*
X642091Y136704D01*
X639830Y137310D01*
X637490D01*
X635229Y136704D01*
X633201Y135534D01*
X631546Y133879D01*
X630638Y132305D01*
X622091D01*
X620963Y133432D01*
X621436Y134755D01*
X623191Y135226D01*
X625219Y136396D01*
X626874Y138051D01*
X628044Y140079D01*
X628650Y142340D01*
Y144680D01*
X628044Y146941D01*
X626874Y148969D01*
X625219Y150624D01*
X624471Y151055D01*
X624811Y152325D01*
X629222D01*
X629770Y151777D01*
Y149960D01*
X630376Y147699D01*
X631546Y145671D01*
X633201Y144016D01*
X635229Y142846D01*
X637490Y142240D01*
X639830D01*
X642091Y142846D01*
X644119Y144016D01*
X645774Y145671D01*
X646944Y147699D01*
X647550Y149960D01*
Y152300D01*
X646944Y154561D01*
X645774Y156589D01*
X644119Y158244D01*
X642091Y159414D01*
X639830Y160020D01*
X637490D01*
X635229Y159414D01*
X633892Y158643D01*
X633578Y158957D01*
X632317Y159799D01*
X630831Y160095D01*
X630393D01*
X629867Y161365D01*
X630684Y162181D01*
X631854Y164209D01*
X631956Y164590D01*
X632024D01*
X633511Y164885D01*
X634771Y165727D01*
X636327Y167283D01*
X637169Y168543D01*
X637465Y170030D01*
Y200257D01*
X639039Y201166D01*
X640694Y202821D01*
X641864Y204849D01*
X642470Y207110D01*
Y209450D01*
X641864Y211711D01*
X640694Y213739D01*
X639039Y215394D01*
X637011Y216564D01*
X635029Y217095D01*
X635196Y218365D01*
X654974D01*
X655141Y217095D01*
X653159Y216564D01*
X651131Y215394D01*
X649476Y213739D01*
X648306Y211711D01*
X647700Y209450D01*
Y207110D01*
X648234Y205118D01*
X645910Y202795D01*
X645068Y201535D01*
X644773Y200048D01*
Y183303D01*
X643036Y182301D01*
X641381Y180645D01*
X640211Y178618D01*
X639605Y176357D01*
Y174016D01*
X640211Y171755D01*
X641381Y169728D01*
X643036Y168073D01*
X645063Y166903D01*
X647324Y166297D01*
X649665D01*
X651926Y166903D01*
X653953Y168073D01*
X655609Y169728D01*
X656779Y171755D01*
X657385Y174016D01*
Y176357D01*
X656779Y178618D01*
X655609Y180645D01*
X653953Y182301D01*
X652542Y183115D01*
Y198439D01*
X653900Y199797D01*
X655420Y199390D01*
X657760D01*
X660021Y199996D01*
X662049Y201166D01*
X663704Y202821D01*
X664874Y204849D01*
X665480Y207110D01*
Y209450D01*
X664874Y211711D01*
X663704Y213739D01*
X662049Y215394D01*
X660021Y216564D01*
X658039Y217095D01*
X658206Y218365D01*
X666600D01*
X668087Y218661D01*
X669347Y219503D01*
X688529Y238685D01*
X708510D01*
X709997Y238981D01*
X711257Y239823D01*
X725227Y253793D01*
X726069Y255053D01*
X726365Y256540D01*
Y298460D01*
X726069Y299947D01*
X725227Y301207D01*
X715077Y311357D01*
X713817Y312199D01*
X712330Y312495D01*
X710806D01*
X710171Y313594D01*
X710444Y314069D01*
X711050Y316330D01*
Y318670D01*
X710444Y320931D01*
X709274Y322959D01*
X707619Y324614D01*
X705591Y325784D01*
X703330Y326390D01*
X700990D01*
X698729Y325784D01*
X696701Y324614D01*
X695046Y322959D01*
X693876Y320931D01*
X693270Y318670D01*
Y316330D01*
X693876Y314069D01*
X695046Y312041D01*
X696701Y310386D01*
X698072Y309595D01*
X698226Y308389D01*
X697392Y307415D01*
X689933D01*
X689407Y308685D01*
X690224Y309501D01*
X691394Y311529D01*
X692000Y313790D01*
Y316130D01*
X691394Y318391D01*
X690224Y320419D01*
X688569Y322074D01*
X686541Y323244D01*
X684280Y323850D01*
X681940D01*
X679679Y323244D01*
X677651Y322074D01*
X675996Y320419D01*
X674826Y318391D01*
X674220Y316130D01*
Y313790D01*
X674826Y311529D01*
X675996Y309501D01*
X677651Y307846D01*
X679225Y306938D01*
Y306288D01*
X679521Y304801D01*
X680363Y303541D01*
X683121Y300783D01*
X684381Y299941D01*
X685868Y299645D01*
X707691D01*
X713515Y293821D01*
Y275947D01*
X712245Y275345D01*
X710671Y276254D01*
X708410Y276860D01*
X706070D01*
X703809Y276254D01*
X701781Y275084D01*
X700126Y273429D01*
X699026Y271523D01*
X698350Y271420D01*
X697674Y271523D01*
X696574Y273429D01*
X694919Y275084D01*
X692891Y276254D01*
X690630Y276860D01*
X688290D01*
X686029Y276254D01*
X684001Y275084D01*
X682346Y273429D01*
X681176Y271401D01*
X680570Y269140D01*
Y266800D01*
X681176Y264539D01*
X682085Y262965D01*
X681483Y261695D01*
X679736D01*
X678249Y261399D01*
X676989Y260557D01*
X659077Y242645D01*
X625998D01*
X624511Y242349D01*
X623251Y241507D01*
X605575Y223831D01*
X604158Y224211D01*
X603764Y225681D01*
X602594Y227709D01*
X600939Y229364D01*
X598911Y230534D01*
X596650Y231140D01*
X594310D01*
X592049Y230534D01*
X590021Y229364D01*
X588366Y227709D01*
X587458Y226135D01*
X581338D01*
X580852Y227308D01*
X581258Y227713D01*
X582428Y229741D01*
X583007Y231902D01*
X565281D01*
X565860Y229741D01*
X567030Y227713D01*
X567436Y227308D01*
X566950Y226135D01*
X541273D01*
X540364Y227709D01*
X538709Y229364D01*
X536681Y230534D01*
X534420Y231140D01*
X532080D01*
X529819Y230534D01*
X527791Y229364D01*
X526136Y227709D01*
X524966Y225681D01*
X524360Y223420D01*
Y221080D01*
X524966Y218819D01*
X526136Y216791D01*
X527791Y215136D01*
X529819Y213966D01*
X532080Y213360D01*
X534420D01*
X536681Y213966D01*
X538709Y215136D01*
X540364Y216791D01*
X541273Y218365D01*
X587458D01*
X588366Y216791D01*
X590021Y215136D01*
X592049Y213966D01*
X593804Y213496D01*
X594277Y212172D01*
X571409Y189305D01*
X558868D01*
X557381Y189009D01*
X556121Y188167D01*
X554633Y186679D01*
X553791Y185419D01*
X553495Y183932D01*
Y183283D01*
X551921Y182374D01*
X550266Y180719D01*
X549096Y178691D01*
X548490Y176430D01*
Y174090D01*
X549096Y171829D01*
X550266Y169801D01*
X551921Y168146D01*
X552669Y167715D01*
X552329Y166445D01*
X535073D01*
X534164Y168019D01*
X532785Y169397D01*
X533443Y170536D01*
X534670Y170207D01*
Y177800D01*
X527077D01*
X527656Y175639D01*
X528826Y173611D01*
X530205Y172233D01*
X529547Y171094D01*
X528220Y171450D01*
X525880D01*
X523619Y170844D01*
X521591Y169674D01*
X519936Y168019D01*
X518766Y165991D01*
X518160Y163730D01*
Y161390D01*
X518766Y159129D01*
X519936Y157101D01*
X521591Y155446D01*
X523619Y154276D01*
X525880Y153670D01*
X528220D01*
X530481Y154276D01*
X532509Y155446D01*
X534164Y157101D01*
X535073Y158675D01*
X536853D01*
X537455Y157405D01*
X536546Y155831D01*
X535940Y153570D01*
Y151230D01*
X536546Y148969D01*
X537716Y146941D01*
X539371Y145286D01*
X541399Y144116D01*
X543660Y143510D01*
X546000D01*
X548261Y144116D01*
X550289Y145286D01*
X551944Y146941D01*
X552853Y148515D01*
X577361D01*
X611598Y114278D01*
X611112Y113105D01*
X604709D01*
X581717Y136097D01*
X580457Y136939D01*
X578970Y137235D01*
X575563D01*
X574654Y138809D01*
X572999Y140464D01*
X570971Y141634D01*
X568710Y142240D01*
X566370D01*
X564109Y141634D01*
X562081Y140464D01*
X560426Y138809D01*
X559256Y136781D01*
X558650Y134520D01*
Y132180D01*
X559256Y129919D01*
X560426Y127891D01*
X562081Y126236D01*
X564109Y125066D01*
X566370Y124460D01*
X568710D01*
X570971Y125066D01*
X572999Y126236D01*
X574654Y127891D01*
X575563Y129465D01*
X577361D01*
X600353Y106473D01*
X601613Y105631D01*
X603100Y105335D01*
X607973D01*
X608575Y104065D01*
X607666Y102491D01*
X607060Y100230D01*
Y97890D01*
X607666Y95629D01*
X608836Y93601D01*
X610491Y91946D01*
X612065Y91038D01*
Y40715D01*
X496759D01*
X496495Y40979D01*
Y47824D01*
X496199Y49311D01*
X495357Y50571D01*
X487508Y58420D01*
X488034Y59690D01*
X488850D01*
X491111Y60296D01*
X493139Y61466D01*
X494794Y63121D01*
X495964Y65149D01*
X496543Y67310D01*
X477650D01*
X477584Y67255D01*
X476934Y67385D01*
X420559D01*
X417887Y70057D01*
X416627Y70899D01*
X415140Y71195D01*
X394715D01*
X393324Y70918D01*
X392907Y71178D01*
X392235Y71763D01*
X392430Y72490D01*
Y74830D01*
X391824Y77091D01*
X390654Y79119D01*
X388999Y80774D01*
X387173Y81828D01*
X387186Y82528D01*
X387395Y83098D01*
X474801D01*
X475336Y82171D01*
X476991Y80516D01*
X479019Y79346D01*
X481280Y78740D01*
X483620D01*
X485881Y79346D01*
X487909Y80516D01*
X489564Y82171D01*
X490734Y84199D01*
X491340Y86460D01*
Y88800D01*
X490734Y91061D01*
X489564Y93089D01*
X487909Y94744D01*
X485881Y95914D01*
X483620Y96520D01*
X481280D01*
X479019Y95914D01*
X476991Y94744D01*
X475336Y93089D01*
X474801Y92162D01*
X370719D01*
X370184Y93089D01*
X368529Y94744D01*
X366501Y95914D01*
X364240Y96520D01*
X361900D01*
X359639Y95914D01*
X358065Y95005D01*
X356795Y95607D01*
Y124460D01*
X356499Y125947D01*
X356365Y126147D01*
X357155Y127250D01*
X358090Y127000D01*
X360430D01*
X362691Y127606D01*
X364719Y128776D01*
X366374Y130431D01*
X367544Y132459D01*
X368150Y134720D01*
Y137060D01*
X367544Y139321D01*
X366636Y140895D01*
X367237Y142165D01*
X374679D01*
X375019Y140895D01*
X374271Y140464D01*
X372616Y138809D01*
X371446Y136781D01*
X370840Y134520D01*
Y132180D01*
X371446Y129919D01*
X372616Y127891D01*
X374271Y126236D01*
X376299Y125066D01*
X378560Y124460D01*
X380900D01*
X383161Y125066D01*
X385189Y126236D01*
X386844Y127891D01*
X388014Y129919D01*
X388233Y130735D01*
X413081D01*
X413256Y130431D01*
X414911Y128776D01*
X416939Y127606D01*
X419200Y127000D01*
X421540D01*
X423801Y127606D01*
X425829Y128776D01*
X427484Y130431D01*
X428654Y132459D01*
X429260Y134720D01*
Y137060D01*
X428654Y139321D01*
X427607Y141134D01*
X428624Y141914D01*
X466605Y103933D01*
X467865Y103091D01*
X469352Y102795D01*
X474577D01*
X475486Y101221D01*
X477141Y99566D01*
X479169Y98396D01*
X481430Y97790D01*
X483770D01*
X486031Y98396D01*
X488059Y99566D01*
X489714Y101221D01*
X490884Y103249D01*
X491490Y105510D01*
Y107850D01*
X490884Y110111D01*
X489714Y112139D01*
X488059Y113794D01*
X486031Y114964D01*
X483770Y115570D01*
X481430D01*
X480949Y115441D01*
X480459Y116625D01*
X481709Y117346D01*
X483364Y119001D01*
X484534Y121029D01*
X485140Y123290D01*
Y125630D01*
X484534Y127891D01*
X483364Y129919D01*
X481709Y131574D01*
X479681Y132744D01*
X477420Y133350D01*
X475080D01*
X472819Y132744D01*
X471095Y131749D01*
X469825Y132241D01*
Y134620D01*
X469529Y136107D01*
X469432Y136251D01*
X470324Y137203D01*
X471549Y136496D01*
X473810Y135890D01*
X476150D01*
X478411Y136496D01*
X480439Y137666D01*
X482094Y139321D01*
X483264Y141349D01*
X483870Y143610D01*
Y145950D01*
X483264Y148211D01*
X482094Y150239D01*
X480439Y151894D01*
X478411Y153064D01*
X476150Y153670D01*
X473810D01*
X471549Y153064D01*
X469521Y151894D01*
X468112Y150484D01*
X466621Y150178D01*
X463000Y153799D01*
X463642Y154926D01*
X463656Y154940D01*
X465990D01*
X468251Y155546D01*
X470279Y156716D01*
X471934Y158371D01*
X473104Y160399D01*
X473710Y162660D01*
Y165000D01*
X473104Y167261D01*
X471934Y169289D01*
X470279Y170944D01*
X468251Y172114D01*
X465990Y172720D01*
X463650D01*
X461389Y172114D01*
X459361Y170944D01*
X457706Y169289D01*
X457229Y168463D01*
X455690Y168293D01*
X314885Y309099D01*
Y364087D01*
X316459Y364996D01*
X318114Y366651D01*
X319284Y368679D01*
X319890Y370940D01*
Y373280D01*
X319284Y375541D01*
X318114Y377569D01*
X316459Y379224D01*
X314431Y380394D01*
X312170Y381000D01*
X309830D01*
X307569Y380394D01*
X305541Y379224D01*
X303886Y377569D01*
X302716Y375541D01*
X302110Y373280D01*
Y370940D01*
X302716Y368679D01*
X303886Y366651D01*
X305541Y364996D01*
X307115Y364087D01*
Y311343D01*
X305942Y310858D01*
X289485Y327315D01*
Y364087D01*
X291059Y364996D01*
X292714Y366651D01*
X293884Y368679D01*
X294490Y370940D01*
Y373280D01*
X293884Y375541D01*
X292714Y377569D01*
X291059Y379224D01*
X289031Y380394D01*
X286770Y381000D01*
X284430D01*
X282169Y380394D01*
X280141Y379224D01*
X278486Y377569D01*
X277316Y375541D01*
X276710Y373280D01*
Y370940D01*
X277316Y368679D01*
X278486Y366651D01*
X280141Y364996D01*
X281715Y364087D01*
Y325706D01*
X282011Y324219D01*
X282853Y322959D01*
X321303Y284509D01*
X321292Y284416D01*
X320731Y283285D01*
X319023D01*
X318114Y284859D01*
X316459Y286514D01*
X314431Y287684D01*
X312170Y288290D01*
X309830D01*
X307569Y287684D01*
X305541Y286514D01*
X303886Y284859D01*
X302716Y282831D01*
X302246Y281076D01*
X300922Y280603D01*
X300648Y280877D01*
X299388Y281719D01*
X297902Y282015D01*
X292833D01*
X292614Y282831D01*
X291444Y284859D01*
X289789Y286514D01*
X287761Y287684D01*
X285500Y288290D01*
X283160D01*
X280899Y287684D01*
X278871Y286514D01*
X277216Y284859D01*
X276046Y282831D01*
X275440Y280570D01*
Y278230D01*
X276046Y275969D01*
X277216Y273941D01*
X278871Y272286D01*
X280899Y271116D01*
X283160Y270510D01*
X285500D01*
X287761Y271116D01*
X289789Y272286D01*
X291444Y273941D01*
X291619Y274245D01*
X296292D01*
X426394Y144144D01*
X425614Y143127D01*
X423801Y144174D01*
X421540Y144780D01*
X419200D01*
X416939Y144174D01*
X414911Y143004D01*
X413256Y141349D01*
X412086Y139321D01*
X411867Y138505D01*
X387019D01*
X386844Y138809D01*
X385189Y140464D01*
X384441Y140895D01*
X384442Y141535D01*
X384695Y142215D01*
X385929Y142461D01*
X387189Y143303D01*
X390877Y146992D01*
X392245Y146868D01*
X392936Y145671D01*
X394591Y144016D01*
X396619Y142846D01*
X398880Y142240D01*
X401220D01*
X403481Y142846D01*
X405509Y144016D01*
X407164Y145671D01*
X408334Y147699D01*
X408940Y149960D01*
Y152300D01*
X408334Y154561D01*
X407164Y156589D01*
X405509Y158244D01*
X403481Y159414D01*
X401220Y160020D01*
X398880D01*
X396619Y159414D01*
X394591Y158244D01*
X392936Y156589D01*
X392028Y155015D01*
X389522D01*
X388036Y154719D01*
X386775Y153877D01*
X382833Y149935D01*
X372838D01*
X372352Y151108D01*
X375640Y154396D01*
X376482Y155656D01*
X376778Y157143D01*
Y163873D01*
X378048Y164370D01*
X379351Y163066D01*
X381379Y161896D01*
X383640Y161290D01*
X385980D01*
X388241Y161896D01*
X390269Y163066D01*
X391924Y164721D01*
X393094Y166749D01*
X393700Y169010D01*
Y171350D01*
X393094Y173611D01*
X391924Y175639D01*
X390269Y177294D01*
X388241Y178464D01*
X385980Y179070D01*
X383640D01*
X381379Y178464D01*
X379351Y177294D01*
X377696Y175639D01*
X376913Y174283D01*
X376138D01*
X374651Y173987D01*
X373391Y173145D01*
X373133Y172887D01*
X371960Y173373D01*
Y173890D01*
X371354Y176151D01*
X370184Y178179D01*
X368529Y179834D01*
X366501Y181004D01*
X364240Y181610D01*
X361900D01*
X359639Y181004D01*
X357611Y179834D01*
X355956Y178179D01*
X354786Y176151D01*
X354180Y173890D01*
Y171550D01*
X354786Y169289D01*
X355956Y167261D01*
X356773Y166445D01*
X356757Y166068D01*
X356325Y165096D01*
X355233Y164879D01*
X353973Y164037D01*
X334923Y144987D01*
X334081Y143727D01*
X333785Y142240D01*
Y100646D01*
X332361Y99824D01*
X330706Y98169D01*
X329536Y96141D01*
X328930Y93880D01*
Y91540D01*
X329536Y89279D01*
X330706Y87251D01*
X332361Y85596D01*
X334389Y84426D01*
X336650Y83820D01*
X338990D01*
X341251Y84426D01*
X343279Y85596D01*
X344934Y87251D01*
X346104Y89279D01*
X346710Y91540D01*
Y93880D01*
X346104Y96141D01*
X344934Y98169D01*
X343279Y99824D01*
X341555Y100819D01*
Y140631D01*
X342772Y141848D01*
X343945Y141362D01*
Y129540D01*
X344241Y128053D01*
X345083Y126793D01*
X349025Y122851D01*
Y85429D01*
X342349Y78752D01*
X341232Y78899D01*
X340946Y79146D01*
X339319Y80774D01*
X337291Y81944D01*
X335030Y82550D01*
X332690D01*
X330429Y81944D01*
X328401Y80774D01*
X326746Y79119D01*
X325576Y77091D01*
X324970Y74830D01*
Y73728D01*
X323700Y73202D01*
X314132Y82770D01*
X312872Y83612D01*
X311385Y83908D01*
X307606D01*
X306697Y85482D01*
X305042Y87137D01*
X303015Y88307D01*
X300754Y88913D01*
X298413D01*
X296152Y88307D01*
X294125Y87137D01*
X292469Y85482D01*
X291299Y83455D01*
X290832Y81713D01*
X289503Y81247D01*
X257055Y113695D01*
X255584Y114677D01*
X253850Y115022D01*
X211392D01*
Y125941D01*
X228130D01*
X232549Y126376D01*
X236797Y127665D01*
X240713Y129758D01*
X244145Y132575D01*
X246962Y136007D01*
X249055Y139923D01*
X250344Y144171D01*
X250779Y148590D01*
X250344Y153009D01*
X249055Y157257D01*
X246962Y161173D01*
X244145Y164605D01*
X240713Y167422D01*
X236797Y169515D01*
X232549Y170804D01*
X228130Y171239D01*
X188130D01*
X183711Y170804D01*
X179463Y169515D01*
X175547Y167422D01*
X172115Y164605D01*
X169298Y161173D01*
X167205Y157257D01*
X165916Y153009D01*
X165481Y148590D01*
X165916Y144171D01*
X167205Y139923D01*
X169298Y136007D01*
X172115Y132575D01*
X175547Y129758D01*
X179463Y127665D01*
X183711Y126376D01*
X188130Y125941D01*
X202328D01*
Y111978D01*
X202673Y110244D01*
X203655Y108773D01*
X205143Y107285D01*
X205143Y107285D01*
X206614Y106303D01*
X208348Y105958D01*
X251973D01*
X287137Y70794D01*
Y43169D01*
X286256Y42289D01*
X285086Y40261D01*
X284480Y38000D01*
Y35660D01*
X285086Y33399D01*
X286256Y31371D01*
X287911Y29716D01*
X289939Y28546D01*
X292200Y27940D01*
X294540D01*
X296801Y28546D01*
X298829Y29716D01*
X300484Y31371D01*
X301654Y33399D01*
X302260Y35660D01*
Y38000D01*
X301654Y40261D01*
X300484Y42289D01*
X298829Y43944D01*
X296801Y45114D01*
X296201Y45275D01*
Y70683D01*
X297209Y71456D01*
X298413Y71133D01*
X300754D01*
X303015Y71739D01*
X305042Y72909D01*
X306697Y74565D01*
X307606Y76139D01*
X309776D01*
X318687Y67228D01*
X318214Y65904D01*
X316459Y65434D01*
X314431Y64264D01*
X312776Y62609D01*
X311606Y60581D01*
X311000Y58320D01*
Y55980D01*
X311606Y53719D01*
X312776Y51691D01*
X314431Y50036D01*
X316459Y48866D01*
X318720Y48260D01*
X321060D01*
X323321Y48866D01*
X325349Y50036D01*
X327004Y51691D01*
X327912Y53265D01*
X343584D01*
X345071Y53561D01*
X346331Y54403D01*
X353164Y61236D01*
X354434Y60710D01*
Y60044D01*
X355040Y57783D01*
X356210Y55755D01*
X357865Y54100D01*
X359893Y52930D01*
X362154Y52324D01*
X364494D01*
X366755Y52930D01*
X368783Y54100D01*
X370438Y55755D01*
X371347Y57329D01*
X372824D01*
X374481Y55673D01*
X375741Y54831D01*
X377227Y54535D01*
X393009D01*
X394495Y54831D01*
X395756Y55673D01*
X397750Y57668D01*
X398766Y56888D01*
X397966Y55501D01*
X397360Y53240D01*
Y50900D01*
X397966Y48639D01*
X399136Y46611D01*
X400791Y44956D01*
X402819Y43786D01*
X402873Y43601D01*
X402022Y42075D01*
X401041Y41812D01*
X399013Y40642D01*
X397358Y38987D01*
X396188Y36959D01*
X395609Y34798D01*
X413335D01*
X412756Y36959D01*
X411586Y38987D01*
X409931Y40642D01*
X407904Y41812D01*
X407849Y41997D01*
X408700Y43523D01*
X409681Y43786D01*
X411709Y44956D01*
X413364Y46611D01*
X414534Y48639D01*
X414753Y49455D01*
X470681D01*
X478565Y41571D01*
Y33020D01*
X478861Y31533D01*
X479703Y30273D01*
X483316Y26660D01*
X482830Y25487D01*
X464700D01*
Y33020D01*
X444320D01*
Y25487D01*
X436514D01*
X435988Y26757D01*
X437264Y28033D01*
X438606Y30357D01*
X439300Y32948D01*
Y35632D01*
X438606Y38223D01*
X437264Y40547D01*
X435367Y42444D01*
X433043Y43786D01*
X430452Y44480D01*
X427769D01*
X425177Y43786D01*
X422853Y42444D01*
X420956Y40547D01*
X419614Y38223D01*
X418920Y35632D01*
Y32948D01*
X419614Y30357D01*
X420956Y28033D01*
X422232Y26757D01*
X421706Y25487D01*
X410758D01*
X410273Y26757D01*
X411586Y28069D01*
X412756Y30097D01*
X413335Y32258D01*
X395357D01*
X394407Y31837D01*
X371475D01*
X369741Y31492D01*
X368270Y30510D01*
X368270Y30510D01*
X361614Y23853D01*
X360580Y24130D01*
X358240D01*
X355979Y23524D01*
X353951Y22354D01*
X352296Y20699D01*
X351126Y18671D01*
X350520Y16410D01*
Y14070D01*
X351126Y11809D01*
X352296Y9781D01*
X353951Y8126D01*
X354699Y7695D01*
X354359Y6425D01*
X49605D01*
Y248845D01*
X148590D01*
X150077Y249141D01*
X151337Y249983D01*
X151467Y250113D01*
X152309Y251373D01*
X152605Y252860D01*
Y350931D01*
X210539Y408865D01*
X474980D01*
X476467Y409161D01*
X477727Y410003D01*
X478997Y411273D01*
X479839Y412533D01*
X480135Y414020D01*
Y440690D01*
X479839Y442177D01*
X478997Y443437D01*
X478178Y443984D01*
X478089Y444117D01*
X476829Y444959D01*
X475343Y445255D01*
X186936D01*
X186850Y446525D01*
X190348Y448862D01*
X193488Y452002D01*
X195955Y455693D01*
X197654Y459795D01*
X198520Y464150D01*
Y468590D01*
X197654Y472945D01*
X195955Y477047D01*
X193488Y480738D01*
X190348Y483878D01*
X186850Y486215D01*
X186936Y487485D01*
X476130D01*
X477617Y487781D01*
X478877Y488623D01*
X478925Y488695D01*
X478997Y488743D01*
X479839Y490003D01*
X480135Y491490D01*
Y524510D01*
X479839Y525997D01*
X478997Y527257D01*
X478703Y527453D01*
X478507Y527747D01*
X477247Y528589D01*
X475760Y528885D01*
X186126D01*
X186040Y530155D01*
X189538Y532492D01*
X192678Y535632D01*
X195145Y539323D01*
X196844Y543425D01*
X197710Y547780D01*
Y552220D01*
X196844Y556575D01*
X195145Y560677D01*
X192678Y564368D01*
X189538Y567508D01*
X186040Y569845D01*
X186126Y571115D01*
X474670D01*
X476157Y571411D01*
X477417Y572253D01*
X478997Y573833D01*
X479839Y575093D01*
X480135Y576580D01*
Y774700D01*
X480086Y774943D01*
X480125Y775136D01*
X479829Y776622D01*
X478987Y777883D01*
X477726Y778725D01*
X476240Y779021D01*
X476150Y779003D01*
X474895Y778939D01*
X467428Y778811D01*
X440029Y777407D01*
X412695Y775068D01*
X385455Y771796D01*
X358344Y767597D01*
X331391Y762475D01*
X304630Y756435D01*
X278090Y749486D01*
X251803Y741634D01*
X225799Y732889D01*
X200109Y723262D01*
X174762Y712763D01*
X149789Y701405D01*
X125218Y689201D01*
X114355Y683335D01*
X6733D01*
Y839152D01*
X17017Y845018D01*
X44555Y859599D01*
X72537Y873307D01*
X100936Y886130D01*
X129723Y898054D01*
X158871Y909068D01*
X188351Y919161D01*
X218133Y928323D01*
X248188Y936545D01*
X278487Y943820D01*
X308999Y950138D01*
X339695Y955496D01*
X370543Y959886D01*
X401515Y963305D01*
X432578Y965750D01*
X463703Y967218D01*
X494859Y967707D01*
X526015Y967218D01*
D02*
G37*
G36*
X959130Y569845D02*
X955632Y567508D01*
X952492Y564368D01*
X950025Y560677D01*
X948326Y556575D01*
X947460Y552220D01*
Y547780D01*
X948326Y543425D01*
X950025Y539323D01*
X952492Y535632D01*
X955632Y532492D01*
X959130Y530155D01*
X959044Y528885D01*
X835786D01*
X835700Y530155D01*
X839198Y532492D01*
X842338Y535632D01*
X844805Y539323D01*
X846504Y543425D01*
X847370Y547780D01*
Y552220D01*
X846504Y556575D01*
X844805Y560677D01*
X842338Y564368D01*
X839198Y567508D01*
X835700Y569845D01*
X835786Y571115D01*
X959044D01*
X959130Y569845D01*
D02*
G37*
G36*
X164300D02*
X160802Y567508D01*
X157662Y564368D01*
X155195Y560677D01*
X153496Y556575D01*
X152630Y552220D01*
Y547780D01*
X153496Y543425D01*
X155195Y539323D01*
X157662Y535632D01*
X160802Y532492D01*
X164300Y530155D01*
X164214Y528885D01*
X40957D01*
X40870Y530155D01*
X44368Y532492D01*
X47508Y535632D01*
X49975Y539323D01*
X51674Y543425D01*
X52540Y547780D01*
Y552220D01*
X51674Y556575D01*
X49975Y560677D01*
X47508Y564368D01*
X44368Y567508D01*
X40870Y569845D01*
X40957Y571115D01*
X164214D01*
X164300Y569845D01*
D02*
G37*
G36*
X959940Y486215D02*
X956442Y483878D01*
X953302Y480738D01*
X950835Y477047D01*
X949136Y472945D01*
X948270Y468590D01*
Y464150D01*
X949136Y459795D01*
X950835Y455693D01*
X953302Y452002D01*
X956442Y448862D01*
X959940Y446525D01*
X959854Y445255D01*
X836596D01*
X836510Y446525D01*
X840008Y448862D01*
X843148Y452002D01*
X845615Y455693D01*
X847314Y459795D01*
X848180Y464150D01*
Y468590D01*
X847314Y472945D01*
X845615Y477047D01*
X843148Y480738D01*
X840008Y483878D01*
X836510Y486215D01*
X836596Y487485D01*
X959854D01*
X959940Y486215D01*
D02*
G37*
G36*
X165110D02*
X161612Y483878D01*
X158472Y480738D01*
X156005Y477047D01*
X154306Y472945D01*
X153440Y468590D01*
Y464150D01*
X154306Y459795D01*
X156005Y455693D01*
X158472Y452002D01*
X161612Y448862D01*
X165110Y446525D01*
X165023Y445255D01*
X41767D01*
X41680Y446525D01*
X45178Y448862D01*
X48318Y452002D01*
X50785Y455693D01*
X52484Y459795D01*
X53350Y464150D01*
Y468590D01*
X52484Y472945D01*
X50785Y477047D01*
X48318Y480738D01*
X45178Y483878D01*
X41680Y486215D01*
X41767Y487485D01*
X165023D01*
X165110Y486215D01*
D02*
G37*
G36*
X606835Y212084D02*
Y193105D01*
X600503Y186773D01*
X599661Y185512D01*
X599365Y184026D01*
Y149505D01*
X598192Y149019D01*
X580634Y166577D01*
X579374Y167419D01*
X577887Y167715D01*
X564203D01*
X563677Y168985D01*
X564494Y169801D01*
X565664Y171829D01*
X566270Y174090D01*
Y176430D01*
X565664Y178691D01*
X564756Y180265D01*
X565357Y181535D01*
X573018D01*
X574505Y181831D01*
X575765Y182673D01*
X605662Y212570D01*
X606835Y212084D01*
D02*
G37*
G36*
X462055Y133011D02*
Y125948D01*
X462351Y124461D01*
X463193Y123201D01*
X464681Y121713D01*
X465941Y120871D01*
X467428Y120575D01*
X468228D01*
X469136Y119001D01*
X470791Y117346D01*
X472819Y116176D01*
X475080Y115570D01*
X477420D01*
X477901Y115699D01*
X478391Y114515D01*
X477141Y113794D01*
X475486Y112139D01*
X474577Y110565D01*
X470961D01*
X312203Y269322D01*
X312676Y270646D01*
X314431Y271116D01*
X316459Y272286D01*
X318114Y273941D01*
X318591Y274767D01*
X320130Y274937D01*
X462055Y133011D01*
D02*
G37*
G36*
X723675Y111100D02*
Y30555D01*
X637981D01*
X637331Y31603D01*
X637333Y31825D01*
X637615Y33238D01*
Y36428D01*
X639189Y37336D01*
X640844Y38991D01*
X642014Y41019D01*
X642620Y43280D01*
Y45620D01*
X642014Y47881D01*
X640844Y49909D01*
X639189Y51564D01*
X637161Y52734D01*
X634900Y53340D01*
X632560D01*
X630299Y52734D01*
X628271Y51564D01*
X626616Y49909D01*
X625446Y47881D01*
X624840Y45620D01*
Y43280D01*
X625446Y41019D01*
X626616Y38991D01*
X628271Y37336D01*
X629019Y36905D01*
X628679Y35635D01*
X620201D01*
X619551Y36683D01*
X619553Y36905D01*
X619835Y38318D01*
Y91038D01*
X621409Y91946D01*
X623064Y93601D01*
X624234Y95629D01*
X624840Y97890D01*
Y100230D01*
X624234Y102491D01*
X623889Y103090D01*
X624701Y104223D01*
X624739Y104215D01*
X643649D01*
X643665Y104199D01*
Y93980D01*
X643961Y92493D01*
X644803Y91233D01*
X650706Y85330D01*
X650537Y83791D01*
X649711Y83314D01*
X648056Y81659D01*
X646886Y79631D01*
X646280Y77370D01*
Y75030D01*
X646886Y72769D01*
X648056Y70741D01*
X649711Y69086D01*
X651739Y67916D01*
X654000Y67310D01*
X656340D01*
X658601Y67916D01*
X660629Y69086D01*
X662284Y70741D01*
X663454Y72769D01*
X664060Y75030D01*
Y77370D01*
X663454Y79631D01*
X662284Y81659D01*
X660629Y83314D01*
X659055Y84222D01*
Y86360D01*
X658759Y87847D01*
X658318Y88506D01*
X658874Y89302D01*
X659169Y89519D01*
X661665Y88850D01*
X664375D01*
X666992Y89551D01*
X669338Y90906D01*
X671254Y92822D01*
X672609Y95168D01*
X673310Y97785D01*
Y100495D01*
X672609Y103112D01*
X671254Y105458D01*
X669338Y107374D01*
X668557Y107825D01*
X668897Y109095D01*
X682543D01*
X682884Y107825D01*
X682102Y107374D01*
X680186Y105458D01*
X678831Y103112D01*
X678130Y100495D01*
Y100410D01*
X688420D01*
X698710D01*
Y100495D01*
X698009Y103112D01*
X696654Y105458D01*
X694738Y107374D01*
X693957Y107825D01*
X694297Y109095D01*
X718402D01*
X719889Y109391D01*
X721149Y110233D01*
X722502Y111586D01*
X723675Y111100D01*
D02*
G37*
G36*
X378697Y21503D02*
X377796Y19941D01*
X377190Y17680D01*
Y15340D01*
X377796Y13079D01*
X378966Y11051D01*
X380621Y9396D01*
X382649Y8226D01*
X384631Y7695D01*
X384464Y6425D01*
X364461D01*
X364121Y7695D01*
X364869Y8126D01*
X366524Y9781D01*
X367694Y11809D01*
X368300Y14070D01*
Y16410D01*
X368023Y17444D01*
X373352Y22773D01*
X378087D01*
X378697Y21503D01*
D02*
G37*
%LPC*%
G36*
X388650Y947780D02*
X383430D01*
Y938210D01*
X388650D01*
Y947780D01*
D02*
G37*
G36*
X380890D02*
X375670D01*
Y938210D01*
X380890D01*
Y947780D01*
D02*
G37*
G36*
X556260Y944853D02*
Y937260D01*
X563853D01*
X563274Y939421D01*
X562104Y941449D01*
X560449Y943104D01*
X558421Y944274D01*
X556260Y944853D01*
D02*
G37*
G36*
X553720D02*
X551559Y944274D01*
X549531Y943104D01*
X547876Y941449D01*
X546706Y939421D01*
X546127Y937260D01*
X553720D01*
Y944853D01*
D02*
G37*
G36*
X656477Y947790D02*
X654163D01*
X651927Y947191D01*
X649923Y946034D01*
X648286Y944397D01*
X647129Y942393D01*
X646530Y940157D01*
Y937843D01*
X647129Y935607D01*
X648286Y933603D01*
X649923Y931966D01*
X651927Y930809D01*
X654163Y930210D01*
X656477D01*
X658713Y930809D01*
X660717Y931966D01*
X662354Y933603D01*
X663511Y935607D01*
X664110Y937843D01*
Y940157D01*
X663511Y942393D01*
X662354Y944397D01*
X660717Y946034D01*
X658713Y947191D01*
X656477Y947790D01*
D02*
G37*
G36*
X333897Y946520D02*
X331583D01*
X329347Y945921D01*
X327343Y944764D01*
X325706Y943127D01*
X324549Y941123D01*
X323950Y938887D01*
Y936573D01*
X324549Y934337D01*
X325706Y932333D01*
X327343Y930696D01*
X329347Y929539D01*
X331583Y928940D01*
X333897D01*
X336133Y929539D01*
X338137Y930696D01*
X339774Y932333D01*
X340931Y934337D01*
X341530Y936573D01*
Y938887D01*
X340931Y941123D01*
X339774Y943127D01*
X338137Y944764D01*
X336133Y945921D01*
X333897Y946520D01*
D02*
G37*
G36*
X563853Y934720D02*
X556260D01*
Y927127D01*
X558421Y927706D01*
X560449Y928876D01*
X562104Y930531D01*
X563274Y932559D01*
X563853Y934720D01*
D02*
G37*
G36*
X553720D02*
X546127D01*
X546706Y932559D01*
X547876Y930531D01*
X549531Y928876D01*
X551559Y927706D01*
X553720Y927127D01*
Y934720D01*
D02*
G37*
G36*
X482021Y960896D02*
X462441D01*
Y944666D01*
X462441Y944316D01*
Y943396D01*
X462441Y943046D01*
Y926816D01*
X482021D01*
Y931221D01*
X523953D01*
X523965Y931209D01*
X524303Y930703D01*
X526231Y928775D01*
Y831660D01*
X525058Y831174D01*
X524889Y831344D01*
X522861Y832514D01*
X520600Y833120D01*
X518260D01*
X515999Y832514D01*
X513971Y831344D01*
X512316Y829689D01*
X511408Y828115D01*
X474547D01*
Y888318D01*
X479952D01*
Y903398D01*
X461372D01*
Y899743D01*
X436118D01*
X434631Y899447D01*
X433371Y898605D01*
X326051Y791285D01*
X265769D01*
X264604Y792450D01*
X265126Y793720D01*
X269640D01*
Y808800D01*
X251060D01*
Y805255D01*
X240030D01*
X238543Y804959D01*
X237283Y804117D01*
X232071Y798905D01*
X223078D01*
X222150Y799730D01*
X222150Y800175D01*
Y817310D01*
X204570D01*
Y800175D01*
X204570Y799730D01*
X203642Y798905D01*
X191770D01*
X190283Y798609D01*
X189023Y797767D01*
X164133Y772877D01*
X162960Y773363D01*
Y774510D01*
X144380D01*
Y770965D01*
X135890D01*
X134403Y770669D01*
X133143Y769827D01*
X117771Y754455D01*
X110390D01*
Y770320D01*
X92810D01*
Y752740D01*
X100427D01*
X100913Y751567D01*
X86409Y737063D01*
X85236Y737549D01*
Y739458D01*
X66656D01*
Y724378D01*
X85236D01*
Y728033D01*
X86758D01*
X88245Y728329D01*
X89505Y729171D01*
X107019Y746685D01*
X119380D01*
X120867Y746981D01*
X122127Y747823D01*
X137499Y763195D01*
X144380D01*
Y759430D01*
X162960D01*
Y763085D01*
X163720D01*
X165207Y763381D01*
X166467Y764223D01*
X193379Y791135D01*
X233680D01*
X235167Y791431D01*
X236427Y792273D01*
X241639Y797485D01*
X251060D01*
Y793720D01*
X256465D01*
Y791210D01*
X256761Y789723D01*
X257603Y788463D01*
X261413Y784653D01*
X262673Y783811D01*
X264160Y783515D01*
X327660D01*
X329147Y783811D01*
X330407Y784653D01*
X437727Y891973D01*
X461372D01*
Y888318D01*
X466777D01*
Y825718D01*
X467073Y824231D01*
X467915Y822971D01*
X469403Y821483D01*
X470663Y820641D01*
X472150Y820345D01*
X511408D01*
X512316Y818771D01*
X513971Y817116D01*
X515545Y816208D01*
Y799702D01*
X515841Y798215D01*
X516683Y796955D01*
X523161Y790477D01*
X524421Y789635D01*
X525908Y789339D01*
X620812D01*
X622299Y789635D01*
X623559Y790477D01*
X625047Y791965D01*
X625889Y793225D01*
X626185Y794712D01*
Y815310D01*
X631590D01*
Y818965D01*
X662711D01*
X690783Y790893D01*
X692043Y790051D01*
X693530Y789755D01*
X698100D01*
Y786100D01*
X716680D01*
Y789755D01*
X733831D01*
X737773Y785813D01*
X739033Y784971D01*
X740520Y784675D01*
X742550D01*
Y781020D01*
X761130D01*
Y784675D01*
X802411D01*
X817805Y769281D01*
Y736818D01*
X818101Y735331D01*
X818943Y734071D01*
X820431Y732583D01*
X821691Y731741D01*
X823178Y731445D01*
X867071D01*
X907843Y690673D01*
X909103Y689831D01*
X910590Y689535D01*
X916115D01*
Y685784D01*
X934695D01*
Y700864D01*
X916115D01*
Y697305D01*
X912199D01*
X871427Y738077D01*
X870167Y738919D01*
X868680Y739215D01*
X825575D01*
Y770890D01*
X825279Y772377D01*
X824437Y773637D01*
X806767Y791307D01*
X805507Y792149D01*
X804020Y792445D01*
X761130D01*
Y796100D01*
X742550D01*
Y793820D01*
X741280Y793294D01*
X738187Y796387D01*
X736927Y797229D01*
X735440Y797525D01*
X716680D01*
Y801180D01*
X698100D01*
Y797525D01*
X695139D01*
X667067Y825597D01*
X665807Y826439D01*
X664320Y826735D01*
X631590D01*
Y830390D01*
X613010D01*
Y815310D01*
X618415D01*
Y797109D01*
X538093D01*
X537491Y798379D01*
X538400Y799953D01*
X539006Y802214D01*
Y804554D01*
X538400Y806815D01*
X537230Y808843D01*
X535575Y810498D01*
X534001Y811406D01*
Y930384D01*
X533705Y931870D01*
X532863Y933131D01*
X530135Y935859D01*
X529797Y936365D01*
X528309Y937853D01*
X527049Y938695D01*
X525562Y938990D01*
X482021D01*
Y943046D01*
X482021Y943396D01*
Y944316D01*
X482021Y944666D01*
Y948721D01*
X575343D01*
X576242Y947826D01*
X576242Y947451D01*
Y938256D01*
X582733D01*
X589222D01*
Y947451D01*
X589222Y947826D01*
X590122Y948721D01*
X593343D01*
X594243Y947826D01*
Y926146D01*
X607223D01*
Y947826D01*
X604617D01*
Y950986D01*
X604322Y952472D01*
X603479Y953733D01*
X601859Y955353D01*
X600599Y956195D01*
X599113Y956490D01*
X482021D01*
Y960896D01*
D02*
G37*
G36*
X589222Y935716D02*
X584002D01*
Y926146D01*
X589222D01*
Y935716D01*
D02*
G37*
G36*
X581463D02*
X576242D01*
Y926146D01*
X581463D01*
Y935716D01*
D02*
G37*
G36*
X406650Y947780D02*
X393670D01*
Y926100D01*
X392481Y925905D01*
X389839D01*
X388650Y926100D01*
X388650Y927175D01*
Y935670D01*
X382160D01*
X375670D01*
Y927175D01*
X375670Y926100D01*
X374481Y925905D01*
X325120D01*
X323633Y925609D01*
X322373Y924767D01*
X281985Y884378D01*
X281402Y884470D01*
X280715Y884834D01*
Y888631D01*
X287337Y895253D01*
X288179Y896513D01*
X288475Y898000D01*
Y898160D01*
X291080D01*
Y919840D01*
X278100D01*
Y898160D01*
X278100D01*
X278439Y897342D01*
X274083Y892987D01*
X273241Y891727D01*
X272945Y890240D01*
Y879840D01*
X260100D01*
Y872885D01*
X250849D01*
X247725Y876009D01*
Y883518D01*
X249299Y884426D01*
X250954Y886081D01*
X252124Y888109D01*
X252730Y890370D01*
Y892710D01*
X252124Y894971D01*
X250954Y896999D01*
X249299Y898654D01*
X247271Y899824D01*
X245010Y900430D01*
X242670D01*
X240409Y899824D01*
X238381Y898654D01*
X236726Y896999D01*
X235556Y894971D01*
X234950Y892710D01*
Y890370D01*
X235556Y888109D01*
X236726Y886081D01*
X238381Y884426D01*
X239955Y883518D01*
Y874400D01*
X240251Y872913D01*
X241093Y871653D01*
X246493Y866253D01*
X247753Y865411D01*
X249240Y865115D01*
X260100D01*
Y858160D01*
X260457D01*
X260943Y856987D01*
X257603Y853647D01*
X256761Y852387D01*
X256465Y850900D01*
Y826800D01*
X251060D01*
Y811720D01*
X269640D01*
Y826800D01*
X264235D01*
Y849291D01*
X269337Y854393D01*
X270179Y855653D01*
X270475Y857140D01*
Y858160D01*
X273080D01*
X273080Y858160D01*
X273170Y857867D01*
X273241Y857635D01*
X273596Y857104D01*
X273596Y857104D01*
X273612Y857079D01*
X274083Y856375D01*
X294565Y835893D01*
Y829840D01*
X288660D01*
Y813610D01*
X288660Y813260D01*
X288660Y811990D01*
Y795760D01*
X308240D01*
Y800165D01*
X325028D01*
X325121Y800103D01*
X326608Y799807D01*
X328094Y800103D01*
X329355Y800945D01*
X332947Y804537D01*
X333789Y805798D01*
X334085Y807284D01*
Y808587D01*
X335659Y809496D01*
X337314Y811151D01*
X338484Y813179D01*
X339090Y815440D01*
Y817780D01*
X338484Y820041D01*
X337314Y822069D01*
X335659Y823724D01*
X333631Y824894D01*
X331370Y825500D01*
X329030D01*
X326769Y824894D01*
X324741Y823724D01*
X323086Y822069D01*
X321916Y820041D01*
X321310Y817780D01*
Y815440D01*
X321916Y813179D01*
X323086Y811151D01*
X324741Y809496D01*
X325218Y809221D01*
X325229Y809139D01*
X324906Y807935D01*
X308240D01*
Y811990D01*
X308240Y812340D01*
X308240Y813610D01*
Y829840D01*
X302335D01*
Y837502D01*
X302039Y838988D01*
X301197Y840249D01*
X284459Y856987D01*
X284945Y858160D01*
X291080D01*
Y879840D01*
X290230D01*
X289704Y881110D01*
X326729Y918135D01*
X385204D01*
X385329Y916865D01*
X384593Y916719D01*
X383333Y915877D01*
X379413Y911957D01*
X378571Y910697D01*
X378275Y909210D01*
Y907780D01*
X375670D01*
Y886100D01*
X388650D01*
Y907780D01*
X388650D01*
X388520Y909050D01*
X388651Y909245D01*
X461372D01*
Y906318D01*
X479952D01*
Y909973D01*
X487820D01*
X488728Y908399D01*
X490383Y906744D01*
X492411Y905574D01*
X494672Y904968D01*
X497012D01*
X499273Y905574D01*
X501301Y906744D01*
X502956Y908399D01*
X504126Y910427D01*
X504732Y912688D01*
Y915028D01*
X504126Y917289D01*
X502956Y919317D01*
X501301Y920972D01*
X499273Y922142D01*
X497012Y922748D01*
X494672D01*
X492411Y922142D01*
X490383Y920972D01*
X488728Y919317D01*
X487820Y917743D01*
X479952D01*
Y921398D01*
X461372D01*
Y917015D01*
X399438D01*
X399313Y918285D01*
X400049Y918431D01*
X401309Y919273D01*
X402797Y920761D01*
X403639Y922021D01*
X403935Y923508D01*
Y926100D01*
X406650D01*
Y947780D01*
D02*
G37*
G36*
X273080Y919840D02*
X267860D01*
Y910270D01*
X273080D01*
Y919840D01*
D02*
G37*
G36*
X265320D02*
X260100D01*
Y910270D01*
X265320D01*
Y919840D01*
D02*
G37*
G36*
X713660Y918890D02*
X708440D01*
Y909320D01*
X713660D01*
Y918890D01*
D02*
G37*
G36*
X705900D02*
X700680D01*
Y909320D01*
X705900D01*
Y918890D01*
D02*
G37*
G36*
X214517Y917310D02*
X212203D01*
X209967Y916711D01*
X207963Y915554D01*
X206326Y913917D01*
X205169Y911913D01*
X204570Y909677D01*
Y907363D01*
X205169Y905127D01*
X206326Y903123D01*
X207963Y901486D01*
X209967Y900329D01*
X212203Y899730D01*
X214517D01*
X216753Y900329D01*
X218757Y901486D01*
X220394Y903123D01*
X221551Y905127D01*
X222150Y907363D01*
Y909677D01*
X221551Y911913D01*
X220394Y913917D01*
X218757Y915554D01*
X216753Y916711D01*
X214517Y917310D01*
D02*
G37*
G36*
X406650Y907780D02*
X401430D01*
Y898210D01*
X406650D01*
Y907780D01*
D02*
G37*
G36*
X398890D02*
X393670D01*
Y898210D01*
X398890D01*
Y907780D01*
D02*
G37*
G36*
X273080Y907730D02*
X267860D01*
Y898160D01*
X273080D01*
Y907730D01*
D02*
G37*
G36*
X265320D02*
X260100D01*
Y898160D01*
X265320D01*
Y907730D01*
D02*
G37*
G36*
X782207Y913500D02*
X779893D01*
X777657Y912901D01*
X775653Y911744D01*
X774016Y910107D01*
X772859Y908103D01*
X772260Y905867D01*
Y903553D01*
X772859Y901317D01*
X774016Y899313D01*
X775653Y897676D01*
X777657Y896519D01*
X779893Y895920D01*
X782207D01*
X784443Y896519D01*
X786447Y897676D01*
X788084Y899313D01*
X789241Y901317D01*
X789840Y903553D01*
Y905867D01*
X789241Y908103D01*
X788084Y910107D01*
X786447Y911744D01*
X784443Y912901D01*
X782207Y913500D01*
D02*
G37*
G36*
X557430Y923290D02*
X555090D01*
X552829Y922684D01*
X550801Y921514D01*
X549146Y919859D01*
X547976Y917831D01*
X547370Y915570D01*
Y913230D01*
X547976Y910969D01*
X549146Y908941D01*
X550801Y907286D01*
X552829Y906116D01*
X555090Y905510D01*
X557430D01*
X559691Y906116D01*
X561719Y907286D01*
X563374Y908941D01*
X564282Y910515D01*
X577511D01*
X578848Y909178D01*
Y907826D01*
X576242D01*
Y886146D01*
X578848D01*
Y882868D01*
X579144Y881381D01*
X579986Y880121D01*
X581474Y878633D01*
X582734Y877791D01*
X584220Y877495D01*
X597831D01*
X618415Y856911D01*
Y848390D01*
X613010D01*
Y833310D01*
X631590D01*
Y848390D01*
X626185D01*
Y858520D01*
X625889Y860007D01*
X625047Y861267D01*
X602187Y884127D01*
X602077Y884200D01*
X601805Y885909D01*
X601991Y886146D01*
X607223D01*
Y892735D01*
X656334D01*
X656909Y892351D01*
X658395Y892055D01*
X723002D01*
X724489Y892351D01*
X725749Y893193D01*
X727917Y895361D01*
X728759Y896621D01*
X728876Y897210D01*
X731660D01*
Y918890D01*
X718680D01*
Y899825D01*
X713660D01*
Y906780D01*
X707170D01*
Y908050D01*
D01*
Y906780D01*
X700680D01*
Y899825D01*
X659777D01*
X659202Y900209D01*
X657715Y900505D01*
X607223D01*
Y907826D01*
X594243D01*
Y886535D01*
X594243Y886146D01*
X593338Y885265D01*
X590127D01*
X589222Y886146D01*
Y907826D01*
X586617D01*
Y910788D01*
X586321Y912274D01*
X585479Y913534D01*
X581867Y917147D01*
X580607Y917989D01*
X579120Y918285D01*
X564282D01*
X563374Y919859D01*
X561719Y921514D01*
X559691Y922684D01*
X557430Y923290D01*
D02*
G37*
G36*
X406650Y895670D02*
X401430D01*
Y886100D01*
X406650D01*
Y895670D01*
D02*
G37*
G36*
X398890D02*
X393670D01*
Y886100D01*
X398890D01*
Y895670D01*
D02*
G37*
G36*
X156240Y885550D02*
X151020D01*
Y875980D01*
X156240D01*
Y885550D01*
D02*
G37*
G36*
X148480D02*
X143260D01*
Y875980D01*
X148480D01*
Y885550D01*
D02*
G37*
G36*
X713660Y878890D02*
X700680D01*
Y871935D01*
X692861D01*
X692814Y872111D01*
X691644Y874139D01*
X689989Y875794D01*
X687961Y876964D01*
X685700Y877570D01*
X683360D01*
X681099Y876964D01*
X679071Y875794D01*
X677416Y874139D01*
X676246Y872111D01*
X675640Y869850D01*
Y867510D01*
X676246Y865249D01*
X677416Y863221D01*
X679071Y861566D01*
X681099Y860396D01*
X683360Y859790D01*
X685700D01*
X687961Y860396D01*
X689989Y861566D01*
X691644Y863221D01*
X692189Y864165D01*
X700680D01*
Y857210D01*
X703285D01*
Y819180D01*
X698100D01*
Y804100D01*
X716680D01*
Y819180D01*
X711055D01*
Y857210D01*
X713660D01*
Y878890D01*
D02*
G37*
G36*
X839500Y880470D02*
X834280D01*
Y870900D01*
X839500D01*
Y880470D01*
D02*
G37*
G36*
X831740D02*
X826520D01*
Y870900D01*
X831740D01*
Y880470D01*
D02*
G37*
G36*
X731660Y878890D02*
X726440D01*
Y869320D01*
X731660D01*
Y878890D01*
D02*
G37*
G36*
X723900D02*
X718680D01*
Y869320D01*
X723900D01*
Y878890D01*
D02*
G37*
G36*
X174240Y885550D02*
X161260D01*
Y863870D01*
X162027D01*
X162513Y862697D01*
X157243Y857427D01*
X156401Y856167D01*
X156105Y854680D01*
Y845550D01*
X143260D01*
Y823870D01*
X145975D01*
Y821765D01*
X73660D01*
X72173Y821469D01*
X70913Y820627D01*
X50703Y800417D01*
X49861Y799157D01*
X49565Y797670D01*
Y796020D01*
X46960D01*
Y774340D01*
X59940D01*
Y796020D01*
X59090D01*
X58564Y797290D01*
X75269Y813995D01*
X148372D01*
X149859Y814291D01*
X151119Y815133D01*
X152607Y816621D01*
X153449Y817881D01*
X153745Y819368D01*
Y823870D01*
X156105D01*
Y805489D01*
X150923Y800307D01*
X150081Y799047D01*
X149785Y797560D01*
Y792510D01*
X144380D01*
Y777430D01*
X162960D01*
Y792510D01*
X157555D01*
Y795951D01*
X162737Y801133D01*
X163579Y802393D01*
X163875Y803880D01*
Y823870D01*
X166480D01*
Y834710D01*
X167750D01*
D01*
X166480D01*
Y845550D01*
X163875D01*
Y853071D01*
X170497Y859693D01*
X171339Y860953D01*
X171635Y862440D01*
Y863870D01*
X174240D01*
Y871145D01*
X181208D01*
X182116Y869571D01*
X183771Y867916D01*
X185799Y866746D01*
X188060Y866140D01*
X190400D01*
X192661Y866746D01*
X194689Y867916D01*
X196344Y869571D01*
X197514Y871599D01*
X198120Y873860D01*
Y876200D01*
X197514Y878461D01*
X196344Y880489D01*
X194689Y882144D01*
X192661Y883314D01*
X190400Y883920D01*
X188060D01*
X185799Y883314D01*
X183771Y882144D01*
X182116Y880489D01*
X181208Y878915D01*
X174240D01*
Y885550D01*
D02*
G37*
G36*
X156240Y873440D02*
X151020D01*
Y863870D01*
X156240D01*
Y873440D01*
D02*
G37*
G36*
X148480D02*
X143260D01*
Y863870D01*
X148480D01*
Y873440D01*
D02*
G37*
G36*
X839500Y868360D02*
X834280D01*
Y858790D01*
X839500D01*
Y868360D01*
D02*
G37*
G36*
X831740D02*
X826520D01*
Y858790D01*
X831740D01*
Y868360D01*
D02*
G37*
G36*
X731660Y866780D02*
X726440D01*
Y857210D01*
X731660D01*
Y866780D01*
D02*
G37*
G36*
X723900D02*
X718680D01*
Y857210D01*
X723900D01*
Y866780D01*
D02*
G37*
G36*
X102757Y870320D02*
X100443D01*
X98207Y869721D01*
X96203Y868564D01*
X94566Y866927D01*
X93409Y864923D01*
X92810Y862687D01*
Y860373D01*
X93409Y858137D01*
X94566Y856133D01*
X96203Y854496D01*
X98207Y853339D01*
X100443Y852740D01*
X102757D01*
X104993Y853339D01*
X106997Y854496D01*
X108634Y856133D01*
X109791Y858137D01*
X110390Y860373D01*
Y862687D01*
X109791Y864923D01*
X108634Y866927D01*
X106997Y868564D01*
X104993Y869721D01*
X102757Y870320D01*
D02*
G37*
G36*
X904127Y866510D02*
X901813D01*
X899577Y865911D01*
X897573Y864754D01*
X895936Y863117D01*
X894779Y861113D01*
X894180Y858877D01*
Y856563D01*
X894779Y854327D01*
X895936Y852323D01*
X897573Y850686D01*
X899577Y849529D01*
X901813Y848930D01*
X904127D01*
X906363Y849529D01*
X908367Y850686D01*
X910004Y852323D01*
X911161Y854327D01*
X911760Y856563D01*
Y858877D01*
X911161Y861113D01*
X910004Y863117D01*
X908367Y864754D01*
X906363Y865911D01*
X904127Y866510D01*
D02*
G37*
G36*
X174240Y845550D02*
X169020D01*
Y835980D01*
X174240D01*
Y845550D01*
D02*
G37*
G36*
X664110Y847790D02*
X646530D01*
Y830210D01*
X664110D01*
Y847790D01*
D02*
G37*
G36*
X341530Y846520D02*
X323950D01*
Y828940D01*
X341530D01*
Y846520D01*
D02*
G37*
G36*
X547370Y834363D02*
Y826770D01*
X554963D01*
X554384Y828931D01*
X553214Y830959D01*
X551559Y832614D01*
X549531Y833784D01*
X547370Y834363D01*
D02*
G37*
G36*
X544830D02*
X542669Y833784D01*
X540641Y832614D01*
X538986Y830959D01*
X537816Y828931D01*
X537237Y826770D01*
X544830D01*
Y834363D01*
D02*
G37*
G36*
X41940Y836020D02*
X36720D01*
Y826450D01*
X41940D01*
Y836020D01*
D02*
G37*
G36*
X34180D02*
X28960D01*
Y826450D01*
X34180D01*
Y836020D01*
D02*
G37*
G36*
X174240Y833440D02*
X169020D01*
Y823870D01*
X174240D01*
Y833440D01*
D02*
G37*
G36*
X554963Y824230D02*
X547370D01*
Y816637D01*
X549531Y817216D01*
X551559Y818386D01*
X553214Y820041D01*
X554384Y822069D01*
X554963Y824230D01*
D02*
G37*
G36*
X544830D02*
X537237D01*
X537816Y822069D01*
X538986Y820041D01*
X540641Y818386D01*
X542669Y817216D01*
X544830Y816637D01*
Y824230D01*
D02*
G37*
G36*
X41940Y823910D02*
X36720D01*
Y814340D01*
X41940D01*
Y823910D01*
D02*
G37*
G36*
X34180D02*
X28960D01*
Y814340D01*
X34180D01*
Y823910D01*
D02*
G37*
G36*
X857500Y880470D02*
X844520D01*
Y858790D01*
X846693D01*
X846946Y857520D01*
X839263Y849837D01*
X838421Y848577D01*
X838125Y847090D01*
Y840470D01*
X826520D01*
Y833515D01*
X763590D01*
X762103Y833219D01*
X760843Y832377D01*
X749093Y820627D01*
X748251Y819367D01*
X747955Y817880D01*
Y814100D01*
X742933D01*
X742016Y815149D01*
X742140Y816162D01*
X742694Y816481D01*
X744349Y818136D01*
X745519Y820164D01*
X746125Y822425D01*
Y824765D01*
X745519Y827026D01*
X744349Y829054D01*
X742694Y830709D01*
X740666Y831879D01*
X738405Y832485D01*
X736065D01*
X733804Y831879D01*
X731776Y830709D01*
X730121Y829054D01*
X728951Y827026D01*
X728345Y824765D01*
Y822425D01*
X728951Y820164D01*
X730121Y818136D01*
X731776Y816481D01*
X733804Y815311D01*
X733985Y815262D01*
Y808048D01*
X734281Y806561D01*
X735123Y805301D01*
X736611Y803813D01*
X737871Y802971D01*
X739358Y802675D01*
X742550D01*
Y799020D01*
X761130D01*
Y814100D01*
X755725D01*
Y816271D01*
X765199Y825745D01*
X826520D01*
Y818790D01*
X838125D01*
Y775230D01*
X832220D01*
Y759000D01*
X832220Y758650D01*
Y757730D01*
X832220Y757380D01*
Y741150D01*
X851800D01*
Y745555D01*
X861787D01*
X862696Y743981D01*
X864351Y742326D01*
X866379Y741156D01*
X868640Y740550D01*
X870980D01*
X873241Y741156D01*
X875269Y742326D01*
X876924Y743981D01*
X878094Y746009D01*
X878700Y748270D01*
Y750610D01*
X878094Y752871D01*
X876924Y754899D01*
X875269Y756554D01*
X873241Y757724D01*
X870980Y758330D01*
X868640D01*
X866379Y757724D01*
X864351Y756554D01*
X862696Y754899D01*
X861787Y753325D01*
X851800D01*
Y757380D01*
X851800Y757730D01*
Y758650D01*
X851800Y759000D01*
Y775230D01*
X845895D01*
Y818790D01*
X857500D01*
Y825745D01*
X959461D01*
X961983Y823223D01*
X961497Y822050D01*
X961360D01*
Y800370D01*
X974340D01*
Y822050D01*
X971735D01*
Y822850D01*
X971439Y824337D01*
X970597Y825597D01*
X963817Y832377D01*
X962557Y833219D01*
X961070Y833515D01*
X857500D01*
Y840470D01*
X845895D01*
Y845481D01*
X853757Y853343D01*
X854599Y854603D01*
X854895Y856090D01*
Y858790D01*
X857500D01*
Y880470D01*
D02*
G37*
G36*
X956340Y822050D02*
X951120D01*
Y812480D01*
X956340D01*
Y822050D01*
D02*
G37*
G36*
X948580D02*
X943360D01*
Y812480D01*
X948580D01*
Y822050D01*
D02*
G37*
G36*
X956340Y809940D02*
X951120D01*
Y800370D01*
X956340D01*
Y809940D01*
D02*
G37*
G36*
X948580D02*
X943360D01*
Y800370D01*
X948580D01*
Y809940D01*
D02*
G37*
G36*
X789840Y813500D02*
X772260D01*
Y795920D01*
X789840D01*
Y813500D01*
D02*
G37*
G36*
X956340Y782050D02*
X943360D01*
Y775095D01*
X937982D01*
X937074Y776669D01*
X935419Y778324D01*
X933391Y779494D01*
X931130Y780100D01*
X928790D01*
X926529Y779494D01*
X924501Y778324D01*
X922846Y776669D01*
X921676Y774641D01*
X921070Y772380D01*
Y770040D01*
X921676Y767779D01*
X922846Y765751D01*
X924501Y764096D01*
X926529Y762926D01*
X928790Y762320D01*
X931130D01*
X933391Y762926D01*
X935419Y764096D01*
X937074Y765751D01*
X937982Y767325D01*
X943360D01*
Y760370D01*
X943717D01*
X944203Y759197D01*
X922658Y737652D01*
X921816Y736392D01*
X921521Y734905D01*
Y718864D01*
X916115D01*
Y703784D01*
X934695D01*
Y718864D01*
X929290D01*
Y733296D01*
X952597Y756603D01*
X953439Y757863D01*
X953735Y759350D01*
Y760370D01*
X956340D01*
Y782050D01*
D02*
G37*
G36*
X974340D02*
X969120D01*
Y772480D01*
X974340D01*
Y782050D01*
D02*
G37*
G36*
X966580D02*
X961360D01*
Y772480D01*
X966580D01*
Y782050D01*
D02*
G37*
G36*
X974340Y769940D02*
X969120D01*
Y760370D01*
X974340D01*
Y769940D01*
D02*
G37*
G36*
X966580D02*
X961360D01*
Y760370D01*
X966580D01*
Y769940D01*
D02*
G37*
G36*
X911760Y766510D02*
X894180D01*
Y748930D01*
X911760D01*
Y766510D01*
D02*
G37*
G36*
X59940Y836020D02*
X46960D01*
Y814340D01*
X47727D01*
X48213Y813167D01*
X36491Y801445D01*
X27940D01*
X26453Y801149D01*
X25193Y800307D01*
X24351Y799047D01*
X24055Y797560D01*
Y796315D01*
X23805Y795058D01*
Y750820D01*
X24101Y749333D01*
X24943Y748073D01*
X29135Y743881D01*
Y735860D01*
X22976D01*
Y719630D01*
X22976Y719280D01*
Y718360D01*
X22976Y718010D01*
Y701780D01*
X42556D01*
Y706045D01*
X55477D01*
X56386Y704471D01*
X58041Y702816D01*
X60069Y701646D01*
X62330Y701040D01*
X64670D01*
X66931Y701646D01*
X68959Y702816D01*
X70614Y704471D01*
X71784Y706499D01*
X72390Y708760D01*
Y711100D01*
X71784Y713361D01*
X70614Y715389D01*
X68959Y717044D01*
X66931Y718214D01*
X64670Y718820D01*
X62330D01*
X60069Y718214D01*
X58041Y717044D01*
X56386Y715389D01*
X55477Y713815D01*
X42556D01*
Y718010D01*
X42556Y718360D01*
Y719280D01*
X42556Y719630D01*
Y735860D01*
X36905D01*
Y745490D01*
X36609Y746977D01*
X35767Y748237D01*
X31575Y752429D01*
Y768926D01*
X32262Y769290D01*
X32845Y769382D01*
X55055Y747171D01*
X56315Y746329D01*
X57802Y746033D01*
X66656D01*
Y742378D01*
X85236D01*
Y757458D01*
X79831D01*
Y771504D01*
X81405Y772412D01*
X83060Y774067D01*
X84230Y776095D01*
X84836Y778356D01*
Y780696D01*
X84230Y782957D01*
X83060Y784985D01*
X81405Y786640D01*
X79377Y787810D01*
X77116Y788416D01*
X74776D01*
X72515Y787810D01*
X70487Y786640D01*
X68832Y784985D01*
X67662Y782957D01*
X67056Y780696D01*
Y778356D01*
X67662Y776095D01*
X68832Y774067D01*
X70487Y772412D01*
X72061Y771504D01*
Y757458D01*
X66656D01*
Y753803D01*
X59411D01*
X40144Y773070D01*
X40670Y774340D01*
X41940D01*
Y795906D01*
X56197Y810163D01*
X57039Y811423D01*
X57335Y812910D01*
Y814340D01*
X59940D01*
Y836020D01*
D02*
G37*
G36*
X785810Y778190D02*
X781370D01*
X777015Y777324D01*
X772913Y775625D01*
X769222Y773158D01*
X766082Y770018D01*
X763615Y766327D01*
X761916Y762225D01*
X761050Y757870D01*
Y753430D01*
X761916Y749075D01*
X763615Y744973D01*
X766082Y741282D01*
X769222Y738142D01*
X772913Y735675D01*
X777015Y733976D01*
X781370Y733110D01*
X785810D01*
X790165Y733976D01*
X794267Y735675D01*
X797958Y738142D01*
X801098Y741282D01*
X803565Y744973D01*
X805264Y749075D01*
X806130Y753430D01*
Y757870D01*
X805264Y762225D01*
X803565Y766327D01*
X801098Y770018D01*
X797958Y773158D01*
X794267Y775625D01*
X790165Y777324D01*
X785810Y778190D01*
D02*
G37*
G36*
X214310D02*
X209870D01*
X205515Y777324D01*
X201413Y775625D01*
X197722Y773158D01*
X194582Y770018D01*
X192115Y766327D01*
X190416Y762225D01*
X189550Y757870D01*
Y753430D01*
X190416Y749075D01*
X192115Y744973D01*
X194582Y741282D01*
X197722Y738142D01*
X201413Y735675D01*
X205515Y733976D01*
X209870Y733110D01*
X214310D01*
X218665Y733976D01*
X222767Y735675D01*
X226458Y738142D01*
X229598Y741282D01*
X232065Y744973D01*
X233764Y749075D01*
X234630Y753430D01*
Y757870D01*
X233764Y762225D01*
X232065Y766327D01*
X229598Y770018D01*
X226458Y773158D01*
X222767Y775625D01*
X218665Y777324D01*
X214310Y778190D01*
D02*
G37*
G36*
X785810Y393380D02*
X781370D01*
X777015Y392514D01*
X772913Y390815D01*
X769222Y388348D01*
X766082Y385208D01*
X763615Y381517D01*
X761916Y377415D01*
X761050Y373060D01*
Y368620D01*
X761916Y364265D01*
X763615Y360163D01*
X766082Y356472D01*
X769222Y353332D01*
X772913Y350865D01*
X777015Y349166D01*
X781370Y348300D01*
X785810D01*
X790165Y349166D01*
X794267Y350865D01*
X797958Y353332D01*
X801098Y356472D01*
X803565Y360163D01*
X805264Y364265D01*
X806130Y368620D01*
Y373060D01*
X805264Y377415D01*
X803565Y381517D01*
X801098Y385208D01*
X797958Y388348D01*
X794267Y390815D01*
X790165Y392514D01*
X785810Y393380D01*
D02*
G37*
G36*
X214310D02*
X209870D01*
X205515Y392514D01*
X201413Y390815D01*
X197722Y388348D01*
X194582Y385208D01*
X192115Y381517D01*
X190416Y377415D01*
X189550Y373060D01*
Y368620D01*
X190416Y364265D01*
X192115Y360163D01*
X194582Y356472D01*
X197722Y353332D01*
X201413Y350865D01*
X205515Y349166D01*
X209870Y348300D01*
X214310D01*
X218665Y349166D01*
X222767Y350865D01*
X226458Y353332D01*
X229598Y356472D01*
X232065Y360163D01*
X233764Y364265D01*
X234630Y368620D01*
Y373060D01*
X233764Y377415D01*
X232065Y381517D01*
X229598Y385208D01*
X226458Y388348D01*
X222767Y390815D01*
X218665Y392514D01*
X214310Y393380D01*
D02*
G37*
G36*
X382020Y396240D02*
X379680D01*
X377419Y395634D01*
X375391Y394464D01*
X373736Y392809D01*
X372566Y390781D01*
X371960Y388520D01*
Y386180D01*
X372566Y383919D01*
X373736Y381891D01*
X375391Y380236D01*
X376965Y379328D01*
Y348382D01*
X375391Y347474D01*
X373736Y345819D01*
X372566Y343791D01*
X371960Y341530D01*
Y339190D01*
X372566Y336929D01*
X373736Y334901D01*
X375391Y333246D01*
X377419Y332076D01*
X379680Y331470D01*
X382020D01*
X384281Y332076D01*
X386309Y333246D01*
X387964Y334901D01*
X389134Y336929D01*
X389740Y339190D01*
Y341530D01*
X389134Y343791D01*
X387964Y345819D01*
X386309Y347474D01*
X384735Y348382D01*
Y379328D01*
X386309Y380236D01*
X387964Y381891D01*
X389134Y383919D01*
X389740Y386180D01*
Y388520D01*
X389134Y390781D01*
X387964Y392809D01*
X386309Y394464D01*
X384281Y395634D01*
X382020Y396240D01*
D02*
G37*
G36*
X579120Y320013D02*
X576959Y319434D01*
X574931Y318264D01*
X573276Y316609D01*
X572106Y314581D01*
X571527Y312420D01*
X579120D01*
Y320013D01*
D02*
G37*
G36*
X589253Y309880D02*
X581660D01*
Y302287D01*
X583821Y302866D01*
X585849Y304036D01*
X587504Y305691D01*
X588674Y307719D01*
X589253Y309880D01*
D02*
G37*
G36*
X579120D02*
X571527D01*
X572106Y307719D01*
X573276Y305691D01*
X574931Y304036D01*
X576959Y302866D01*
X579120Y302287D01*
Y309880D01*
D02*
G37*
G36*
X201690Y309640D02*
X184390D01*
Y292340D01*
X201690D01*
Y309640D01*
D02*
G37*
G36*
X578870Y297180D02*
X576530D01*
X574269Y296574D01*
X572241Y295404D01*
X570586Y293749D01*
X569678Y292175D01*
X494282D01*
X493374Y293749D01*
X491719Y295404D01*
X489691Y296574D01*
X487430Y297180D01*
X485090D01*
X482829Y296574D01*
X480801Y295404D01*
X479146Y293749D01*
X477976Y291721D01*
X477370Y289460D01*
Y287120D01*
X477976Y284859D01*
X479146Y282831D01*
X480801Y281176D01*
X482829Y280006D01*
X485090Y279400D01*
X487430D01*
X489691Y280006D01*
X491719Y281176D01*
X493374Y282831D01*
X494282Y284405D01*
X569678D01*
X570586Y282831D01*
X572241Y281176D01*
X574269Y280006D01*
X576530Y279400D01*
X578870D01*
X581131Y280006D01*
X583159Y281176D01*
X584814Y282831D01*
X585984Y284859D01*
X586590Y287120D01*
Y289460D01*
X585984Y291721D01*
X584814Y293749D01*
X583159Y295404D01*
X581131Y296574D01*
X578870Y297180D01*
D02*
G37*
G36*
X485040Y378460D02*
X482700D01*
X480439Y377854D01*
X478411Y376684D01*
X476756Y375029D01*
X475586Y373001D01*
X474980Y370740D01*
Y368400D01*
X475586Y366139D01*
X476756Y364111D01*
X478411Y362456D01*
X480439Y361286D01*
X482700Y360680D01*
X485040D01*
X487301Y361286D01*
X489329Y362456D01*
X490984Y364111D01*
X491893Y365685D01*
X558311D01*
X647585Y276411D01*
X647211Y275518D01*
X646971Y275229D01*
X644749D01*
X642488Y274623D01*
X641741Y274192D01*
X563937Y351997D01*
X562677Y352839D01*
X561190Y353135D01*
X501973D01*
X501064Y354709D01*
X499409Y356364D01*
X497381Y357534D01*
X495120Y358140D01*
X492780D01*
X490519Y357534D01*
X488491Y356364D01*
X486836Y354709D01*
X485666Y352681D01*
X485060Y350420D01*
Y348080D01*
X485666Y345819D01*
X486836Y343791D01*
X488491Y342136D01*
X490519Y340966D01*
X492780Y340360D01*
X495120D01*
X497381Y340966D01*
X499409Y342136D01*
X501064Y343791D01*
X501973Y345365D01*
X559581D01*
X584060Y320886D01*
X584017Y320691D01*
X582530Y319780D01*
X581660Y320013D01*
Y312420D01*
X589253D01*
X589020Y313290D01*
X589931Y314778D01*
X590126Y314820D01*
X637115Y267831D01*
X637029Y267510D01*
Y265169D01*
X637635Y262908D01*
X638805Y260881D01*
X640461Y259225D01*
X642488Y258055D01*
X644749Y257449D01*
X647090D01*
X649351Y258055D01*
X651378Y259225D01*
X653033Y260881D01*
X654203Y262908D01*
X654210Y262934D01*
X655525D01*
X655776Y261999D01*
X656946Y259971D01*
X658601Y258316D01*
X660629Y257146D01*
X662890Y256540D01*
X665230D01*
X667491Y257146D01*
X669519Y258316D01*
X671174Y259971D01*
X672344Y261999D01*
X672950Y264260D01*
Y266600D01*
X672344Y268861D01*
X671174Y270889D01*
X669519Y272544D01*
X667491Y273714D01*
X665230Y274320D01*
X662890D01*
X661134Y273850D01*
X562667Y372317D01*
X561407Y373159D01*
X559920Y373455D01*
X491893D01*
X490984Y375029D01*
X489329Y376684D01*
X487301Y377854D01*
X485040Y378460D01*
D02*
G37*
G36*
X596650Y273050D02*
X594310D01*
X592049Y272444D01*
X590021Y271274D01*
X588366Y269619D01*
X587458Y268045D01*
X490333D01*
X488847Y267749D01*
X487586Y266907D01*
X483558Y262879D01*
X482716Y261619D01*
X482421Y260132D01*
Y259508D01*
X480801Y258574D01*
X479146Y256919D01*
X477976Y254891D01*
X477370Y252630D01*
Y250290D01*
X477976Y248029D01*
X479146Y246001D01*
X480801Y244346D01*
X482829Y243176D01*
X485090Y242570D01*
X487430D01*
X489691Y243176D01*
X491719Y244346D01*
X493374Y246001D01*
X494544Y248029D01*
X495150Y250290D01*
Y252630D01*
X494544Y254891D01*
X493374Y256919D01*
X491878Y258415D01*
X491626Y259043D01*
X491613Y259142D01*
X492630Y260275D01*
X587458D01*
X588366Y258701D01*
X590021Y257046D01*
X592049Y255876D01*
X594310Y255270D01*
X596650D01*
X598911Y255876D01*
X600939Y257046D01*
X602594Y258701D01*
X603764Y260729D01*
X604370Y262990D01*
Y265330D01*
X603764Y267591D01*
X602594Y269619D01*
X600939Y271274D01*
X598911Y272444D01*
X596650Y273050D01*
D02*
G37*
G36*
X194310Y258805D02*
Y251460D01*
X201655D01*
X201101Y253529D01*
X199962Y255501D01*
X198351Y257112D01*
X196379Y258251D01*
X194310Y258805D01*
D02*
G37*
G36*
X191770D02*
X189701Y258251D01*
X187729Y257112D01*
X186118Y255501D01*
X184979Y253529D01*
X184425Y251460D01*
X191770D01*
Y258805D01*
D02*
G37*
G36*
X201655Y248920D02*
X194310D01*
Y241575D01*
X196379Y242129D01*
X198351Y243268D01*
X199962Y244879D01*
X201101Y246851D01*
X201655Y248920D01*
D02*
G37*
G36*
X191770D02*
X184425D01*
X184979Y246851D01*
X186118Y244879D01*
X187729Y243268D01*
X189701Y242129D01*
X191770Y241575D01*
Y248920D01*
D02*
G37*
G36*
X608434Y249147D02*
Y241554D01*
X616027D01*
X615448Y243715D01*
X614278Y245743D01*
X612623Y247398D01*
X610595Y248568D01*
X608434Y249147D01*
D02*
G37*
G36*
X605894D02*
X603733Y248568D01*
X601705Y247398D01*
X600050Y245743D01*
X598880Y243715D01*
X598301Y241554D01*
X605894D01*
Y249147D01*
D02*
G37*
G36*
X575414Y242035D02*
Y234442D01*
X583007D01*
X582428Y236603D01*
X581258Y238631D01*
X579603Y240286D01*
X577575Y241456D01*
X575414Y242035D01*
D02*
G37*
G36*
X572874D02*
X570713Y241456D01*
X568685Y240286D01*
X567030Y238631D01*
X565860Y236603D01*
X565281Y234442D01*
X572874D01*
Y242035D01*
D02*
G37*
G36*
X219579Y284240D02*
X217301D01*
X215101Y283650D01*
X213129Y282512D01*
X211518Y280901D01*
X210380Y278929D01*
X209790Y276729D01*
Y274451D01*
X210380Y272251D01*
X211518Y270279D01*
X213129Y268668D01*
X214555Y267845D01*
Y256390D01*
X214851Y254903D01*
X215693Y253643D01*
X230783Y238553D01*
X232043Y237711D01*
X233530Y237415D01*
X254718D01*
X255626Y235841D01*
X257281Y234186D01*
X259309Y233016D01*
X261570Y232410D01*
X263910D01*
X266171Y233016D01*
X268199Y234186D01*
X269854Y235841D01*
X271024Y237869D01*
X271630Y240130D01*
Y242470D01*
X271024Y244731D01*
X269854Y246759D01*
X268199Y248414D01*
X266171Y249584D01*
X263910Y250190D01*
X261570D01*
X259309Y249584D01*
X257281Y248414D01*
X255626Y246759D01*
X254718Y245185D01*
X235139D01*
X222325Y257999D01*
Y267845D01*
X223751Y268668D01*
X225362Y270279D01*
X226500Y272251D01*
X227090Y274451D01*
Y276729D01*
X226500Y278929D01*
X225362Y280901D01*
X223751Y282512D01*
X221779Y283650D01*
X219579Y284240D01*
D02*
G37*
G36*
X616027Y239014D02*
X608434D01*
Y231421D01*
X610595Y232000D01*
X612623Y233170D01*
X614278Y234825D01*
X615448Y236853D01*
X616027Y239014D01*
D02*
G37*
G36*
X605894D02*
X598301D01*
X598880Y236853D01*
X600050Y234825D01*
X601705Y233170D01*
X603733Y232000D01*
X605894Y231421D01*
Y239014D01*
D02*
G37*
G36*
X494134Y238733D02*
Y231140D01*
X501727D01*
X501148Y233301D01*
X499978Y235329D01*
X498323Y236984D01*
X496295Y238154D01*
X494134Y238733D01*
D02*
G37*
G36*
X491594D02*
X489433Y238154D01*
X487405Y236984D01*
X485750Y235329D01*
X484580Y233301D01*
X484001Y231140D01*
X491594D01*
Y238733D01*
D02*
G37*
G36*
X501727Y228600D02*
X494134D01*
Y221007D01*
X496295Y221586D01*
X498323Y222756D01*
X499978Y224411D01*
X501148Y226439D01*
X501727Y228600D01*
D02*
G37*
G36*
X491594D02*
X484001D01*
X484580Y226439D01*
X485750Y224411D01*
X487405Y222756D01*
X489433Y221586D01*
X491594Y221007D01*
Y228600D01*
D02*
G37*
G36*
X317604Y225271D02*
Y217678D01*
X325197D01*
X324618Y219839D01*
X323448Y221867D01*
X321793Y223522D01*
X319765Y224692D01*
X317604Y225271D01*
D02*
G37*
G36*
X315064D02*
X312903Y224692D01*
X310875Y223522D01*
X309220Y221867D01*
X308050Y219839D01*
X307471Y217678D01*
X315064D01*
Y225271D01*
D02*
G37*
G36*
X325197Y215138D02*
X317604D01*
Y207545D01*
X319765Y208124D01*
X321793Y209294D01*
X323448Y210949D01*
X324618Y212977D01*
X325197Y215138D01*
D02*
G37*
G36*
X315064D02*
X307471D01*
X308050Y212977D01*
X309220Y210949D01*
X310875Y209294D01*
X312903Y208124D01*
X315064Y207545D01*
Y215138D01*
D02*
G37*
G36*
X927220Y240980D02*
X922780D01*
X918425Y240114D01*
X914323Y238415D01*
X910632Y235948D01*
X907492Y232808D01*
X905025Y229117D01*
X903326Y225015D01*
X902460Y220660D01*
Y216220D01*
X903326Y211865D01*
X905025Y207763D01*
X907492Y204072D01*
X910632Y200932D01*
X914323Y198465D01*
X918425Y196766D01*
X922780Y195900D01*
X927220D01*
X931575Y196766D01*
X935677Y198465D01*
X939368Y200932D01*
X942508Y204072D01*
X944975Y207763D01*
X946674Y211865D01*
X947540Y216220D01*
Y220660D01*
X946674Y225015D01*
X944975Y229117D01*
X942508Y232808D01*
X939368Y235948D01*
X935677Y238415D01*
X931575Y240114D01*
X927220Y240980D01*
D02*
G37*
G36*
X77150D02*
X72710D01*
X68355Y240114D01*
X64253Y238415D01*
X60562Y235948D01*
X57422Y232808D01*
X54955Y229117D01*
X53256Y225015D01*
X52390Y220660D01*
Y216220D01*
X53256Y211865D01*
X54955Y207763D01*
X57422Y204072D01*
X60562Y200932D01*
X64253Y198465D01*
X68355Y196766D01*
X72710Y195900D01*
X77150D01*
X81505Y196766D01*
X85607Y198465D01*
X89298Y200932D01*
X92438Y204072D01*
X94905Y207763D01*
X96604Y211865D01*
X97470Y216220D01*
Y220660D01*
X96604Y225015D01*
X94905Y229117D01*
X92438Y232808D01*
X89298Y235948D01*
X85607Y238415D01*
X81505Y240114D01*
X77150Y240980D01*
D02*
G37*
G36*
X537210Y187933D02*
Y180340D01*
X544803D01*
X544224Y182501D01*
X543054Y184529D01*
X541399Y186184D01*
X539371Y187354D01*
X537210Y187933D01*
D02*
G37*
G36*
X534670D02*
X532509Y187354D01*
X530481Y186184D01*
X528826Y184529D01*
X527656Y182501D01*
X527077Y180340D01*
X534670D01*
Y187933D01*
D02*
G37*
G36*
X679350Y217170D02*
X677010D01*
X674749Y216564D01*
X672721Y215394D01*
X671066Y213739D01*
X669896Y211711D01*
X669290Y209450D01*
Y207110D01*
X669896Y204849D01*
X671066Y202821D01*
X672721Y201166D01*
X673547Y200689D01*
X673717Y199150D01*
X668647Y194081D01*
X667805Y192821D01*
X667510Y191334D01*
Y191266D01*
X667129Y191164D01*
X665101Y189994D01*
X663446Y188339D01*
X662276Y186311D01*
X661670Y184050D01*
Y181710D01*
X662276Y179449D01*
X663446Y177421D01*
X665101Y175766D01*
X667129Y174596D01*
X669390Y173990D01*
X671730D01*
X673991Y174596D01*
X676019Y175766D01*
X677674Y177421D01*
X678844Y179449D01*
X679450Y181710D01*
Y184050D01*
X678844Y186311D01*
X677674Y188339D01*
X676681Y189331D01*
X676583Y191030D01*
X680927Y195373D01*
X681769Y196633D01*
X682065Y198120D01*
Y200257D01*
X683639Y201166D01*
X685294Y202821D01*
X686464Y204849D01*
X687070Y207110D01*
Y209450D01*
X686464Y211711D01*
X685294Y213739D01*
X683639Y215394D01*
X681611Y216564D01*
X679350Y217170D01*
D02*
G37*
G36*
X544803Y177800D02*
X537210D01*
Y170207D01*
X539371Y170786D01*
X541399Y171956D01*
X543054Y173611D01*
X544224Y175639D01*
X544803Y177800D01*
D02*
G37*
G36*
X689775Y160230D02*
X687065D01*
X684448Y159529D01*
X682102Y158174D01*
X680186Y156258D01*
X678831Y153912D01*
X678130Y151295D01*
Y148585D01*
X678831Y145968D01*
X680186Y143622D01*
X682102Y141706D01*
X684448Y140351D01*
X687065Y139650D01*
X689775D01*
X692392Y140351D01*
X694738Y141706D01*
X696654Y143622D01*
X698009Y145968D01*
X698710Y148585D01*
Y151295D01*
X698009Y153912D01*
X696654Y156258D01*
X694738Y158174D01*
X692392Y159529D01*
X689775Y160230D01*
D02*
G37*
G36*
X673310D02*
X652730D01*
Y139650D01*
X673310D01*
Y160230D01*
D02*
G37*
G36*
X538480Y140943D02*
Y133350D01*
X546073D01*
X545494Y135511D01*
X544324Y137539D01*
X542669Y139194D01*
X540641Y140364D01*
X538480Y140943D01*
D02*
G37*
G36*
X535940D02*
X533779Y140364D01*
X531751Y139194D01*
X530096Y137539D01*
X528926Y135511D01*
X528347Y133350D01*
X535940D01*
Y140943D01*
D02*
G37*
G36*
X546073Y130810D02*
X538480D01*
Y123217D01*
X540641Y123796D01*
X542669Y124966D01*
X544324Y126621D01*
X545494Y128649D01*
X546073Y130810D01*
D02*
G37*
G36*
X535940D02*
X528347D01*
X528926Y128649D01*
X530096Y126621D01*
X531751Y124966D01*
X533779Y123796D01*
X535940Y123217D01*
Y130810D01*
D02*
G37*
G36*
X488950Y77443D02*
Y69850D01*
X496543D01*
X495964Y72011D01*
X494794Y74039D01*
X493139Y75694D01*
X491111Y76864D01*
X488950Y77443D01*
D02*
G37*
G36*
X486410D02*
X484249Y76864D01*
X482221Y75694D01*
X480566Y74039D01*
X479396Y72011D01*
X478817Y69850D01*
X486410D01*
Y77443D01*
D02*
G37*
G36*
X578712Y75000D02*
X576688D01*
X574732Y74476D01*
X572978Y73464D01*
X571547Y72032D01*
X570534Y70278D01*
X570010Y68322D01*
Y66298D01*
X570534Y64342D01*
X571547Y62588D01*
X572978Y61157D01*
X574732Y60144D01*
X576688Y59620D01*
X578712D01*
X580668Y60144D01*
X582422Y61157D01*
X583853Y62588D01*
X584866Y64342D01*
X585390Y66298D01*
Y68322D01*
X584866Y70278D01*
X583853Y72032D01*
X582422Y73464D01*
X580668Y74476D01*
X578712Y75000D01*
D02*
G37*
G36*
X529912D02*
X527888D01*
X525932Y74476D01*
X524178Y73464D01*
X522747Y72032D01*
X521734Y70278D01*
X521210Y68322D01*
Y66298D01*
X521734Y64342D01*
X522747Y62588D01*
X524178Y61157D01*
X525932Y60144D01*
X527888Y59620D01*
X529912D01*
X531868Y60144D01*
X533622Y61157D01*
X535053Y62588D01*
X536066Y64342D01*
X536590Y66298D01*
Y68322D01*
X536066Y70278D01*
X535053Y72032D01*
X533622Y73464D01*
X531868Y74476D01*
X529912Y75000D01*
D02*
G37*
G36*
X464700Y44480D02*
X455780D01*
Y35560D01*
X464700D01*
Y44480D01*
D02*
G37*
G36*
X453240D02*
X444320D01*
Y35560D01*
X453240D01*
Y44480D01*
D02*
G37*
G36*
X927220Y56830D02*
X922780D01*
X918425Y55964D01*
X914323Y54265D01*
X910632Y51798D01*
X907492Y48658D01*
X905025Y44967D01*
X903326Y40865D01*
X902460Y36510D01*
Y32070D01*
X903326Y27715D01*
X905025Y23613D01*
X907492Y19922D01*
X910632Y16782D01*
X914323Y14315D01*
X918425Y12616D01*
X922780Y11750D01*
X927220D01*
X931575Y12616D01*
X935677Y14315D01*
X939368Y16782D01*
X942508Y19922D01*
X944975Y23613D01*
X946674Y27715D01*
X947540Y32070D01*
Y36510D01*
X946674Y40865D01*
X944975Y44967D01*
X942508Y48658D01*
X939368Y51798D01*
X935677Y54265D01*
X931575Y55964D01*
X927220Y56830D01*
D02*
G37*
G36*
X77150D02*
X72710D01*
X68355Y55964D01*
X64253Y54265D01*
X60562Y51798D01*
X57422Y48658D01*
X54955Y44967D01*
X53256Y40865D01*
X52390Y36510D01*
Y32070D01*
X53256Y27715D01*
X54955Y23613D01*
X57422Y19922D01*
X60562Y16782D01*
X64253Y14315D01*
X68355Y12616D01*
X72710Y11750D01*
X77150D01*
X81505Y12616D01*
X85607Y14315D01*
X89298Y16782D01*
X92438Y19922D01*
X94905Y23613D01*
X96604Y27715D01*
X97470Y32070D01*
Y36510D01*
X96604Y40865D01*
X94905Y44967D01*
X92438Y48658D01*
X89298Y51798D01*
X85607Y54265D01*
X81505Y55964D01*
X77150Y56830D01*
D02*
G37*
G36*
X228130Y92499D02*
X188130D01*
X183711Y92064D01*
X179463Y90775D01*
X175547Y88682D01*
X172115Y85865D01*
X169298Y82433D01*
X167205Y78517D01*
X165916Y74269D01*
X165481Y69850D01*
X165916Y65431D01*
X167205Y61183D01*
X169298Y57267D01*
X172115Y53835D01*
X175547Y51018D01*
X179463Y48925D01*
X183711Y47636D01*
X188130Y47201D01*
X228130D01*
X232549Y47636D01*
X236797Y48925D01*
X240713Y51018D01*
X244145Y53835D01*
X246962Y57267D01*
X249055Y61183D01*
X250310Y65318D01*
X251858D01*
Y19091D01*
X252203Y17357D01*
X253185Y15886D01*
X255417Y13655D01*
X256887Y12672D01*
X258622Y12327D01*
X331813D01*
X332348Y11401D01*
X334003Y9746D01*
X336030Y8575D01*
X338291Y7969D01*
X340632D01*
X342893Y8575D01*
X344920Y9746D01*
X346576Y11401D01*
X347746Y13428D01*
X348352Y15689D01*
Y18030D01*
X347746Y20291D01*
X346576Y22318D01*
X344920Y23973D01*
X342893Y25143D01*
X340632Y25749D01*
X338291D01*
X336030Y25143D01*
X334003Y23973D01*
X332348Y22318D01*
X331813Y21391D01*
X260922D01*
Y68362D01*
X260577Y70097D01*
X259595Y71567D01*
X259595Y71567D01*
X258107Y73055D01*
X256637Y74037D01*
X254902Y74382D01*
X250310D01*
X249055Y78517D01*
X246962Y82433D01*
X244145Y85865D01*
X240713Y88682D01*
X236797Y90775D01*
X232549Y92064D01*
X228130Y92499D01*
D02*
G37*
G36*
X698710Y97870D02*
X689690D01*
Y88850D01*
X689775D01*
X692392Y89551D01*
X694738Y90906D01*
X696654Y92822D01*
X698009Y95168D01*
X698710Y97785D01*
Y97870D01*
D02*
G37*
G36*
X687150D02*
X678130D01*
Y97785D01*
X678831Y95168D01*
X680186Y92822D01*
X682102Y90906D01*
X684448Y89551D01*
X687065Y88850D01*
X687150D01*
Y97870D01*
D02*
G37*
%LPD*%
D17*
X218440Y256390D02*
Y275590D01*
Y256390D02*
X233530Y241300D01*
X804020Y788560D02*
X821690Y770890D01*
X823178Y735330D02*
X868680D01*
X821690Y736818D02*
Y770890D01*
Y736818D02*
X823178Y735330D01*
X644101Y266339D02*
X645919D01*
X561190Y349250D02*
X644101Y266339D01*
X671394Y183714D02*
Y191334D01*
X678180Y198120D01*
Y208280D01*
X670560Y182880D02*
X671394Y183714D01*
X648657Y200048D02*
X656590Y207981D01*
X648657Y175350D02*
Y200048D01*
X656590Y207981D02*
Y208280D01*
X648495Y175187D02*
X648657Y175350D01*
X633580Y170030D02*
Y208280D01*
X623570Y167640D02*
X624404Y168474D01*
X632024D02*
X633580Y170030D01*
X624404Y168474D02*
X632024D01*
X613410Y163432D02*
Y179817D01*
Y163432D02*
X620632Y156210D01*
X608330Y181922D02*
X618340Y191932D01*
X610720Y216298D02*
X628102Y233680D01*
X623420Y189827D02*
Y214630D01*
X603250Y145652D02*
Y184026D01*
X608330Y154940D02*
X619760Y143510D01*
X603250Y145652D02*
X620482Y128420D01*
X613410Y179817D02*
X623420Y189827D01*
X618340Y191932D02*
Y216734D01*
X608330Y154940D02*
Y181922D01*
X610720Y191496D02*
Y216298D01*
X620632Y156210D02*
X630831D01*
X603250Y184026D02*
X610720Y191496D01*
X559052Y163830D02*
X577887D01*
X622337Y119380D02*
X633332D01*
X620482Y128420D02*
X638660D01*
X577887Y163830D02*
X622337Y119380D01*
X578970Y133350D02*
X603100Y109220D01*
X634452Y118260D02*
X652480D01*
X633332Y119380D02*
X634452Y118260D01*
X624739Y108100D02*
X645258D01*
X647524Y113180D02*
X661564Y99140D01*
X632347Y113180D02*
X647524D01*
X617070Y114300D02*
X631227D01*
X645258Y108100D02*
X647550Y105808D01*
X578970Y152400D02*
X617070Y114300D01*
X603100Y109220D02*
X623619D01*
X652480Y118260D02*
X657760Y112980D01*
X623619Y109220D02*
X624739Y108100D01*
X631227Y114300D02*
X632347Y113180D01*
X490904Y31750D02*
X632242D01*
X633730Y33238D02*
Y44450D01*
X632242Y31750D02*
X633730Y33238D01*
X647550Y93980D02*
X655170Y86360D01*
X647550Y93980D02*
Y105808D01*
X615950Y38318D02*
Y99060D01*
X495150Y36830D02*
X614462D01*
X615950Y38318D01*
X557782Y162560D02*
X559052Y163830D01*
X527050Y162560D02*
X557782D01*
X285600Y325706D02*
X466308Y144998D01*
X474762D02*
X474980Y144780D01*
X466308Y144998D02*
X474762D01*
X285600Y325706D02*
Y372110D01*
X454660Y163830D02*
X464820D01*
X311000Y307490D02*
Y372110D01*
Y307490D02*
X454660Y163830D01*
X467428Y124460D02*
X476250D01*
X465940Y125948D02*
X467428Y124460D01*
X465940Y125948D02*
Y134620D01*
X469352Y106680D02*
X482600D01*
X297902Y278130D02*
X469352Y106680D01*
X482450Y33020D02*
Y43180D01*
X487530Y35124D02*
Y45720D01*
X492610Y39370D02*
Y47824D01*
X476934Y63500D02*
X492610Y47824D01*
X418950Y63500D02*
X476934D01*
X474830Y58420D02*
X487530Y45720D01*
X416410Y58420D02*
X474830D01*
X472290Y53340D02*
X482450Y43180D01*
X407520Y53340D02*
X472290D01*
X559920Y369570D02*
X664060Y265430D01*
X483870Y369570D02*
X559920D01*
X372893Y167153D02*
X376138Y170398D01*
X372893Y157143D02*
Y167153D01*
X384592Y170398D02*
X384810Y170180D01*
X376138Y170398D02*
X384592D01*
X384442Y146050D02*
X389522Y151130D01*
X400050D01*
X360748Y146050D02*
X384442D01*
X381000Y134620D02*
X419100D01*
X379730Y133350D02*
X381000Y134620D01*
X419100D02*
X420370Y135890D01*
X359260Y144562D02*
X360748Y146050D01*
X359260Y135890D02*
Y144562D01*
X337670Y92860D02*
X337820Y92710D01*
X337670Y92860D02*
Y142240D01*
X356720Y161290D01*
X544830Y152400D02*
X578970D01*
X372546Y77470D02*
X374412Y75604D01*
X390905Y63500D02*
X394715Y67310D01*
X396819Y62230D02*
X412600D01*
X374412Y75604D02*
X381596D01*
X393009Y58420D02*
X396819Y62230D01*
X381596Y75604D02*
X383540Y73660D01*
X371458Y71374D02*
X379332Y63500D01*
X343584Y57150D02*
X357808Y71374D01*
X377227Y58420D02*
X393009D01*
X394715Y67310D02*
X415140D01*
X356720Y77470D02*
X372546D01*
X363324Y61214D02*
X374433D01*
X379332Y63500D02*
X390905D01*
X357808Y71374D02*
X371458D01*
X374433Y61214D02*
X377227Y58420D01*
X415140Y67310D02*
X418950Y63500D01*
X412600Y62230D02*
X416410Y58420D01*
X299583Y80023D02*
X311385D01*
X327908Y63500D01*
X605640Y218403D02*
X625998Y238760D01*
X533250Y222250D02*
X595480D01*
X573018Y185420D02*
X605640Y218042D01*
Y218403D01*
X558868Y185420D02*
X573018D01*
X625998Y238760D02*
X660686D01*
X490333Y264160D02*
X595480D01*
X319890Y57150D02*
X343584D01*
X620812Y793224D02*
X622300Y794712D01*
X525908Y793224D02*
X620812D01*
X622300Y794712D02*
Y822850D01*
X519430Y799702D02*
Y824230D01*
Y799702D02*
X525908Y793224D01*
X530116Y803384D02*
Y930384D01*
X527050Y933450D02*
X530116Y930384D01*
X525562Y935106D02*
X527050Y933618D01*
Y933450D02*
Y933618D01*
X472231Y935106D02*
X525562D01*
X869810Y749440D02*
X871220Y748030D01*
X842010Y749440D02*
X869810D01*
X32766Y710070D02*
X32906Y709930D01*
X63500D01*
X472150Y824230D02*
X519430D01*
X470662Y825718D02*
X472150Y824230D01*
X470662Y825718D02*
Y895858D01*
X327660Y787400D02*
X436118Y895858D01*
X470662D01*
X386080Y913130D02*
X469934D01*
X495842Y913858D02*
X496570Y913130D01*
X326608Y803692D02*
X330200Y807284D01*
X298450Y804050D02*
X326250D01*
X330200Y807284D02*
Y816610D01*
X326250Y804050D02*
X326608Y803692D01*
X264160Y787400D02*
X327660D01*
X243840Y874400D02*
Y891540D01*
X737235Y823595D02*
X737870Y822960D01*
X736600Y824230D02*
X737235Y823595D01*
X260350Y791210D02*
X264160Y787400D01*
X260350Y791210D02*
Y801260D01*
X929960Y771210D02*
X949850D01*
X929640Y770890D02*
X929960Y771210D01*
X737870Y808048D02*
Y822960D01*
X739358Y806560D02*
X751840D01*
X737870Y808048D02*
X739358Y806560D01*
X684530Y868680D02*
X685160Y868050D01*
X707170D01*
X556260Y914400D02*
X579120D01*
X582733Y896986D02*
Y910788D01*
X579120Y914400D02*
X582733Y910788D01*
X400050Y936830D02*
X400160Y936940D01*
X325120Y922020D02*
X398562D01*
X400050Y923508D01*
X284590Y881490D02*
X325120Y922020D01*
X400050Y923508D02*
Y936830D01*
X470662Y913858D02*
X495842D01*
X469934Y913130D02*
X470662Y913858D01*
X243840Y874400D02*
X249240Y869000D01*
X168070Y875030D02*
X189230D01*
X167750Y874710D02*
X168070Y875030D01*
X382160Y909210D02*
X386080Y913130D01*
X382160Y896940D02*
Y909210D01*
X249240Y869000D02*
X266590D01*
X75946Y749918D02*
Y779526D01*
X76200Y779780D01*
X910590Y693420D02*
X925309D01*
X925405Y693324D01*
X868680Y735330D02*
X910590Y693420D01*
X751840Y788560D02*
X804020D01*
X693530Y793640D02*
X707390D01*
X622300Y822850D02*
X664320D01*
X693530Y793640D01*
X740520Y788560D02*
X751840D01*
X735440Y793640D02*
X740520Y788560D01*
X707390Y793640D02*
X735440D01*
X260240Y801370D02*
X260350Y801260D01*
X240030Y801370D02*
X260240D01*
X191770Y795020D02*
X233680D01*
X240030Y801370D01*
X163720Y766970D02*
X191770Y795020D01*
X153670Y766970D02*
X163720D01*
X135890Y767080D02*
X153560D01*
X153670Y766970D01*
X86758Y731918D02*
X105410Y750570D01*
X119380D01*
X135890Y767080D01*
X75946Y731918D02*
X86758D01*
X582733Y882868D02*
X584220Y881380D01*
X599440D01*
X582733Y882868D02*
Y896986D01*
X599440Y881380D02*
X622300Y858520D01*
Y840850D02*
Y858520D01*
X600733Y936986D02*
Y950986D01*
X472231Y952606D02*
X599113D01*
X600733Y950986D01*
Y896986D02*
X601098Y896620D01*
X725170Y898108D02*
Y908050D01*
X601098Y896620D02*
X657715D01*
X658395Y895940D01*
X723002D01*
X725170Y898108D01*
X707170Y811860D02*
X707390Y811640D01*
X707170Y811860D02*
Y868050D01*
X751840Y806560D02*
Y817880D01*
X763590Y829630D01*
X833010D01*
X842010Y766940D02*
Y847090D01*
X851010Y856090D01*
Y869630D01*
Y829630D02*
X961070D01*
X967850Y811210D02*
Y822850D01*
X961070Y829630D02*
X967850Y822850D01*
X925405Y711324D02*
Y734905D01*
X949850Y759350D02*
Y771210D01*
X925405Y734905D02*
X949850Y759350D01*
X284590Y869000D02*
Y881490D01*
X276830Y859122D02*
Y890240D01*
Y859122D02*
X298450Y837502D01*
Y821550D02*
Y837502D01*
X276830Y890240D02*
X284590Y898000D01*
Y909000D01*
X260350Y819260D02*
Y850900D01*
X266590Y857140D02*
Y869000D01*
X260350Y850900D02*
X266590Y857140D01*
X153670Y784970D02*
Y797560D01*
X159990Y803880D01*
Y854680D01*
X167750Y862440D01*
Y874710D01*
X148372Y817880D02*
X149860Y819368D01*
X73660Y817880D02*
X148372D01*
X149750Y834710D02*
X149860Y834600D01*
Y819368D02*
Y834600D01*
X53450Y797670D02*
X73660Y817880D01*
X53450Y785180D02*
Y797670D01*
X33020Y727824D02*
Y745490D01*
X32766Y727570D02*
X33020Y727824D01*
X27940Y795308D02*
Y797560D01*
X27690Y795058D02*
X27940Y795308D01*
X27690Y750820D02*
Y795058D01*
Y750820D02*
X33020Y745490D01*
X27940Y797560D02*
X38100D01*
X35450Y772270D02*
Y785180D01*
Y772270D02*
X57802Y749918D01*
X38100Y797560D02*
X53450Y812910D01*
Y825180D01*
X57802Y749918D02*
X75946D01*
X206860Y147320D02*
X208130Y148590D01*
X285600Y278130D02*
X297902D01*
X284330Y279400D02*
X285600Y278130D01*
X321160Y279400D02*
X465940Y134620D01*
X311000Y279400D02*
X321160D01*
X333860Y73660D02*
X342750D01*
X352910Y83820D01*
Y124460D01*
X342750Y63500D02*
X356720Y77470D01*
X327908Y63500D02*
X342750D01*
X567540Y133350D02*
X578970D01*
X655170Y76200D02*
Y86360D01*
X635911Y151130D02*
X638660D01*
X630831Y156210D02*
X635911Y151130D01*
X661564Y99140D02*
X663020D01*
X363070Y162778D02*
Y172720D01*
X361582Y161290D02*
X363070Y162778D01*
X356720Y161290D02*
X361582D01*
X347830Y129540D02*
X352910Y124460D01*
X347830Y143510D02*
X356720Y152400D01*
X347830Y129540D02*
Y143510D01*
X356720Y152400D02*
X368150D01*
X372893Y157143D01*
X557380Y175260D02*
Y183932D01*
X558868Y185420D01*
X657760Y112980D02*
X718402D01*
X722480Y117058D01*
Y200660D01*
X492610Y39370D02*
X495150Y36830D01*
X487530Y35124D02*
X490904Y31750D01*
X406250Y52070D02*
X407520Y53340D01*
X488800Y26670D02*
X726072D01*
X482450Y33020D02*
X488800Y26670D01*
X726072D02*
X727560Y28158D01*
Y149860D01*
X792330Y214630D01*
X628102Y233680D02*
X662790D01*
X660686Y238760D02*
X679736Y257810D01*
X662790Y233680D02*
X681840Y252730D01*
X666600Y222250D02*
X686920Y242570D01*
X684380Y247650D02*
X706406D01*
X628936Y227330D02*
X664060D01*
X681840Y252730D02*
X703430D01*
X664060Y227330D02*
X684380Y247650D01*
X686920Y242570D02*
X708510D01*
X631040Y222250D02*
X666600D01*
X708510Y242570D02*
X722480Y256540D01*
X706406Y247650D02*
X717400Y258644D01*
X618340Y216734D02*
X628936Y227330D01*
X623420Y214630D02*
X631040Y222250D01*
X717400Y258644D02*
Y295430D01*
X703430Y252730D02*
X707240Y256540D01*
Y267970D01*
X687972Y257810D02*
X689460Y259298D01*
Y267970D01*
X679736Y257810D02*
X687972D01*
X722480Y256540D02*
Y298460D01*
X712330Y308610D02*
X722480Y298460D01*
X702160Y308610D02*
X712330D01*
X685868Y303530D02*
X709300D01*
X717400Y295430D01*
X683110Y306288D02*
X685868Y303530D01*
X683110Y306288D02*
Y314960D01*
X702160Y308610D02*
Y317500D01*
X486305Y251505D02*
Y260132D01*
X490333Y264160D01*
X486260Y251460D02*
X486305Y251505D01*
X486260Y288290D02*
X577700D01*
X380850Y340360D02*
Y387350D01*
X233530Y241300D02*
X262740D01*
X792330Y214630D02*
X802490D01*
X493950Y349250D02*
X561190D01*
D57*
X332740Y937730D02*
D03*
X902970Y857720D02*
D03*
X781050Y904710D02*
D03*
X101600Y861530D02*
D03*
X655320Y939000D02*
D03*
X213360Y908520D02*
D03*
D58*
X332740Y837730D02*
D03*
X902970Y757720D02*
D03*
X781050Y804710D02*
D03*
X101600Y761530D02*
D03*
X655320Y839000D02*
D03*
X213360Y808520D02*
D03*
D67*
X401053Y12700D02*
X741353D01*
X386080Y16510D02*
X386982Y15608D01*
X398145D02*
X401053Y12700D01*
X395429Y27305D02*
X401779Y20955D01*
X728439D02*
X735965Y28481D01*
Y88900D01*
X386982Y15608D02*
X398145D01*
X359410Y15240D02*
X371475Y27305D01*
X395429D01*
X401779Y20955D02*
X728439D01*
X363070Y87630D02*
X482450D01*
X743585Y14932D02*
Y61575D01*
X745817Y63807D02*
X782477D01*
X741353Y12700D02*
X743585Y14932D01*
X782477Y63807D02*
X788520Y69850D01*
X743585Y61575D02*
X745817Y63807D01*
X788520Y148590D02*
X789305Y147805D01*
Y110182D02*
Y147805D01*
X787073Y107950D02*
X789305Y110182D01*
X755015Y107950D02*
X787073D01*
X735965Y88900D02*
X755015Y107950D01*
X258622Y16859D02*
X339462D01*
X256390Y19091D02*
X258622Y16859D01*
X256390Y19091D02*
Y68362D01*
X291669Y38531D02*
Y72671D01*
X253850Y110490D02*
X291669Y72671D01*
Y38531D02*
X293370Y36830D01*
X206860Y111978D02*
X208348Y110490D01*
X206860Y111978D02*
Y147320D01*
X208348Y110490D02*
X253850D01*
X254902Y69850D02*
X256390Y68362D01*
X208130Y69850D02*
X254902D01*
D68*
X193040Y250190D02*
D03*
X218440Y275590D02*
D03*
D69*
X193040Y300990D02*
D03*
D70*
X825640Y466370D02*
D03*
X824830Y550000D02*
D03*
X175980Y466370D02*
D03*
X175170Y550000D02*
D03*
X783590Y755650D02*
D03*
X970000Y550000D02*
D03*
X970810Y466370D02*
D03*
X30810D02*
D03*
X30000Y550000D02*
D03*
X74930Y218440D02*
D03*
X925000Y34290D02*
D03*
X74930D02*
D03*
X212090Y755650D02*
D03*
X925000Y218440D02*
D03*
X212090Y370840D02*
D03*
X783590D02*
D03*
D71*
X788520Y69850D02*
D03*
Y148590D02*
D03*
X208130D02*
D03*
Y69850D02*
D03*
D72*
X577700Y67310D02*
D03*
X528900D02*
D03*
D73*
X663020Y149940D02*
D03*
D74*
Y124540D02*
D03*
Y99140D02*
D03*
X688420Y149940D02*
D03*
Y124540D02*
D03*
Y99140D02*
D03*
D75*
X429110Y34290D02*
D03*
D76*
X454510D02*
D03*
D77*
X316334Y216408D02*
D03*
X802490Y214630D02*
D03*
X645919Y266339D02*
D03*
X678180Y208280D02*
D03*
X656590D02*
D03*
X670560Y182880D02*
D03*
X623570Y167640D02*
D03*
X619760Y143510D02*
D03*
X638660Y128420D02*
D03*
X633730Y44450D02*
D03*
X615950Y99060D02*
D03*
X535940Y179070D02*
D03*
X527050Y162560D02*
D03*
X474980Y144780D02*
D03*
X464820Y163830D02*
D03*
X476250Y124460D02*
D03*
X482600Y106680D02*
D03*
X487680Y68580D02*
D03*
X483870Y369570D02*
D03*
X384810Y170180D02*
D03*
X400050Y151130D02*
D03*
X420370Y135890D02*
D03*
X359260D02*
D03*
X379730Y133350D02*
D03*
X337820Y92710D02*
D03*
X386080Y16510D02*
D03*
X359410Y15240D02*
D03*
X537210Y132080D02*
D03*
X544830Y152400D02*
D03*
X546100Y825500D02*
D03*
X554990Y935990D02*
D03*
X383540Y73660D02*
D03*
X339462Y16859D02*
D03*
X293370Y36830D02*
D03*
X299583Y80023D02*
D03*
X492864Y229870D02*
D03*
X607164Y240284D02*
D03*
X574144Y233172D02*
D03*
X595480Y222250D02*
D03*
Y264160D02*
D03*
X363324Y61214D02*
D03*
X404472Y33528D02*
D03*
X580390Y311150D02*
D03*
X530116Y803384D02*
D03*
X869810Y749440D02*
D03*
X63500Y709930D02*
D03*
X519430Y824230D02*
D03*
X330200Y816610D02*
D03*
X243840Y891540D02*
D03*
X684530Y868680D02*
D03*
X737235Y823595D02*
D03*
X929960Y771210D02*
D03*
X556260Y914400D02*
D03*
X495842Y913858D02*
D03*
X189230Y875030D02*
D03*
X75946Y779526D02*
D03*
X482450Y87630D02*
D03*
X333860Y73660D02*
D03*
X319890Y57150D02*
D03*
X363070Y87630D02*
D03*
X638660Y151130D02*
D03*
X655170Y76200D02*
D03*
X567540Y133350D02*
D03*
X363070Y172720D02*
D03*
X557380Y175260D02*
D03*
X664060Y265430D02*
D03*
X683110Y314960D02*
D03*
X577700Y288290D02*
D03*
X633580Y208280D02*
D03*
X486260Y251460D02*
D03*
Y288290D02*
D03*
X533250Y222250D02*
D03*
X648495Y175187D02*
D03*
X406250Y52070D02*
D03*
X380850Y340360D02*
D03*
Y387350D02*
D03*
X262740Y241300D02*
D03*
X311000Y372110D02*
D03*
X285600D02*
D03*
X311000Y279400D02*
D03*
X284330D02*
D03*
X702160Y317500D02*
D03*
X689460Y267970D02*
D03*
X707240D02*
D03*
X493950Y349250D02*
D03*
X722480Y200660D02*
D03*
D78*
X35450Y825180D02*
D03*
Y785180D02*
D03*
X53450Y785180D02*
D03*
Y825180D02*
D03*
X167750Y834710D02*
D03*
Y874710D02*
D03*
X149750D02*
D03*
Y834710D02*
D03*
X266590Y909000D02*
D03*
Y869000D02*
D03*
X284590Y869000D02*
D03*
Y909000D02*
D03*
X382160Y936940D02*
D03*
Y896940D02*
D03*
X400160D02*
D03*
Y936940D02*
D03*
X582733Y936986D02*
D03*
Y896986D02*
D03*
X600733D02*
D03*
Y936986D02*
D03*
X833010Y869630D02*
D03*
Y829630D02*
D03*
X851010D02*
D03*
Y869630D02*
D03*
X967850Y811210D02*
D03*
Y771210D02*
D03*
X949850D02*
D03*
Y811210D02*
D03*
X725170Y908050D02*
D03*
X725170Y868050D02*
D03*
X707170Y868050D02*
D03*
Y908050D02*
D03*
D79*
X32766Y727570D02*
D03*
Y710070D02*
D03*
X298450Y821550D02*
D03*
X298450Y804050D02*
D03*
X472231Y952606D02*
D03*
Y935106D02*
D03*
X842010Y749440D02*
D03*
Y766940D02*
D03*
D80*
X75946Y749918D02*
D03*
Y731918D02*
D03*
X153670Y784970D02*
D03*
Y766970D02*
D03*
X260350Y819260D02*
D03*
Y801260D02*
D03*
X470662Y913858D02*
D03*
Y895858D02*
D03*
X622300Y822850D02*
D03*
Y840850D02*
D03*
X707390Y793640D02*
D03*
Y811640D02*
D03*
X751840Y788560D02*
D03*
Y806560D02*
D03*
X925405Y693324D02*
D03*
Y711324D02*
D03*
M02*
