G04*
G04 #@! TF.GenerationSoftware,Altium Limited,Altium Designer,23.10.1 (27)*
G04*
G04 Layer_Color=16711935*
%FSLAX44Y44*%
%MOMM*%
G71*
G04*
G04 #@! TF.SameCoordinates,2FD0DFDD-310B-44B2-BA78-C92062C4FB9D*
G04*
G04*
G04 #@! TF.FilePolarity,Negative*
G04*
G01*
G75*
%ADD55C,1.4252*%
%ADD56R,1.4252X1.4252*%
%ADD57C,1.2500*%
%ADD58R,1.2500X1.2500*%
%ADD59C,4.2032*%
%ADD60O,8.2032X4.2032*%
%ADD61C,1.2332*%
%ADD62R,1.7532X1.7532*%
%ADD63C,1.7532*%
%ADD64C,1.7332*%
%ADD65R,1.7332X1.7332*%
%ADD66C,1.4732*%
%ADD78R,0.7900X1.6600*%
%ADD81R,1.6532X1.3532*%
%ADD82R,1.5532X1.2032*%
D55*
X193040Y250190D02*
D03*
X218440Y275590D02*
D03*
D56*
X193040Y300990D02*
D03*
D57*
X332740Y937730D02*
D03*
X902970Y857720D02*
D03*
X781050Y904710D02*
D03*
X101600Y861530D02*
D03*
X655320Y939000D02*
D03*
X213360Y908520D02*
D03*
D58*
X332740Y837730D02*
D03*
X902970Y757720D02*
D03*
X781050Y804710D02*
D03*
X101600Y761530D02*
D03*
X655320Y839000D02*
D03*
X213360Y808520D02*
D03*
D59*
X825640Y466370D02*
D03*
X824830Y550000D02*
D03*
X175980Y466370D02*
D03*
X175170Y550000D02*
D03*
X783590Y755650D02*
D03*
X970000Y550000D02*
D03*
X970810Y466370D02*
D03*
X30810D02*
D03*
X30000Y550000D02*
D03*
X74930Y218440D02*
D03*
X925000Y34290D02*
D03*
X74930D02*
D03*
X212090Y755650D02*
D03*
X925000Y218440D02*
D03*
X212090Y370840D02*
D03*
X783590D02*
D03*
D60*
X788520Y69850D02*
D03*
Y148590D02*
D03*
X208130D02*
D03*
Y69850D02*
D03*
D61*
X577700Y67310D02*
D03*
X528900D02*
D03*
D62*
X663020Y149940D02*
D03*
D63*
Y124540D02*
D03*
Y99140D02*
D03*
X688420Y149940D02*
D03*
Y124540D02*
D03*
Y99140D02*
D03*
D64*
X429110Y34290D02*
D03*
D65*
X454510D02*
D03*
D66*
X316334Y216408D02*
D03*
X802490Y214630D02*
D03*
X645919Y266339D02*
D03*
X678180Y208280D02*
D03*
X656590D02*
D03*
X670560Y182880D02*
D03*
X623570Y167640D02*
D03*
X619760Y143510D02*
D03*
X638660Y128420D02*
D03*
X633730Y44450D02*
D03*
X615950Y99060D02*
D03*
X535940Y179070D02*
D03*
X527050Y162560D02*
D03*
X474980Y144780D02*
D03*
X464820Y163830D02*
D03*
X476250Y124460D02*
D03*
X482600Y106680D02*
D03*
X487680Y68580D02*
D03*
X483870Y369570D02*
D03*
X384810Y170180D02*
D03*
X400050Y151130D02*
D03*
X420370Y135890D02*
D03*
X359260D02*
D03*
X379730Y133350D02*
D03*
X337820Y92710D02*
D03*
X386080Y16510D02*
D03*
X359410Y15240D02*
D03*
X537210Y132080D02*
D03*
X544830Y152400D02*
D03*
X546100Y825500D02*
D03*
X554990Y935990D02*
D03*
X383540Y73660D02*
D03*
X339462Y16859D02*
D03*
X293370Y36830D02*
D03*
X299583Y80023D02*
D03*
X492864Y229870D02*
D03*
X607164Y240284D02*
D03*
X574144Y233172D02*
D03*
X595480Y222250D02*
D03*
Y264160D02*
D03*
X363324Y61214D02*
D03*
X404472Y33528D02*
D03*
X580390Y311150D02*
D03*
X530116Y803384D02*
D03*
X869810Y749440D02*
D03*
X63500Y709930D02*
D03*
X519430Y824230D02*
D03*
X330200Y816610D02*
D03*
X243840Y891540D02*
D03*
X684530Y868680D02*
D03*
X737235Y823595D02*
D03*
X929960Y771210D02*
D03*
X556260Y914400D02*
D03*
X495842Y913858D02*
D03*
X189230Y875030D02*
D03*
X75946Y779526D02*
D03*
X482450Y87630D02*
D03*
X333860Y73660D02*
D03*
X319890Y57150D02*
D03*
X363070Y87630D02*
D03*
X638660Y151130D02*
D03*
X655170Y76200D02*
D03*
X567540Y133350D02*
D03*
X363070Y172720D02*
D03*
X557380Y175260D02*
D03*
X664060Y265430D02*
D03*
X683110Y314960D02*
D03*
X577700Y288290D02*
D03*
X633580Y208280D02*
D03*
X486260Y251460D02*
D03*
Y288290D02*
D03*
X533250Y222250D02*
D03*
X648495Y175187D02*
D03*
X406250Y52070D02*
D03*
X380850Y340360D02*
D03*
Y387350D02*
D03*
X262740Y241300D02*
D03*
X311000Y372110D02*
D03*
X285600D02*
D03*
X311000Y279400D02*
D03*
X284330D02*
D03*
X702160Y317500D02*
D03*
X689460Y267970D02*
D03*
X707240D02*
D03*
X493950Y349250D02*
D03*
X722480Y200660D02*
D03*
D78*
X35450Y825180D02*
D03*
Y785180D02*
D03*
X53450Y785180D02*
D03*
Y825180D02*
D03*
X167750Y834710D02*
D03*
Y874710D02*
D03*
X149750D02*
D03*
Y834710D02*
D03*
X266590Y909000D02*
D03*
Y869000D02*
D03*
X284590Y869000D02*
D03*
Y909000D02*
D03*
X382160Y936940D02*
D03*
Y896940D02*
D03*
X400160D02*
D03*
Y936940D02*
D03*
X582733Y936986D02*
D03*
Y896986D02*
D03*
X600733D02*
D03*
Y936986D02*
D03*
X833010Y869630D02*
D03*
Y829630D02*
D03*
X851010D02*
D03*
Y869630D02*
D03*
X967850Y811210D02*
D03*
Y771210D02*
D03*
X949850D02*
D03*
Y811210D02*
D03*
X725170Y908050D02*
D03*
X725170Y868050D02*
D03*
X707170Y868050D02*
D03*
Y908050D02*
D03*
D81*
X32766Y727570D02*
D03*
Y710070D02*
D03*
X298450Y821550D02*
D03*
X298450Y804050D02*
D03*
X472231Y952606D02*
D03*
Y935106D02*
D03*
X842010Y749440D02*
D03*
Y766940D02*
D03*
D82*
X75946Y749918D02*
D03*
Y731918D02*
D03*
X153670Y784970D02*
D03*
Y766970D02*
D03*
X260350Y819260D02*
D03*
Y801260D02*
D03*
X470662Y913858D02*
D03*
Y895858D02*
D03*
X622300Y822850D02*
D03*
Y840850D02*
D03*
X707390Y793640D02*
D03*
Y811640D02*
D03*
X751840Y788560D02*
D03*
Y806560D02*
D03*
X925405Y693324D02*
D03*
Y711324D02*
D03*
M02*
